SplineFontDB: 3.0
FontName: Caudex
FullName: Caudex
FamilyName: Caudex
Weight: Book
Copyright: Copyright (c) 2011 Hjort Nidudsson
Version: 1.01
ItalicAngle: 0
UnderlinePosition: -100
UnderlineWidth: 30
Ascent: 1638
Descent: 410
LayerCount: 2
Layer: 0 1 "Back"  1
Layer: 1 1 "Fore"  0
NeedsXUIDChange: 1
XUID: [1021 997 1545580258 7013116]
FSType: 0
OS2Version: 0
OS2_WeightWidthSlopeOnly: 0
OS2_UseTypoMetrics: 1
CreationTime: 936868149
ModificationTime: 1304853141
PfmFamily: 17
TTFWeight: 400
TTFWidth: 5
LineGap: 0
VLineGap: 0
Panose: 2 4 5 2 5 5 5 3 3 4
OS2TypoAscent: 2034
OS2TypoAOffset: 0
OS2TypoDescent: -606
OS2TypoDOffset: 0
OS2TypoLinegap: 0
OS2WinAscent: 2034
OS2WinAOffset: 0
OS2WinDescent: 606
OS2WinDOffset: 0
HheadAscent: 2034
HheadAOffset: 0
HheadDescent: -606
HheadDOffset: 0
OS2SubXSize: 1285
OS2SubYSize: 1230
OS2SubXOff: 0
OS2SubYOff: 0
OS2SupXSize: 655
OS2SupYSize: 860
OS2SupXOff: 0
OS2SupYOff: 550
OS2StrikeYSize: 100
OS2StrikeYPos: 530
OS2FamilyClass: 260
OS2Vendor: 'PfEd'
Lookup: 258 0 0 "'kern' Horizontal Kerning in Latin lookup 0"  {"'kern' Horizontal Kerning in Latin lookup 0 subtable"  } ['kern' ('latn' <'dflt' > ) ]
MarkAttachClasses: 1
DEI: 91125
KernClass2: 18 19 "'kern' Horizontal Kerning in Latin lookup 0 subtable" 
 148 A Aacute Agrave Acircumflex Adieresis Atilde Abreve Aring Aringacute Amacron Aogonek uni1EA0 uni1EA2 uni1EA4 uni1EA6 uni1EA8 uni1EAA uni1EAC uni1EAE
 17 F uni03DC uni1E1E
 53 L Lacute Lcommaaccent uniE19E uni1E36 uniA746 uniA748
 45 P Rho uni1E54 uni1E56 uniA750 uniA752 uniA754
 44 R Racute Rcommaaccent Rcaron uni1E58 uni1E5A
 37 T Tcommaaccent Tcaron uni1E6A uni1E6C
 71 V W Wcircumflex uni1E7E Wgrave Wacute Wdieresis uni1E86 uni1E88 uniA760
 78 Y Ycircumflex Ydieresis uni0232 Upsilondieresis Ygrave uni1EF4 uni1EF6 uni1EF8
 22 r rcommaaccent uni1E5B
 87 v w wcircumflex uni1D20 uni1D21 uni1E7F wgrave wacute wdieresis uni1E87 uni1E89 uniA761
 60 y ycircumflex uni1E8F uni1E99 ygrave uni1EF5 uni1EF7 uni1EF9
 12 quotedblbase

StartChar: .notdef
Encoding: 65536 -1 0
Width: 772
Flags: W
LayerCount: 2
Fore
SplineSet
0 1404 m 1,0,-1
 772 1404 l 1,1,-1
 772 0 l 1,2,-1
 0 0 l 1,3,-1
 0 1404 l 1,0,-1
272 244 m 2,5,-1
 272 175 l 2,6,7
 272 102 272 102 364 102 c 256,8,9
 456 102 456 102 456 175 c 2,10,-1
 456 244 l 2,11,12
 456 317 456 317 364 317 c 256,13,4
 272 317 272 317 272 244 c 2,5,-1
399 504 m 2,14,-1
 402 653 l 2,15,16
 403 713 403 713 420 744 c 0,17,18
 436 773 436 773 487 805 c 0,19,20
 508 819 508 819 524 829 c 0,21,22
 668 917 668 917 668 1059 c 0,23,24
 668 1172 668 1172 593 1237 c 0,25,26
 517 1302 517 1302 383 1302 c 0,27,28
 253 1302 253 1302 179 1235 c 1,29,30
 104 1169 104 1169 104 1054 c 0,31,32
 104 1028 104 1028 118 1016 c 0,33,34
 132 1005 132 1005 162 1005 c 0,35,36
 188 1005 188 1005 206 1016 c 0,37,38
 221 1026 221 1026 223 1046 c 0,39,40
 232 1162 232 1162 264 1204 c 1,41,42
 295 1248 295 1248 363 1248 c 0,43,44
 440 1248 440 1248 480 1201 c 1,45,46
 518 1154 518 1154 518 1059 c 0,47,48
 518 971 518 971 478 908 c 1,49,50
 436 844 436 844 331 771 c 1,51,-1
 331 505 l 2,52,53
 331 464 331 464 341 436 c 0,54,55
 349 411 349 411 364 411 c 0,56,57
 381 411 381 411 390 433 c 256,58,59
 399 455 399 455 399 504 c 2,14,-1
EndSplineSet
Validated: 1
EndChar

StartChar: exclam
Encoding: 33 33 4
Width: 498
Flags: W
LayerCount: 2
Fore
SplineSet
294 375 m 1,0,1
 294 351 294 351 269 351 c 2,2,-1
 248 351 l 2,3,4
 224 351 224 351 224 375 c 1,5,-1
 154 1330 l 1,6,-1
 154 1340 l 2,7,8
 154 1404 154 1404 227 1404 c 2,9,-1
 290 1404 l 2,10,11
 364 1404 364 1404 364 1339 c 2,12,-1
 364 1330 l 1,13,-1
 294 375 l 1,0,1
259 230 m 256,14,15
 369 230 369 230 369 143 c 2,16,-1
 369 61 l 2,17,18
 369 -25 369 -25 259 -25 c 256,19,20
 149 -25 149 -25 149 61 c 2,21,-1
 149 143 l 2,22,23
 149 230 149 230 259 230 c 256,14,15
EndSplineSet
Validated: 1
EndChar

StartChar: quotedbl
Encoding: 34 34 5
Width: 834
Flags: W
LayerCount: 2
Fore
SplineSet
222 969 m 1,0,1
 222 957 222 957 203 957 c 2,2,-1
 188 957 l 2,3,4
 170 957 170 957 170 969 c 1,5,-1
 118 1409 l 1,6,-1
 118 1413 l 2,7,8
 118 1443 118 1443 172 1443 c 2,9,-1
 219 1443 l 2,10,11
 273 1443 273 1443 273 1414 c 2,12,-1
 273 1409 l 1,13,-1
 222 969 l 1,0,1
594 969 m 1,14,15
 594 957 594 957 576 957 c 2,16,-1
 561 957 l 2,17,18
 543 957 543 957 543 969 c 1,19,-1
 491 1409 l 1,20,-1
 491 1413 l 2,21,22
 491 1443 491 1443 545 1443 c 2,23,-1
 592 1443 l 2,24,25
 646 1443 646 1443 646 1412 c 2,26,-1
 646 1409 l 1,27,-1
 594 969 l 1,14,15
EndSplineSet
Validated: 1
EndChar

StartChar: numbersign
Encoding: 35 35 6
Width: 1128
Flags: W
LayerCount: 2
Fore
SplineSet
383 18 m 2,0,-1
 383 381 l 1,1,-1
 104 381 l 2,2,3
 90 381 90 381 90 391 c 2,4,-1
 90 476 l 2,5,6
 90 486 90 486 104 486 c 2,7,-1
 383 486 l 1,8,-1
 383 761 l 1,9,-1
 104 761 l 2,10,11
 90 761 90 761 90 771 c 2,12,-1
 90 856 l 2,13,14
 90 866 90 866 104 866 c 2,15,-1
 383 866 l 1,16,-1
 383 1229 l 2,17,18
 383 1246 383 1246 393 1246 c 2,19,-1
 478 1246 l 2,20,21
 488 1246 488 1246 488 1229 c 2,22,-1
 488 866 l 1,23,-1
 675 866 l 1,24,-1
 675 1229 l 2,25,26
 675 1246 675 1246 686 1246 c 2,27,-1
 770 1246 l 2,28,29
 781 1246 781 1246 781 1229 c 2,30,-1
 781 866 l 1,31,-1
 1059 866 l 2,32,33
 1074 866 1074 866 1074 856 c 2,34,-1
 1074 771 l 2,35,36
 1074 761 1074 761 1059 761 c 2,37,-1
 781 761 l 1,38,-1
 781 486 l 1,39,-1
 1059 486 l 2,40,41
 1074 486 1074 486 1074 476 c 2,42,-1
 1074 391 l 2,43,44
 1074 381 1074 381 1059 381 c 2,45,-1
 781 381 l 1,46,-1
 781 18 l 2,47,48
 781 0 781 0 770 0 c 2,49,-1
 686 0 l 2,50,51
 675 0 675 0 675 18 c 2,52,-1
 675 381 l 1,53,-1
 488 381 l 1,54,-1
 488 18 l 2,55,56
 488 0 488 0 478 0 c 2,57,-1
 393 0 l 2,58,59
 383 0 383 0 383 18 c 2,0,-1
488 761 m 1,60,-1
 488 486 l 1,61,-1
 675 486 l 1,62,-1
 675 761 l 1,63,-1
 488 761 l 1,60,-1
EndSplineSet
Validated: 1
EndChar

StartChar: dollar
Encoding: 36 36 7
Width: 1024
Flags: W
LayerCount: 2
Fore
SplineSet
467 1504 m 2,0,-1
 513 1504 l 2,1,2
 536 1504 536 1504 536 1481 c 2,3,-1
 536 1357 l 1,4,5
 738 1357 738 1357 899 1253 c 1,6,-1
 876 1056 l 2,7,8
 874 1038 874 1038 861 1038 c 0,9,10
 858 1038 858 1038 855 1039 c 0,11,12
 843 1040 843 1040 831 1065 c 0,13,14
 791 1149 791 1149 714 1209 c 128,-1,15
 637 1269 637 1269 549 1272 c 0,16,17
 545 1272 545 1272 542 1272.5 c 128,-1,18
 539 1273 539 1273 536 1273 c 1,19,-1
 536 770 l 1,20,21
 587 761 587 761 642.5 752.5 c 128,-1,22
 698 744 698 744 750 728 c 0,23,24
 842 700 842 700 890 649 c 1,25,26
 926 609 926 609 945 564 c 0,27,28
 971 504 971 504 971 428 c 0,29,30
 971 227 971 227 808 94 c 0,31,32
 723 24 723 24 621 -8 c 0,33,34
 581 -21 581 -21 536 -29 c 1,35,-1
 536 -213 l 2,36,37
 536 -236 536 -236 513 -236 c 2,38,-1
 467 -236 l 2,39,40
 444 -236 444 -236 444 -213 c 2,41,-1
 444 -39 l 1,42,-1
 416 -39 l 2,43,44
 274 -39 274 -39 155 -2 c 1,45,-1
 66 245 l 1,46,-1
 68 268 l 1,47,48
 71 285 71 285 88 285 c 2,49,-1
 90 285 l 1,50,51
 101 283 101 283 114 258 c 1,52,53
 168 141 168 141 245 94 c 128,-1,54
 322 47 322 47 444 47 c 1,55,-1
 444 613 l 1,56,57
 391 622 391 622 340 634 c 128,-1,58
 289 646 289 646 241 670 c 1,59,60
 158 709 158 709 117 786 c 128,-1,61
 76 863 76 863 76 953 c 0,62,63
 76 1128 76 1128 198 1241 c 0,64,65
 293 1329 293 1329 444 1351 c 1,66,-1
 444 1481 l 2,67,68
 444 1504 444 1504 467 1504 c 2,0,-1
536 598 m 1,69,-1
 536 52 l 1,70,71
 690 74 690 74 764 192 c 0,72,73
 808 264 808 264 808 364 c 2,74,-1
 808 373 l 1,75,76
 806 478 806 478 728 534 c 0,77,78
 691 560 691 560 641 575 c 1,79,80
 597 587 597 587 536 598 c 1,69,-1
444 785 m 1,81,-1
 444 1263 l 1,82,83
 409 1255 409 1255 379 1241 c 0,84,85
 336 1221 336 1221 309 1191 c 1,86,87
 285 1167 285 1167 266 1127 c 0,88,89
 250 1092 250 1092 242 1055 c 0,90,91
 236 1025 236 1025 236 998 c 0,92,93
 236 962 236 962 247 930 c 0,94,95
 266 869 266 869 314 833 c 0,96,97
 351 806 351 806 394 796 c 0,98,99
 400 794 400 794 444 785 c 1,81,-1
EndSplineSet
Validated: 1
EndChar

StartChar: percent
Encoding: 37 37 8
Width: 1024
Flags: W
LayerCount: 2
Fore
SplineSet
763 601 m 0,0,1
 667 600 667 600 650.5 524 c 128,-1,2
 634 448 634 448 634 396 c 2,3,-1
 634 202 l 2,4,5
 634 149 634 149 652 73 c 128,-1,6
 670 -3 670 -3 763 -3 c 0,7,8
 827 -3 827 -3 859.5 57 c 128,-1,9
 892 117 892 117 892 202 c 2,10,-1
 892 396 l 2,11,12
 892 480 892 480 862.5 540.5 c 128,-1,13
 833 601 833 601 763 601 c 0,0,1
763 638 m 0,14,15
 874 638 874 638 933 569.5 c 128,-1,16
 992 501 992 501 992 407 c 2,17,-1
 992 190 l 2,18,19
 992 94 992 94 924.5 27.5 c 128,-1,20
 857 -39 857 -39 763 -39 c 0,21,22
 643 -39 643 -39 588 28 c 128,-1,23
 533 95 533 95 533 190 c 2,24,-1
 533 407 l 2,25,26
 533 502 533 502 593.5 570 c 128,-1,27
 654 638 654 638 763 638 c 0,14,15
274 1321 m 1,28,29
 178 1319 178 1319 161.5 1243 c 128,-1,30
 145 1167 145 1167 145 1115 c 2,31,-1
 145 921 l 2,32,33
 145 868 145 868 163 792 c 128,-1,34
 181 716 181 716 274 716 c 0,35,36
 338 716 338 716 370.5 776 c 128,-1,37
 403 836 403 836 403 921 c 2,38,-1
 403 1115 l 2,39,40
 403 1199 403 1199 374 1260 c 128,-1,41
 345 1321 345 1321 274 1321 c 1,28,29
274 1357 m 0,42,43
 386 1357 386 1357 445 1289 c 128,-1,44
 504 1221 504 1221 504 1127 c 2,45,-1
 504 909 l 2,46,47
 504 814 504 814 436 746.5 c 128,-1,48
 368 679 368 679 274 679 c 0,49,50
 155 679 155 679 100 747 c 128,-1,51
 45 815 45 815 45 909 c 2,52,-1
 45 1127 l 2,53,54
 45 1222 45 1222 105 1289.5 c 128,-1,55
 165 1357 165 1357 274 1357 c 0,42,43
929 1400 m 1,56,-1
 1017 1400 l 1,57,-1
 108 0 l 1,58,-1
 20 0 l 1,59,-1
 929 1400 l 1,56,-1
EndSplineSet
Validated: 1
EndChar

StartChar: ampersand
Encoding: 38 38 9
Width: 1292
Flags: W
LayerCount: 2
Fore
SplineSet
877 302 m 1,0,-1
 996 155 l 1,1,2
 1045 91 1045 91 1152 41 c 0,3,4
 1179 29 1179 29 1186 17 c 1,5,6
 1188 11 1188 11 1188 8 c 1,7,8
 1186 4 1186 4 1186 3 c 0,9,10
 1181 -2 1181 -2 1172 -2 c 2,11,-1
 928 -2 l 2,12,13
 893 -2 893 -2 850 66 c 0,14,15
 817 117 817 117 782 158 c 1,16,17
 701 59 701 59 610 13 c 1,18,19
 518 -32 518 -32 403 -32 c 0,20,21
 267 -32 267 -32 186 49 c 1,22,23
 113 124 113 124 113 240 c 0,24,25
 113 252 113 252 114 264 c 0,26,27
 120 384 120 384 187 478 c 1,28,29
 250 570 250 570 403 672 c 1,30,31
 342 754 342 754 308 835 c 0,32,33
 278 904 278 904 278 982 c 0,34,35
 278 995 278 995 279 1009 c 0,36,37
 284 1141 284 1141 366 1223 c 0,38,39
 446 1302 446 1302 575 1302 c 0,40,41
 702 1302 702 1302 769 1238 c 0,42,43
 832 1178 832 1178 832 1079 c 2,44,-1
 832 1062 l 1,45,46
 825 957 825 957 764 875 c 0,47,48
 699 789 699 789 566 706 c 1,49,-1
 834 355 l 1,50,-1
 946 564 l 2,51,52
 954 580 954 580 956 597 c 0,53,54
 957 603 957 603 957 608 c 0,55,56
 957 618 957 618 954 627 c 0,57,58
 950 639 950 639 943.5 647 c 128,-1,59
 937 655 937 655 934 664 c 0,60,61
 933 668 933 668 933 671 c 2,62,-1
 933 674 l 2,63,64
 933 675 933 675 935 681 c 0,65,66
 942 700 942 700 956 700 c 2,67,-1
 1214 700 l 2,68,69
 1224 700 1224 700 1229 694 c 0,70,71
 1230 693 1230 693 1230 690 c 2,72,-1
 1230 688 l 2,73,74
 1230 685 1230 685 1229 681 c 1,75,76
 1223 670 1223 670 1195 656 c 0,77,78
 1180 649 1180 649 1162 641 c 128,-1,79
 1144 633 1144 633 1127 622 c 0,80,81
 1053 574 1053 574 1001 496 c 128,-1,82
 949 418 949 418 877 302 c 1,0,-1
527 759 m 1,83,84
 618 813 618 813 660 881 c 0,85,86
 701 948 701 948 708 1051 c 1,87,-1
 708 1066 l 2,88,89
 708 1134 708 1134 683 1183 c 0,90,91
 655 1236 655 1236 568 1236 c 0,92,93
 500 1236 500 1236 461 1191 c 1,94,95
 421 1143 421 1143 417 1062 c 0,96,97
 416 1051 416 1051 416 1041 c 0,98,99
 416 900 416 900 527 759 c 1,83,84
741 214 m 1,100,-1
 438 615 l 1,101,102
 281 501 281 501 273 337 c 0,103,104
 272 327 272 327 272 316 c 0,105,106
 272 214 272 214 328 142 c 0,107,108
 389 62 389 62 484 62 c 0,109,110
 565 62 565 62 628.5 106 c 128,-1,111
 692 150 692 150 741 214 c 1,100,-1
EndSplineSet
Validated: 1
EndChar

StartChar: quotesingle
Encoding: 39 39 10
Width: 426
Flags: W
LayerCount: 2
Fore
SplineSet
222 969 m 1,0,1
 222 957 222 957 203 957 c 2,2,-1
 188 957 l 2,3,4
 170 957 170 957 170 969 c 1,5,-1
 118 1409 l 1,6,-1
 118 1413 l 2,7,8
 118 1443 118 1443 172 1443 c 2,9,-1
 219 1443 l 2,10,11
 273 1443 273 1443 273 1414 c 2,12,-1
 273 1409 l 1,13,-1
 222 969 l 1,0,1
EndSplineSet
Validated: 1
EndChar

StartChar: parenleft
Encoding: 40 40 11
Width: 682
Flags: W
LayerCount: 2
Fore
SplineSet
139 757 m 2,0,1
 139 895 139 895 157 1021 c 128,-1,2
 175 1147 175 1147 237 1243 c 0,3,4
 269 1293 269 1293 300.5 1333.5 c 128,-1,5
 332 1374 332 1374 383 1405 c 0,6,7
 483 1467 483 1467 580 1467 c 0,8,9
 602 1467 602 1467 602 1437 c 0,10,11
 602 1417 602 1417 600 1415 c 0,12,13
 595 1407 595 1407 540.5 1394 c 128,-1,14
 486 1381 486 1381 423 1318 c 0,15,16
 353 1248 353 1248 323 1116 c 1,17,18
 295 987 295 987 295 640 c 2,19,-1
 295 497 l 2,20,21
 295 148 295 148 323 19 c 1,22,23
 353 -111 353 -111 423 -181 c 1,24,25
 460 -216 460 -216 491 -234 c 0,26,27
 523 -253 523 -253 573 -268 c 1,28,29
 599 -277 599 -277 601 -280 c 0,30,31
 601 -281 601 -281 602 -300 c 1,32,-1
 602 -305 l 2,33,34
 602 -320 602 -320 597 -326 c 0,35,36
 591 -332 591 -332 576 -332 c 0,37,38
 505 -332 505 -332 429 -295 c 0,39,40
 349 -256 349 -256 277.5 -164.5 c 128,-1,41
 206 -73 206 -73 177 23 c 0,42,43
 139 152 139 152 139 377 c 2,44,-1
 139 757 l 2,0,1
EndSplineSet
Validated: 1
EndChar

StartChar: parenright
Encoding: 41 41 12
Width: 682
Flags: W
LayerCount: 2
Fore
SplineSet
602 757 m 2,0,-1
 602 377 l 2,1,2
 602 147 602 147 564 23 c 0,3,4
 534 -73 534 -73 463 -164.5 c 128,-1,5
 392 -256 392 -256 313 -295 c 0,6,7
 236 -332 236 -332 166 -332 c 0,8,9
 151 -332 151 -332 145 -326 c 0,10,11
 138 -320 138 -320 138 -304 c 2,12,-1
 138 -300 l 1,13,14
 139 -281 139 -281 141 -280 c 1,15,16
 142 -277 142 -277 168 -268 c 1,17,18
 216 -254 216 -254 250 -234 c 256,19,20
 284 -214 284 -214 318 -181 c 0,21,22
 389 -111 389 -111 418 19 c 0,23,24
 447 153 447 153 447 497 c 2,25,-1
 447 640 l 2,26,27
 447 983 447 983 418 1116 c 0,28,29
 389 1247 389 1247 318 1318 c 0,30,31
 254 1381 254 1381 199.5 1394 c 128,-1,32
 145 1407 145 1407 141 1415 c 0,33,34
 139 1419 139 1419 139 1437 c 0,35,36
 139 1467 139 1467 161 1467 c 0,37,38
 257 1467 257 1467 358 1405 c 0,39,40
 409 1374 409 1374 440.5 1333.5 c 128,-1,41
 472 1293 472 1293 505 1243 c 1,42,43
 565 1147 565 1147 583.5 1021 c 128,-1,44
 602 895 602 895 602 757 c 2,0,-1
EndSplineSet
Validated: 1
EndChar

StartChar: asterisk
Encoding: 42 42 13
Width: 1024
Flags: W
LayerCount: 2
Fore
SplineSet
271 843 m 2,0,-1
 479 723 l 1,1,-1
 479 963 l 2,2,3
 479 1000 479 1000 506 1000 c 2,4,-1
 558 1000 l 2,5,6
 585 1000 585 1000 585 963 c 2,7,-1
 585 723 l 1,8,-1
 793 843 l 2,9,10
 807 851 807 851 818 851 c 0,11,12
 831 851 831 851 838 839 c 2,13,-1
 865 793 l 2,14,15
 868 787 868 787 868 781 c 0,16,17
 868 765 868 765 846 752 c 2,18,-1
 637 632 l 1,19,-1
 846 511 l 1,20,21
 868 497 868 497 868 482 c 0,22,23
 868 476 868 476 865 470 c 2,24,-1
 838 424 l 2,25,26
 831 412 831 412 818 412 c 0,27,28
 807 412 807 412 793 420 c 2,29,-1
 585 540 l 1,30,-1
 585 300 l 2,31,32
 585 263 585 263 558 263 c 2,33,-1
 506 263 l 2,34,35
 479 263 479 263 479 300 c 2,36,-1
 479 540 l 1,37,-1
 271 420 l 2,38,39
 257 411 257 411 246 411 c 0,40,41
 233 411 233 411 226 424 c 2,42,-1
 200 470 l 2,43,44
 196 477 196 477 196 483 c 0,45,46
 196 498 196 498 218 511 c 2,47,-1
 427 632 l 1,48,-1
 218 752 l 2,49,50
 196 764 196 764 196 779 c 0,51,52
 196 786 196 786 200 793 c 2,53,-1
 226 839 l 2,54,55
 233 851 233 851 246 851 c 0,56,57
 257 851 257 851 271 843 c 2,0,-1
EndSplineSet
Validated: 1
EndChar

StartChar: plus
Encoding: 43 43 14
Width: 1024
Flags: W
LayerCount: 2
Fore
SplineSet
200 684 m 2,0,-1
 479 684 l 1,1,-1
 479 963 l 2,2,3
 479 1000 479 1000 506 1000 c 2,4,-1
 558 1000 l 2,5,6
 585 1000 585 1000 585 963 c 2,7,-1
 585 684 l 1,8,-1
 864 684 l 2,9,10
 901 684 901 684 901 658 c 2,11,-1
 901 605 l 2,12,13
 901 579 901 579 864 579 c 2,14,-1
 585 579 l 1,15,-1
 585 300 l 2,16,17
 585 263 585 263 558 263 c 2,18,-1
 506 263 l 2,19,20
 479 263 479 263 479 300 c 2,21,-1
 479 579 l 1,22,-1
 200 579 l 2,23,24
 163 579 163 579 163 605 c 2,25,-1
 163 658 l 2,26,27
 163 684 163 684 200 684 c 2,0,-1
EndSplineSet
Validated: 1
EndChar

StartChar: comma
Encoding: 44 44 15
Width: 480
Flags: W
LayerCount: 2
Fore
SplineSet
251 230 m 256,0,1
 361 230 361 230 361 143 c 2,2,-1
 361 61 l 2,3,4
 361 40 361 40 351.5 12 c 128,-1,5
 342 -16 342 -16 336 -36 c 1,6,7
 295 -148 295 -148 183 -225 c 1,8,9
 146 -248 146 -248 123 -248 c 0,10,11
 108 -248 108 -248 99 -239 c 0,12,13
 92 -232 92 -232 92 -224 c 0,14,15
 92 -215 92 -215 100 -206 c 0,16,17
 116 -188 116 -188 141 -174 c 1,18,19
 234 -117 234 -117 252 -25 c 1,20,-1
 251 -25 l 2,21,22
 141 -25 141 -25 141 61 c 2,23,-1
 141 143 l 2,24,25
 141 230 141 230 251 230 c 256,0,1
EndSplineSet
Validated: 1
EndChar

StartChar: hyphen
Encoding: 45 45 16
Width: 1024
Flags: W
LayerCount: 2
Fore
SplineSet
200 684 m 2,0,-1
 864 684 l 2,1,2
 901 684 901 684 901 658 c 2,3,-1
 901 605 l 2,4,5
 901 579 901 579 864 579 c 2,6,-1
 200 579 l 2,7,8
 163 579 163 579 163 605 c 2,9,-1
 163 658 l 2,10,11
 163 684 163 684 200 684 c 2,0,-1
EndSplineSet
Validated: 1
EndChar

StartChar: period
Encoding: 46 46 17
Width: 480
Flags: W
LayerCount: 2
Fore
SplineSet
257 230 m 256,0,1
 367 230 367 230 367 143 c 2,2,-1
 367 61 l 2,3,4
 367 -25 367 -25 257 -25 c 256,5,6
 147 -25 147 -25 147 61 c 2,7,-1
 147 143 l 2,8,9
 147 230 147 230 257 230 c 256,0,1
EndSplineSet
Validated: 1
EndChar

StartChar: slash
Encoding: 47 47 18
Width: 1024
Flags: W
LayerCount: 2
Fore
SplineSet
0 -70 m 1,0,-1
 843 1474 l 1,1,-1
 983 1474 l 1,2,-1
 141 -70 l 1,3,-1
 0 -70 l 1,0,-1
EndSplineSet
Validated: 1
EndChar

StartChar: zero
Encoding: 48 48 19
Width: 1100
Flags: W
LayerCount: 2
Fore
SplineSet
565 1374 m 1,0,1
 377 1371 377 1371 344 1220 c 128,-1,2
 311 1069 311 1069 311 966 c 2,3,-1
 311 454 l 2,4,5
 311 350 311 350 346.5 198 c 128,-1,6
 382 46 382 46 565 46 c 0,7,8
 691 46 691 46 755 166 c 128,-1,9
 819 286 819 286 819 454 c 2,10,-1
 819 966 l 2,11,12
 819 1134 819 1134 761 1255 c 0,13,14
 703 1374 703 1374 567 1374 c 2,15,-1
 565 1374 l 1,0,1
565 1446 m 0,16,17
 784 1446 784 1446 900 1311 c 128,-1,18
 1016 1176 1016 1176 1016 989 c 2,19,-1
 1016 431 l 2,20,21
 1016 242 1016 242 883.5 108.5 c 128,-1,22
 751 -25 751 -25 565 -25 c 0,23,24
 331 -25 331 -25 222.5 109 c 128,-1,25
 114 243 114 243 114 431 c 2,26,-1
 114 989 l 2,27,28
 114 1177 114 1177 232.5 1311.5 c 128,-1,29
 351 1446 351 1446 565 1446 c 0,16,17
EndSplineSet
Validated: 1
EndChar

StartChar: one
Encoding: 49 49 20
Width: 1100
Flags: W
LayerCount: 2
Fore
SplineSet
386 -0 m 2,0,1
 365 0 365 0 365 21 c 0,2,3
 365 45 365 45 415 63 c 128,-1,4
 465 81 465 81 465 146 c 2,5,-1
 465 1252 l 1,6,-1
 262 1252 l 1,7,-1
 262 1299 l 1,8,-1
 646 1463 l 1,9,-1
 646 146 l 2,10,11
 646 80 646 80 695 63 c 0,12,13
 745 46 745 46 745 21 c 0,14,15
 745 -0 745 -0 725 -0 c 2,16,-1
 386 -0 l 2,0,1
EndSplineSet
Validated: 1
Colour: ff00
EndChar

StartChar: two
Encoding: 50 50 21
Width: 1100
Flags: W
LayerCount: 2
Fore
SplineSet
167 0 m 1,0,-1
 167 78 l 2,1,2
 167 165 167 165 218 230 c 256,3,4
 269 295 269 295 381 415 c 1,5,6
 447 478 447 478 511.5 550.5 c 128,-1,7
 576 623 576 623 636 693 c 0,8,9
 722 796 722 796 762 899 c 0,10,11
 790 971 790 971 790 1034 c 0,12,13
 790 1093 790 1093 765 1141 c 0,14,15
 712 1240 712 1240 612 1279 c 0,16,17
 554 1301 554 1301 491 1301 c 0,18,19
 443 1301 443 1301 392 1289 c 0,20,21
 273 1259 273 1259 197 1147 c 0,22,23
 173 1111 173 1111 162 1080 c 1,24,-1
 158 1080 l 1,25,-1
 158 1210 l 1,26,27
 168 1238 168 1238 178 1257 c 1,28,29
 220 1325 220 1325 293.5 1377.5 c 128,-1,30
 367 1430 367 1430 472 1446 c 0,31,32
 514 1452 514 1452 555 1452 c 0,33,34
 688 1452 688 1452 808 1385 c 0,35,36
 965 1296 965 1296 968 1090 c 1,37,-1
 968 1086 l 2,38,39
 968 949 968 949 895 828 c 0,40,41
 821 705 821 705 720 593 c 128,-1,42
 619 481 619 481 515 363.5 c 128,-1,43
 411 246 411 246 354 150 c 1,44,-1
 724 150 l 2,45,46
 853 150 853 150 970 192 c 1,47,-1
 972 42 l 1,48,49
 915 7 915 7 849 3.5 c 128,-1,50
 783 0 783 0 726 0 c 2,51,-1
 167 0 l 1,0,-1
EndSplineSet
Validated: 1
Colour: ff00
EndChar

StartChar: three
Encoding: 51 51 22
Width: 1100
Flags: W
LayerCount: 2
Fore
SplineSet
725 65 m 0,0,1
 617 -12 617 -12 457 -28 c 0,2,3
 432 -31 432 -31 408 -31 c 0,4,5
 280 -31 280 -31 186 42 c 1,6,-1
 181 209 l 1,7,-1
 187 209 l 1,8,9
 249 105 249 105 390 73 c 0,10,11
 441 61 441 61 487 61 c 0,12,13
 569 61 569 61 638 97 c 0,14,15
 741 151 741 151 778 253 c 0,16,17
 798 308 798 308 798 363 c 0,18,19
 798 410 798 410 784 456 c 0,20,21
 752 558 752 558 651 633.5 c 128,-1,22
 550 709 550 709 379 712 c 1,23,-1
 377 740 l 1,24,25
 446 762 446 762 535 801.5 c 128,-1,26
 624 841 624 841 672 922 c 0,27,28
 710 987 710 987 710 1053 c 0,29,30
 710 1072 710 1072 707 1092 c 0,31,32
 692 1176 692 1176 637 1233 c 0,33,34
 563 1309 563 1309 462 1309 c 0,35,36
 453 1309 453 1309 445 1308 c 0,37,38
 332 1301 332 1301 260 1214 c 0,39,40
 227 1174 227 1174 214 1128 c 1,41,-1
 210 1128 l 1,42,-1
 210 1283 l 1,43,44
 294 1375 294 1375 384 1410.5 c 128,-1,45
 474 1446 474 1446 557 1446 c 1,46,47
 785 1443 785 1443 861 1262 c 1,48,49
 882 1209 882 1209 882 1157 c 0,50,51
 882 1029 882 1029 749 903 c 0,52,53
 721 876 721 876 683 848 c 1,54,55
 827 777 827 777 892 664 c 0,56,57
 949 565 949 565 949 458 c 0,58,59
 949 443 949 443 948 428 c 0,60,61
 930 212 930 212 725 65 c 0,0,1
EndSplineSet
Validated: 1
EndChar

StartChar: four
Encoding: 52 52 23
Width: 1100
Flags: W
LayerCount: 2
Fore
SplineSet
844 146 m 2,0,1
 844 81 844 81 915.5 63.5 c 128,-1,2
 987 46 987 46 987 21 c 0,3,4
 987 0 987 0 966 0 c 2,5,-1
 543 0 l 2,6,7
 522 0 522 0 522 21 c 0,8,9
 522 46 522 46 593 63.5 c 128,-1,10
 664 81 664 81 664 146 c 2,11,-1
 664 415 l 1,12,-1
 83 415 l 1,13,-1
 83 529 l 1,14,-1
 664 1404 l 1,15,-1
 844 1404 l 1,16,-1
 844 556 l 1,17,-1
 1046 556 l 1,18,-1
 1046 415 l 1,19,-1
 844 415 l 1,20,-1
 844 146 l 2,0,1
664 556 m 1,21,-1
 664 1246 l 1,22,-1
 211 556 l 1,23,-1
 664 556 l 1,21,-1
EndSplineSet
Validated: 1
EndChar

StartChar: five
Encoding: 53 53 24
Width: 1100
Flags: W
LayerCount: 2
Fore
SplineSet
241 762 m 1,0,1
 288 789 288 789 328.5 812.5 c 128,-1,2
 369 836 369 836 415 853 c 0,3,4
 500 884 500 884 580 884 c 0,5,6
 625 884 625 884 670 874 c 0,7,8
 791 846 791 846 877 767 c 1,9,10
 958 689 958 689 989 592 c 0,11,12
 1011 523 1011 523 1011 454 c 0,13,14
 1011 425 1011 425 1007 396 c 0,15,16
 983 228 983 228 862 112 c 0,17,18
 796 48 796 48 704.5 15.5 c 128,-1,19
 613 -17 613 -17 514 -23 c 0,20,21
 492 -24 492 -24 471 -24 c 0,22,23
 269 -24 269 -24 123 70 c 1,24,-1
 118 259 l 1,25,-1
 120 259 l 1,26,27
 171 169 171 169 290 120 c 0,28,29
 386 80 386 80 471 80 c 0,30,31
 491 80 491 80 511 82 c 0,32,33
 627 94 627 94 708.5 182 c 128,-1,34
 790 270 790 270 810 391 c 0,35,36
 815 421 815 421 815 450 c 0,37,38
 815 521 815 521 787 591 c 0,39,40
 748 688 748 688 647 741 c 0,41,42
 579 776 579 776 498 776 c 0,43,44
 484 776 484 776 469 775 c 0,45,46
 371 767 371 767 284 688 c 0,47,48
 255 661 255 661 235 657 c 0,49,50
 222 654 222 654 205 654 c 0,51,52
 196 654 196 654 187 655 c 1,53,54
 172 655 172 655 158.5 656 c 128,-1,55
 145 657 145 657 145 687 c 2,56,-1
 145 1371 l 2,57,58
 145 1397 145 1397 149 1400 c 0,59,60
 153 1404 153 1404 191 1404 c 2,61,-1
 685 1404 l 2,62,63
 740 1404 740 1404 804 1400.5 c 128,-1,64
 868 1397 868 1397 923 1363 c 1,65,-1
 923 1189 l 1,66,67
 813 1230 813 1230 685 1230 c 2,68,-1
 241 1230 l 1,69,-1
 241 762 l 1,0,1
EndSplineSet
Validated: 1
EndChar

StartChar: six
Encoding: 54 54 25
Width: 1100
Flags: W
LayerCount: 2
Fore
SplineSet
551 907 m 1,0,1
 426 900 426 900 338.5 768.5 c 128,-1,2
 251 637 251 637 251 459 c 0,3,4
 251 280 251 280 340 159 c 1,5,6
 424 43 424 43 541 43 c 2,7,-1
 553 43 l 1,8,9
 677 49 677 49 765 180.5 c 128,-1,10
 853 312 853 312 853 491 c 256,11,12
 853 670 853 670 765 792 c 1,13,14
 680 907 680 907 563 907 c 2,15,-1
 551 907 l 1,0,1
316 914 m 1,16,17
 415 971 415 971 541 971 c 0,18,19
 573 971 573 971 607 967 c 0,20,21
 773 949 773 949 880 850 c 0,22,23
 1044 700 1044 700 1046 475 c 1,24,25
 1046 269 1046 269 901 119 c 0,26,27
 762 -26 762 -26 569 -26 c 2,28,-1
 554 -26 l 1,29,30
 346 -20 346 -20 214 124 c 1,31,32
 84 264 84 264 84 466 c 2,33,-1
 84 475 l 1,34,35
 87 796 87 796 225.5 1023 c 128,-1,36
 364 1250 364 1250 612 1420 c 0,37,38
 639 1438 639 1438 641 1439 c 0,39,40
 664 1451 664 1451 696 1451 c 2,41,-1
 699 1451 l 1,42,43
 733 1450 733 1450 765 1450 c 0,44,45
 808 1450 808 1450 808 1441 c 0,46,47
 808 1436 808 1436 792 1428 c 1,48,49
 624 1311 624 1311 515 1197.5 c 128,-1,50
 406 1084 406 1084 316 914 c 1,16,17
EndSplineSet
Validated: 1
EndChar

StartChar: seven
Encoding: 55 55 26
Width: 1100
Flags: W
LayerCount: 2
Fore
SplineSet
399 153 m 1,0,1
 361 79 361 79 342 0 c 1,2,-1
 172 1 l 1,3,4
 171 13 171 13 171 25 c 0,5,6
 171 75 171 75 192 123 c 0,7,8
 217 182 217 182 243 232 c 0,9,10
 371 469 371 469 538.5 756 c 128,-1,11
 706 1043 706 1043 817 1230 c 1,12,-1
 418 1230 l 2,13,14
 289 1230 289 1230 181 1189 c 1,15,-1
 181 1363 l 1,16,17
 235 1397 235 1397 298.5 1400.5 c 128,-1,18
 362 1404 362 1404 418 1404 c 2,19,-1
 912 1404 l 2,20,21
 949 1404 949 1404 953.5 1400 c 128,-1,22
 958 1396 958 1396 958 1358 c 0,23,24
 958 1291 958 1291 928 1228 c 1,25,26
 795 959 795 959 663 690.5 c 128,-1,27
 531 422 531 422 399 153 c 1,0,1
EndSplineSet
Validated: 1
EndChar

StartChar: eight
Encoding: 56 56 27
Width: 1100
Flags: W
LayerCount: 2
Fore
SplineSet
574 756 m 0,0,1
 448 756 448 756 360 675 c 128,-1,2
 272 594 272 594 272 405 c 0,3,4
 272 215 272 215 349.5 134.5 c 128,-1,5
 427 54 427 54 574 54 c 0,6,7
 720 54 720 54 797 132 c 128,-1,8
 874 210 874 210 874 405 c 256,9,10
 874 600 874 600 786.5 678 c 128,-1,11
 699 756 699 756 574 756 c 0,0,1
607 1448 m 1,12,13
 817 1445 817 1445 917 1346 c 0,14,15
 1012 1252 1012 1252 1012 1103 c 2,16,-1
 1012 1088 l 1,17,18
 1006 852 1006 852 745 796 c 1,19,20
 884 761 884 761 971 664.5 c 128,-1,21
 1058 568 1058 568 1064 403 c 1,22,-1
 1064 383 l 2,23,24
 1064 184 1064 184 928 86 c 0,25,26
 784 -17 784 -17 556 -20 c 1,27,-1
 548 -20 l 2,28,29
 326 -20 326 -20 197 88 c 1,30,31
 65 197 65 197 65 402 c 0,32,33
 65 563 65 563 157 662 c 128,-1,34
 249 761 249 761 396 797 c 1,35,36
 143 857 143 857 143 1102 c 2,37,-1
 143 1106 l 1,38,39
 144 1277 144 1277 271 1364 c 0,40,41
 393 1448 393 1448 593 1448 c 2,42,-1
 607 1448 l 1,12,13
579 1383 m 0,43,44
 446 1383 446 1383 388 1301 c 128,-1,45
 330 1219 330 1219 330 1104 c 0,46,47
 330 988 330 988 379.5 906.5 c 128,-1,48
 429 825 429 825 579 825 c 0,49,50
 728 825 728 825 778 906.5 c 128,-1,51
 828 988 828 988 828 1104 c 0,52,53
 828 1219 828 1219 769.5 1301 c 128,-1,54
 711 1383 711 1383 579 1383 c 0,43,44
EndSplineSet
Validated: 1
EndChar

StartChar: nine
Encoding: 57 57 28
Width: 1100
Flags: W
LayerCount: 2
Fore
SplineSet
578 517 m 1,0,1
 702 523 702 523 790 654.5 c 128,-1,2
 878 786 878 786 878 965 c 0,3,4
 878 1143 878 1143 790 1265 c 1,5,6
 705 1381 705 1381 589 1381 c 2,7,-1
 577 1381 l 1,8,9
 451 1374 451 1374 363.5 1242.5 c 128,-1,10
 276 1111 276 1111 276 933 c 0,11,12
 276 754 276 754 365 633 c 1,13,14
 449 517 449 517 566 517 c 2,15,-1
 578 517 l 1,0,1
814 510 m 1,16,17
 715 453 715 453 589 453 c 0,18,19
 556 453 556 453 522 457 c 0,20,21
 355 475 355 475 249 574 c 0,22,23
 85 726 85 726 84 950 c 1,24,-1
 84 953 l 2,25,26
 84 1156 84 1156 228 1306 c 0,27,28
 367 1451 367 1451 560 1451 c 2,29,-1
 575 1451 l 1,30,31
 782 1445 782 1445 915 1301 c 0,32,33
 1046 1159 1046 1159 1046 956 c 2,34,-1
 1046 950 l 1,35,36
 1042 628 1042 628 903.5 401 c 128,-1,37
 765 174 765 174 518 5 c 0,38,39
 491 -13 491 -13 489 -14 c 0,40,41
 465 -26 465 -26 433 -26 c 0,42,43
 431 -26 431 -26 430 -25 c 1,44,-1
 365 -25 l 2,45,46
 321 -25 321 -25 321 -16 c 0,47,48
 321 -11 321 -11 337 -3 c 1,49,50
 505 114 505 114 614.5 226.5 c 128,-1,51
 724 339 724 339 814 510 c 1,16,17
EndSplineSet
Validated: 1
EndChar

StartChar: colon
Encoding: 58 58 29
Width: 512
Flags: W
LayerCount: 2
Fore
SplineSet
257 948 m 256,0,1
 367 948 367 948 367 861 c 2,2,-1
 367 779 l 2,3,4
 367 692 367 692 257 692 c 256,5,6
 147 692 147 692 147 779 c 2,7,-1
 147 861 l 2,8,9
 147 948 147 948 257 948 c 256,0,1
257 230 m 256,10,11
 367 230 367 230 367 143 c 2,12,-1
 367 61 l 2,13,14
 367 -25 367 -25 257 -25 c 256,15,16
 147 -25 147 -25 147 61 c 2,17,-1
 147 143 l 2,18,19
 147 230 147 230 257 230 c 256,10,11
EndSplineSet
Validated: 1
EndChar

StartChar: semicolon
Encoding: 59 59 30
Width: 512
Flags: W
LayerCount: 2
Fore
SplineSet
257 948 m 256,0,1
 367 948 367 948 367 861 c 2,2,-1
 367 779 l 2,3,4
 367 692 367 692 257 692 c 256,5,6
 147 692 147 692 147 779 c 2,7,-1
 147 861 l 2,8,9
 147 948 147 948 257 948 c 256,0,1
257 230 m 256,10,11
 367 230 367 230 367 143 c 2,12,-1
 367 61 l 2,13,14
 367 40 367 40 357.5 12 c 128,-1,15
 348 -16 348 -16 341 -36 c 0,16,17
 302 -148 302 -148 189 -225 c 1,18,19
 152 -249 152 -249 129 -249 c 0,20,21
 114 -249 114 -249 105 -239 c 0,22,23
 98 -232 98 -232 98 -224 c 0,24,25
 98 -215 98 -215 106 -206 c 0,26,27
 122 -188 122 -188 147 -174 c 1,28,29
 240 -117 240 -117 258 -25 c 1,30,-1
 257 -25 l 2,31,32
 147 -23 147 -23 147 61 c 2,33,-1
 147 143 l 2,34,35
 147 230 147 230 257 230 c 256,10,11
EndSplineSet
Validated: 1
EndChar

StartChar: less
Encoding: 60 60 31
Width: 1024
Flags: W
LayerCount: 2
Fore
SplineSet
188 607 m 2,0,1
 178 617 178 617 178 629 c 0,2,3
 178 645 178 645 199 665 c 2,4,-1
 816 1268 l 2,5,6
 836 1287 836 1287 852 1287 c 0,7,8
 864 1287 864 1287 874 1277 c 2,9,-1
 922 1228 l 2,10,11
 931 1218 931 1218 931 1206 c 0,12,13
 931 1189 931 1189 912 1170 c 2,14,-1
 361 631 l 1,15,-1
 912 93 l 1,16,17
 931 73 931 73 931 56 c 0,18,19
 931 45 931 45 922 35 c 2,20,-1
 874 -13 l 2,21,22
 864 -23 864 -23 852 -23 c 0,23,24
 836 -23 836 -23 816 -4 c 2,25,-1
 188 607 l 2,0,1
EndSplineSet
Validated: 1
EndChar

StartChar: equal
Encoding: 61 61 32
Width: 1024
Flags: W
LayerCount: 2
Fore
SplineSet
204 537 m 2,0,-1
 867 537 l 2,1,2
 904 537 904 537 904 510 c 2,3,-1
 904 458 l 2,4,5
 904 431 904 431 867 431 c 2,6,-1
 204 431 l 2,7,8
 167 431 167 431 167 458 c 2,9,-1
 167 510 l 2,10,11
 167 537 167 537 204 537 c 2,0,-1
204 832 m 2,12,-1
 867 832 l 2,13,14
 904 832 904 832 904 805 c 2,15,-1
 904 753 l 2,16,17
 904 726 904 726 867 726 c 2,18,-1
 204 726 l 2,19,20
 167 726 167 726 167 753 c 2,21,-1
 167 805 l 2,22,23
 167 832 167 832 204 832 c 2,12,-1
EndSplineSet
Validated: 1
EndChar

StartChar: greater
Encoding: 62 62 33
Width: 1024
Flags: W
LayerCount: 2
Fore
SplineSet
922 656 m 2,0,1
 932 646 932 646 932 634 c 0,2,3
 932 618 932 618 912 598 c 2,4,-1
 294 -4 l 2,5,6
 274 -23 274 -23 257 -23 c 0,7,8
 246 -23 246 -23 236 -13 c 2,9,-1
 188 35 l 2,10,11
 178 45 178 45 178 57 c 0,12,13
 178 73 178 73 199 93 c 2,14,-1
 750 632 l 1,15,-1
 199 1170 l 1,16,17
 178 1189 178 1189 178 1206 c 0,18,19
 178 1217 178 1217 188 1228 c 2,20,-1
 236 1277 l 2,21,22
 246 1287 246 1287 257 1287 c 0,23,24
 274 1287 274 1287 294 1268 c 2,25,-1
 922 656 l 2,0,1
EndSplineSet
Validated: 1
EndChar

StartChar: question
Encoding: 63 63 34
Width: 784
Flags: W
LayerCount: 2
Fore
SplineSet
419 441 m 1,0,1
 419 388 419 388 409 358 c 1,2,3
 398 332 398 332 379 332 c 0,4,5
 362 332 362 332 352 362 c 1,6,7
 341 391 341 391 341 442 c 2,8,-1
 341 749 l 1,9,10
 465 837 465 837 511 909 c 0,11,12
 558 983 558 983 558 1083 c 0,13,14
 558 1192 558 1192 513 1248 c 1,15,16
 468 1302 468 1302 378 1302 c 0,17,18
 299 1302 299 1302 262 1252 c 1,19,20
 225 1200 225 1200 215 1069 c 0,21,22
 213 1046 213 1046 195 1034 c 0,23,24
 177 1021 177 1021 144 1021 c 0,25,26
 110 1021 110 1021 93 1034 c 1,27,28
 78 1047 78 1047 78 1077 c 0,29,30
 78 1210 78 1210 165 1288 c 0,31,32
 252 1365 252 1365 401 1365 c 0,33,34
 555 1365 555 1365 644 1290 c 1,35,36
 731 1215 731 1215 731 1084 c 0,37,38
 731 920 731 920 564 816 c 0,39,40
 546 805 546 805 521 790 c 0,41,42
 460 751 460 751 444 718 c 1,43,44
 426 687 426 687 423 613 c 1,45,-1
 419 441 l 1,0,1
379 223 m 0,46,47
 486 223 486 223 486 139 c 2,48,-1
 486 59 l 2,49,50
 486 -24 486 -24 379 -24 c 0,51,52
 273 -24 273 -24 273 59 c 2,53,-1
 273 139 l 2,54,55
 273 223 273 223 379 223 c 0,46,47
EndSplineSet
Validated: 1
EndChar

StartChar: at
Encoding: 64 64 35
Width: 1560
Flags: W
LayerCount: 2
Fore
SplineSet
918 458 m 1,0,1
 924 546 924 546 939.5 613 c 128,-1,2
 955 680 955 680 970 759 c 1,3,4
 988 861 988 861 996 889 c 0,5,6
 999 899 999 899 999 909 c 0,7,8
 999 924 999 924 992 935 c 0,9,10
 940 1008 940 1008 870 1033 c 0,11,12
 829 1047 829 1047 792 1047 c 0,13,14
 773 1047 773 1047 754 1043 c 0,15,16
 700 1032 700 1032 673 1014 c 0,17,18
 621 978 621 978 589 916.5 c 128,-1,19
 557 855 557 855 543 791 c 0,20,21
 533 747 533 747 533 709 c 0,22,23
 533 625 533 625 580 566 c 1,24,25
 638 490 638 490 759 485 c 1,26,-1
 767 485 l 2,27,28
 803 485 803 485 845 508 c 0,29,30
 861 517 861 517 869 517 c 0,31,32
 878 517 878 517 878 506 c 0,33,34
 878 498 878 498 872 483 c 0,35,36
 866 467 866 467 793 425 c 0,37,38
 749 399 749 399 687 399 c 0,39,40
 645 399 645 399 594 411 c 1,41,42
 504 430 504 430 453 497 c 128,-1,43
 402 564 402 564 393 654 c 0,44,45
 391 671 391 671 391 688 c 0,46,47
 391 755 391 755 417 828 c 0,48,49
 449 919 449 919 526 997 c 1,50,51
 619 1093 619 1093 768 1110 c 0,52,53
 797 1113 797 1113 826 1113 c 0,54,55
 940 1113 940 1113 1032 1058 c 0,56,57
 1057 1042 1057 1042 1072 1027 c 0,58,59
 1079 1020 1079 1020 1089 1020 c 0,60,61
 1100 1020 1100 1020 1115 1028 c 0,62,63
 1145 1045 1145 1045 1160 1045 c 0,64,65
 1165 1045 1165 1045 1168 1043 c 0,66,67
 1179 1034 1179 1034 1179 1026 c 2,68,-1
 1179 1024 l 1,69,70
 1175 1005 1175 1005 1134 908 c 128,-1,71
 1093 811 1093 811 1078 764 c 0,72,73
 1041 646 1041 646 1034 570.5 c 128,-1,74
 1027 495 1027 495 1027 464 c 0,75,76
 1027 354 1027 354 1121 354 c 0,77,78
 1190 354 1190 354 1259 416 c 1,79,80
 1325 478 1325 478 1370 592 c 1,81,82
 1414 708 1414 708 1414 851 c 0,83,84
 1414 1104 1414 1104 1257 1227 c 1,85,86
 1100 1348 1100 1348 875 1348 c 0,87,88
 707 1348 707 1348 544 1264 c 1,89,90
 379 1181 379 1181 278 1009 c 1,91,92
 176 838 176 838 176 620 c 0,93,94
 176 447 176 447 244 311 c 1,95,96
 311 172 311 172 443 95 c 1,97,98
 573 18 573 18 756 18 c 0,99,100
 909 18 909 18 1047 72 c 0,101,102
 1170 121 1170 121 1268 202 c 0,103,104
 1271 204 1271 204 1274 204 c 0,105,106
 1278 204 1278 204 1284 199 c 0,107,108
 1289 194 1289 194 1289 186 c 0,109,110
 1289 180 1289 180 1286 172 c 1,111,112
 1277 155 1277 155 1267 146 c 0,113,114
 1158 44 1158 44 1018.5 0.5 c 128,-1,115
 879 -43 879 -43 723 -43 c 0,116,117
 426 -43 426 -43 237 143 c 0,118,119
 47 330 47 330 47 621 c 0,120,121
 47 949 47 949 285 1176 c 1,122,123
 523 1401 523 1401 868 1401 c 0,124,125
 1143 1401 1143 1401 1326 1252 c 1,126,127
 1507 1102 1507 1102 1507 853 c 0,128,129
 1507 637 1507 637 1373 465 c 1,130,131
 1240 289 1240 289 1078 289 c 0,132,133
 1012 289 1012 289 963 340 c 0,134,135
 918 386 918 386 918 446 c 2,136,-1
 918 458 l 1,0,1
EndSplineSet
Validated: 1
EndChar

StartChar: A
Encoding: 65 65 36
Width: 1593
Flags: W
LayerCount: 2
Fore
SplineSet
838 1427 m 1,0,1
 888 1309 888 1309 961.5 1138 c 128,-1,2
 1035 967 1035 967 1113.5 786 c 128,-1,3
 1192 605 1192 605 1265.5 434 c 128,-1,4
 1339 263 1339 263 1390 146 c 1,5,6
 1405 109 1405 109 1449 79 c 0,7,8
 1472 64 1472 64 1494.5 54 c 128,-1,9
 1517 44 1517 44 1531 35 c 0,10,11
 1541 28 1541 28 1544 21 c 0,12,13
 1546 17 1546 17 1546 13 c 0,14,15
 1546 10 1546 10 1544 6 c 0,16,17
 1541 0 1541 0 1532 0 c 2,18,-1
 1194 0 l 2,19,20
 1185 0 1185 0 1176 6 c 0,21,22
 1166 13 1166 13 1164 21 c 1,23,24
 1162 24 1162 24 1162 27 c 0,25,26
 1162 36 1162 36 1174 46 c 1,27,28
 1183 55 1183 55 1196 65 c 128,-1,29
 1209 75 1209 75 1215 92 c 0,30,31
 1218 100 1218 100 1218 110 c 0,32,33
 1218 127 1218 127 1210 147 c 2,34,-1
 1062 489 l 1,35,-1
 479 489 l 1,36,37
 443 403 443 403 407.5 317.5 c 128,-1,38
 372 232 372 232 336 147 c 0,39,40
 327 127 327 127 326 111 c 0,41,42
 325 104 325 104 325 97 c 0,43,44
 325 87 325 87 328 78 c 0,45,46
 331 65 331 65 338 56.5 c 128,-1,47
 345 48 345 48 348 39 c 1,48,49
 349 31 349 31 349 28 c 256,50,51
 349 25 349 25 347 21 c 0,52,53
 340 0 340 0 325 0 c 2,54,-1
 67 0 l 2,55,56
 57 0 57 0 53 6 c 0,57,58
 53 7 53 7 51 11 c 0,59,60
 51 13 51 13 53 21 c 1,61,62
 59 34 59 34 87 47 c 0,63,64
 102 54 102 54 119.5 62.5 c 128,-1,65
 137 71 137 71 155 83 c 0,66,67
 192 109 192 109 209 146 c 2,68,-1
 776 1427 l 1,69,-1
 838 1427 l 1,0,1
1027 570 m 1,70,-1
 766 1179 l 1,71,72
 702 1026 702 1026 638.5 874 c 128,-1,73
 575 722 575 722 512 570 c 1,74,-1
 1027 570 l 1,70,-1
EndSplineSet
Validated: 1
EndChar

StartChar: B
Encoding: 66 66 37
Width: 1240
Flags: W
LayerCount: 2
Fore
SplineSet
704 1404 m 2,0,1
 802 1404 802 1404 908.5 1369.5 c 128,-1,2
 1015 1335 1015 1335 1072 1235 c 0,3,4
 1118 1155 1118 1155 1118 1041 c 1,5,6
 1116 933 1116 933 1056 849 c 1,7,8
 1013 786 1013 786 923 745 c 1,9,10
 1065 699 1065 699 1131 586 c 1,11,12
 1181 497 1181 497 1181 372 c 1,13,14
 1179 253 1179 253 1113 160 c 0,15,16
 1056 79 1056 79 952 39.5 c 128,-1,17
 848 0 848 0 761 0 c 2,18,-1
 134 0 l 2,19,20
 113 0 113 0 113 21 c 0,21,22
 113 46 113 46 163 64 c 128,-1,23
 213 82 213 82 213 146 c 2,24,-1
 213 1258 l 2,25,26
 213 1321 213 1321 163 1339 c 128,-1,27
 113 1357 113 1357 113 1383 c 0,28,29
 113 1404 113 1404 134 1404 c 2,30,-1
 704 1404 l 2,0,1
393 687 m 1,31,-1
 393 73 l 1,32,-1
 619 73 l 2,33,34
 692 73 692 73 766.5 94.5 c 128,-1,35
 841 116 841 116 895 169 c 0,36,37
 978 250 978 250 978 383 c 0,38,39
 978 511 978 511 891 597 c 1,40,41
 797 687 797 687 640 687 c 2,42,-1
 393 687 l 1,31,-1
393 774 m 1,43,-1
 669 774 l 1,44,45
 787 787 787 787 859 856 c 0,46,47
 934 929 934 929 934 1050 c 0,48,49
 934 1168 934 1168 855 1244 c 0,50,51
 770 1325 770 1325 629 1325 c 2,52,-1
 393 1325 l 1,53,-1
 393 774 l 1,43,-1
EndSplineSet
Validated: 1
EndChar

StartChar: C
Encoding: 67 67 38
Width: 1405
Flags: W
LayerCount: 2
Fore
SplineSet
848 -37 m 4,0,1
 541 -37 541 -37 304 159 c 132,-1,2
 67 355 67 355 67 701 c 4,3,4
 67 1038 67 1038 297.5 1241.5 c 132,-1,5
 528 1445 528 1445 848 1445 c 4,6,7
 963 1445 963 1445 1092.5 1419.5 c 132,-1,8
 1222 1394 1222 1394 1339 1319 c 5,9,-1
 1315 1109 l 5,10,11
 1311 1091 1311 1091 1295 1091 c 6,12,-1
 1292 1091 l 5,13,14
 1280 1092 1280 1092 1266 1119 c 5,15,16
 1208 1244 1208 1244 1092 1303 c 5,17,18
 984 1356 984 1356 862 1356 c 6,19,-1
 841 1356 l 5,20,21
 571 1344 571 1344 419 1140 c 4,22,23
 282 957 282 957 282 735 c 4,24,25
 282 710 282 710 284 685 c 4,26,27
 298 455 298 455 446 266 c 132,-1,28
 594 77 594 77 848 65 c 4,29,30
 872 64 872 64 894 64 c 4,31,32
 1022 64 1022 64 1105 103 c 4,33,34
 1201 149 1201 149 1266 288 c 4,35,36
 1279 316 1279 316 1298 316 c 4,37,38
 1302 316 1302 316 1306 315 c 4,39,40
 1322 309 1322 309 1322 292 c 4,41,42
 1322 284 1322 284 1318 274 c 6,43,-1
 1231 31 l 5,44,45
 1135 -9 1135 -9 1036 -23 c 132,-1,46
 937 -37 937 -37 848 -37 c 4,0,1
EndSplineSet
Validated: 1
EndChar

StartChar: D
Encoding: 68 68 39
Width: 1585
Flags: W
LayerCount: 2
Fore
SplineSet
1500 791 m 0,0,1
 1502 758 1502 758 1502 727 c 0,2,3
 1502 561 1502 561 1441 429 c 0,4,5
 1367 271 1367 271 1235 169 c 0,6,7
 1011 -3 1011 -3 689 -7 c 1,8,-1
 609 -7 l 2,9,10
 551 -7 551 -7 500 -6 c 1,11,-1
 383 -6 l 2,12,13
 300 -6 300 -6 257 -3 c 1,14,-1
 233 -3 l 2,15,16
 193 -3 193 -3 129 -9 c 1,17,18
 108 -9 108 -9 108 13 c 0,19,20
 108 38 108 38 158 56 c 128,-1,21
 208 74 208 74 208 139 c 2,22,-1
 208 1262 l 2,23,24
 208 1326 208 1326 158 1343.5 c 128,-1,25
 108 1361 108 1361 108 1387 c 0,26,27
 108 1408 108 1408 129 1408 c 0,28,29
 171 1407 171 1407 214 1407 c 0,30,31
 256 1407 256 1407 300 1408 c 0,32,33
 386 1411 386 1411 468 1413 c 1,34,-1
 527 1413 l 2,35,36
 680 1413 680 1413 835 1405 c 1,37,38
 1018 1394 1018 1394 1165 1331 c 1,39,40
 1303 1270 1303 1270 1394 1143.5 c 128,-1,41
 1485 1017 1485 1017 1500 791 c 0,0,1
399 1313 m 1,42,-1
 399 100 l 1,43,44
 523 77 523 77 637 77 c 0,45,46
 681 77 681 77 723 80 c 0,47,48
 876 92 876 92 994 154 c 0,49,50
 1135 228 1135 228 1216 380 c 0,51,52
 1290 520 1290 520 1290 736 c 2,53,-1
 1290 769 l 1,54,55
 1286 931 1286 931 1232.5 1040.5 c 128,-1,56
 1179 1150 1179 1150 1091 1216 c 0,57,58
 962 1312 962 1312 778 1329 c 0,59,60
 715 1334 715 1334 651 1334 c 0,61,62
 528 1334 528 1334 399 1313 c 1,42,-1
EndSplineSet
Validated: 1
EndChar

StartChar: E
Encoding: 69 69 40
Width: 1251
Flags: W
LayerCount: 2
Fore
SplineSet
436 94 m 1,0,-1
 863 94 l 2,1,2
 956 94 956 94 1020.5 165.5 c 128,-1,3
 1085 237 1085 237 1118 277 c 0,4,5
 1136 299 1136 299 1146 299 c 0,6,7
 1167 299 1167 299 1167 278 c 0,8,9
 1167 265 1167 265 1165 257 c 2,10,-1
 1092 0 l 1,11,-1
 173 0 l 2,12,13
 155 0 155 0 155 21 c 0,14,15
 155 46 155 46 205 63.5 c 128,-1,16
 255 81 255 81 255 146 c 2,17,-1
 255 1257 l 2,18,19
 255 1322 255 1322 205 1339.5 c 128,-1,20
 155 1357 155 1357 155 1383 c 0,21,22
 155 1404 155 1404 176 1404 c 2,23,-1
 1104 1404 l 1,24,-1
 1104 1147 l 2,25,26
 1104 1126 1104 1126 1083 1126 c 0,27,28
 1073 1126 1073 1126 1046 1166 c 1,29,30
 996 1235 996 1235 959.5 1273 c 128,-1,31
 923 1311 923 1311 863 1311 c 2,32,-1
 436 1311 l 1,33,-1
 436 768 l 1,34,-1
 665 768 l 2,35,36
 729 768 729 768 749 819.5 c 128,-1,37
 769 871 769 871 795 871 c 0,38,39
 815 871 815 871 815 850 c 2,40,-1
 815 596 l 2,41,42
 815 575 815 575 795 575 c 0,43,44
 769 575 769 575 746 626 c 128,-1,45
 723 677 723 677 659 677 c 2,46,-1
 436 677 l 1,47,-1
 436 94 l 1,0,-1
EndSplineSet
Validated: 1
EndChar

StartChar: F
Encoding: 70 70 41
Width: 1139
Flags: W
LayerCount: 2
Fore
SplineSet
174 0 m 2,0,1
 155 0 155 0 155 21 c 0,2,3
 155 33 155 33 176 46 c 0,4,5
 191 56 191 56 211.5 69 c 128,-1,6
 232 82 232 82 245 104 c 1,7,8
 255 124 255 124 255 146 c 2,9,-1
 255 1257 l 2,10,11
 255 1322 255 1322 205 1339.5 c 128,-1,12
 155 1357 155 1357 155 1383 c 0,13,14
 155 1404 155 1404 176 1404 c 2,15,-1
 1104 1404 l 1,16,-1
 1104 1147 l 2,17,18
 1104 1126 1104 1126 1083 1126 c 0,19,20
 1073 1126 1073 1126 1046 1166 c 1,21,22
 996 1235 996 1235 959.5 1273 c 128,-1,23
 923 1311 923 1311 863 1311 c 2,24,-1
 436 1311 l 1,25,-1
 436 768 l 1,26,-1
 665 768 l 2,27,28
 707 768 707 768 739 805 c 0,29,30
 757 827 757 827 768 849 c 128,-1,31
 779 871 779 871 795 871 c 0,32,33
 815 871 815 871 815 850 c 2,34,-1
 815 596 l 2,35,36
 815 575 815 575 795 575 c 0,37,38
 777 575 777 575 764.5 600.5 c 128,-1,39
 752 626 752 626 731 650 c 1,40,41
 703 678 703 678 665 678 c 2,42,-1
 436 678 l 1,43,-1
 436 146 l 2,44,45
 436 118 436 118 449 97 c 0,46,47
 461 79 461 79 479 67.5 c 128,-1,48
 497 56 497 56 512 47 c 0,49,50
 535 33 535 33 535 21 c 0,51,52
 535 15 535 15 534 12 c 0,53,54
 527 0 527 0 515 0 c 2,55,-1
 174 0 l 2,0,1
EndSplineSet
Validated: 1
EndChar

StartChar: G
Encoding: 71 71 42
Width: 1563
Flags: W
LayerCount: 2
Fore
SplineSet
848 -37 m 0,0,1
 541 -37 541 -37 304 159 c 128,-1,2
 67 355 67 355 67 701 c 0,3,4
 67 1038 67 1038 297.5 1241.5 c 128,-1,5
 528 1445 528 1445 848 1445 c 0,6,7
 963 1445 963 1445 1092.5 1419.5 c 128,-1,8
 1222 1394 1222 1394 1339 1319 c 1,9,-1
 1315 1109 l 1,10,11
 1311 1091 1311 1091 1295 1091 c 2,12,-1
 1292 1091 l 1,13,14
 1280 1092 1280 1092 1266 1119 c 1,15,16
 1201 1258 1201 1258 1104.5 1304 c 128,-1,17
 1008 1350 1008 1350 848 1350 c 0,18,19
 625 1350 625 1350 451 1195 c 128,-1,20
 277 1040 277 1040 277 701 c 0,21,22
 277 483 277 483 439.5 280 c 128,-1,23
 602 77 602 77 848 65 c 0,24,25
 872 64 872 64 894 64 c 0,26,27
 1008 64 1008 64 1086 94 c 0,28,29
 1179 130 1179 130 1242 240 c 1,30,-1
 1242 428 l 1,31,32
 1240 459 1240 459 1210 476 c 1,33,34
 1183 490 1183 490 1131 511.5 c 128,-1,35
 1079 533 1079 533 1079 554 c 256,36,37
 1079 575 1079 575 1100 575 c 2,38,-1
 1501 575 l 2,39,40
 1522 575 1522 575 1522 554 c 0,41,42
 1522 528 1522 528 1472 510 c 128,-1,43
 1422 492 1422 492 1422 428 c 2,44,-1
 1422 39 l 1,45,46
 1268 32 1268 32 1125 -4 c 0,47,48
 1053 -23 1053 -23 983 -30 c 128,-1,49
 913 -37 913 -37 848 -37 c 0,0,1
EndSplineSet
Validated: 1
EndChar

StartChar: H
Encoding: 72 72 43
Width: 1638
Flags: W
LayerCount: 2
Fore
SplineSet
435 1257 m 2,0,-1
 435 789 l 1,1,-1
 1280 789 l 1,2,-1
 1280 1257 l 2,3,4
 1280 1321 1280 1321 1230 1339 c 128,-1,5
 1180 1357 1180 1357 1180 1383 c 0,6,7
 1180 1404 1180 1404 1201 1404 c 2,8,-1
 1540 1404 l 2,9,10
 1561 1404 1561 1404 1561 1383 c 0,11,12
 1561 1357 1561 1357 1510.5 1339 c 128,-1,13
 1460 1321 1460 1321 1460 1257 c 2,14,-1
 1460 146 l 2,15,16
 1460 81 1460 81 1510.5 63.5 c 128,-1,17
 1561 46 1561 46 1561 21 c 0,18,19
 1561 0 1561 0 1540 0 c 2,20,-1
 1201 0 l 2,21,22
 1180 0 1180 0 1180 21 c 0,23,24
 1180 46 1180 46 1230 63.5 c 128,-1,25
 1280 81 1280 81 1280 146 c 2,26,-1
 1280 697 l 1,27,-1
 435 697 l 1,28,-1
 435 146 l 2,29,30
 435 81 435 81 485 63.5 c 128,-1,31
 535 46 535 46 535 21 c 0,32,33
 535 0 535 0 515 0 c 2,34,-1
 176 0 l 2,35,36
 155 0 155 0 155 21 c 0,37,38
 155 46 155 46 205 63.5 c 128,-1,39
 255 81 255 81 255 146 c 2,40,-1
 255 1257 l 2,41,42
 255 1321 255 1321 205 1339 c 128,-1,43
 155 1357 155 1357 155 1383 c 0,44,45
 155 1404 155 1404 176 1404 c 2,46,-1
 515 1404 l 2,47,48
 535 1404 535 1404 535 1383 c 0,49,50
 535 1357 535 1357 485 1339 c 128,-1,51
 435 1321 435 1321 435 1257 c 2,0,-1
EndSplineSet
Validated: 1
EndChar

StartChar: I
Encoding: 73 73 44
Width: 690
Flags: W
LayerCount: 2
Fore
SplineSet
435 1257 m 2,0,-1
 435 147 l 2,1,2
 435 81 435 81 485 63.5 c 128,-1,3
 535 46 535 46 535 21 c 0,4,5
 535 0 535 0 514 0 c 2,6,-1
 175 0 l 2,7,8
 155 0 155 0 155 21 c 0,9,10
 155 46 155 46 205 63.5 c 128,-1,11
 255 81 255 81 255 146 c 2,12,-1
 255 1257 l 2,13,14
 255 1322 255 1322 205 1339.5 c 128,-1,15
 155 1357 155 1357 155 1383 c 0,16,17
 155 1404 155 1404 176 1404 c 2,18,-1
 514 1404 l 2,19,20
 535 1404 535 1404 535 1383 c 0,21,22
 535 1357 535 1357 485 1339.5 c 128,-1,23
 435 1322 435 1322 435 1257 c 2,0,-1
EndSplineSet
Validated: 1
EndChar

StartChar: J
Encoding: 74 74 45
Width: 682
Flags: W
LayerCount: 2
Fore
SplineSet
430 180 m 2,0,1
 430 -17 430 -17 403.5 -113 c 128,-1,2
 377 -209 377 -209 312 -277 c 1,3,4
 222 -369 222 -369 110 -399 c 1,5,-1
 110 -349 l 1,6,7
 149 -325 149 -325 183 -287.5 c 128,-1,8
 217 -250 217 -250 236 -189 c 0,9,10
 248 -148 248 -148 248.5 -74 c 128,-1,11
 249 0 249 0 249 174 c 2,12,-1
 249 1258 l 2,13,14
 249 1322 249 1322 199 1340 c 128,-1,15
 149 1358 149 1358 149 1384 c 0,16,17
 149 1404 149 1404 170 1404 c 2,18,-1
 509 1404 l 2,19,20
 530 1404 530 1404 530 1384 c 0,21,22
 530 1358 530 1358 480 1340 c 128,-1,23
 430 1322 430 1322 430 1258 c 2,24,-1
 430 180 l 2,0,1
EndSplineSet
Validated: 1
EndChar

StartChar: K
Encoding: 75 75 46
Width: 1487
Flags: W
LayerCount: 2
Fore
SplineSet
435 746 m 1,0,-1
 958 1241 l 2,1,2
 1036 1314 1036 1314 1090 1367 c 0,3,4
 1126 1403 1126 1403 1162 1403 c 0,5,6
 1180 1403 1180 1403 1198 1394 c 2,7,-1
 1304 1342 l 1,8,9
 1321 1332 1321 1332 1321 1318 c 0,10,11
 1321 1312 1321 1312 1318 1305 c 2,12,-1
 1266 1159 l 1,13,-1
 1197 1188 l 2,14,15
 1158 1204 1158 1204 1125 1204 c 0,16,17
 1073 1204 1073 1204 1034 1165 c 2,18,-1
 631 772 l 1,19,-1
 1383 78 l 1,20,21
 1404 57 1404 57 1427.5 46.5 c 128,-1,22
 1451 36 1451 36 1451 21 c 0,23,24
 1451 0 1451 0 1431 0 c 2,25,-1
 1092 0 l 2,26,27
 1071 0 1071 0 1071 21 c 0,28,29
 1071 29 1071 29 1082 39 c 0,30,31
 1100 54 1100 54 1102 66 c 1,32,-1
 1102 67 l 2,33,34
 1102 80 1102 80 1066 111 c 1,35,-1
 435 693 l 1,36,-1
 435 146 l 2,37,38
 435 81 435 81 485 63.5 c 128,-1,39
 535 46 535 46 535 21 c 0,40,41
 535 0 535 0 515 0 c 2,42,-1
 176 0 l 2,43,44
 155 0 155 0 155 21 c 0,45,46
 155 46 155 46 205 63.5 c 128,-1,47
 255 81 255 81 255 146 c 2,48,-1
 255 1257 l 2,49,50
 255 1321 255 1321 205 1339 c 128,-1,51
 155 1357 155 1357 155 1383 c 0,52,53
 155 1404 155 1404 176 1404 c 2,54,-1
 515 1404 l 2,55,56
 535 1404 535 1404 535 1383 c 0,57,58
 535 1357 535 1357 485 1339 c 128,-1,59
 435 1321 435 1321 435 1257 c 2,60,-1
 435 746 l 1,0,-1
EndSplineSet
Validated: 1
EndChar

StartChar: L
Encoding: 76 76 47
Width: 1251
Flags: W
LayerCount: 2
Fore
SplineSet
436 94 m 1,0,-1
 863 94 l 2,1,2
 956 94 956 94 1020.5 165.5 c 128,-1,3
 1085 237 1085 237 1118 277 c 0,4,5
 1136 299 1136 299 1146 299 c 0,6,7
 1167 299 1167 299 1167 278 c 0,8,9
 1167 265 1167 265 1165 257 c 2,10,-1
 1092 0 l 1,11,-1
 176 0 l 2,12,13
 155 0 155 0 155 21 c 0,14,15
 155 46 155 46 205 63.5 c 128,-1,16
 255 81 255 81 255 146 c 2,17,-1
 255 1257 l 2,18,19
 255 1321 255 1321 205 1339 c 128,-1,20
 155 1357 155 1357 155 1383 c 0,21,22
 155 1404 155 1404 176 1404 c 2,23,-1
 515 1404 l 2,24,25
 535 1404 535 1404 535 1383 c 0,26,27
 535 1357 535 1357 485 1339 c 128,-1,28
 435 1321 435 1321 435 1257 c 2,29,-1
 436 94 l 1,0,-1
EndSplineSet
Validated: 1
EndChar

StartChar: M
Encoding: 77 77 48
Width: 1908
Flags: W
LayerCount: 2
Fore
SplineSet
1697 1257 m 2,0,-1
 1697 146 l 2,1,2
 1697 81 1697 81 1747.5 63.5 c 128,-1,3
 1798 46 1798 46 1798 21 c 0,4,5
 1798 0 1798 0 1777 0 c 2,6,-1
 1438 0 l 2,7,8
 1417 0 1417 0 1417 21 c 0,9,10
 1417 46 1417 46 1467 63.5 c 128,-1,11
 1517 81 1517 81 1517 146 c 2,12,-1
 1517 1217 l 1,13,-1
 940 -30 l 1,14,-1
 901 -30 l 1,15,-1
 330 1170 l 1,16,-1
 330 146 l 2,17,18
 330 81 330 81 380 63.5 c 128,-1,19
 430 46 430 46 430 21 c 0,20,21
 430 0 430 0 409 0 c 2,22,-1
 155 0 l 2,23,24
 134 0 134 0 134 21 c 0,25,26
 134 46 134 46 184 63.5 c 128,-1,27
 234 81 234 81 234 146 c 2,28,-1
 234 1257 l 2,29,30
 234 1321 234 1321 184 1339 c 128,-1,31
 134 1357 134 1357 134 1383 c 0,32,33
 134 1404 134 1404 155 1404 c 2,34,-1
 421 1404 l 1,35,-1
 968 282 l 1,36,-1
 1498 1404 l 1,37,-1
 1777 1404 l 2,38,39
 1798 1404 1798 1404 1798 1383 c 0,40,41
 1798 1357 1798 1357 1747.5 1339 c 128,-1,42
 1697 1321 1697 1321 1697 1257 c 2,0,-1
EndSplineSet
Validated: 1
EndChar

StartChar: N
Encoding: 78 78 49
Width: 1644
Flags: W
LayerCount: 2
Fore
SplineSet
1369 203 m 1,0,-1
 1369 1257 l 2,1,2
 1369 1321 1369 1321 1319.5 1339 c 128,-1,3
 1270 1357 1270 1357 1270 1383 c 0,4,5
 1270 1404 1270 1404 1290 1404 c 2,6,-1
 1545 1404 l 2,7,8
 1566 1404 1566 1404 1566 1383 c 0,9,10
 1566 1357 1566 1357 1516 1339 c 128,-1,11
 1466 1321 1466 1321 1466 1257 c 2,12,-1
 1465 -43 l 1,13,-1
 1288 0 l 1,14,-1
 330 1189 l 1,15,-1
 330 146 l 2,16,17
 330 81 330 81 380 63.5 c 128,-1,18
 430 46 430 46 430 21 c 0,19,20
 430 0 430 0 409 0 c 2,21,-1
 155 0 l 2,22,23
 134 0 134 0 134 21 c 0,24,25
 134 46 134 46 184 63.5 c 128,-1,26
 234 81 234 81 234 146 c 2,27,-1
 234 1257 l 2,28,29
 234 1321 234 1321 184 1339 c 128,-1,30
 134 1357 134 1357 134 1383 c 0,31,32
 134 1404 134 1404 155 1404 c 2,33,-1
 412 1404 l 1,34,-1
 1369 203 l 1,0,-1
EndSplineSet
Validated: 1
EndChar

StartChar: O
Encoding: 79 79 50
Width: 1610
Flags: W
LayerCount: 2
Fore
SplineSet
808 1358 m 0,0,1
 501 1357 501 1357 379 1164.5 c 128,-1,2
 257 972 257 972 257 702 c 0,3,4
 257 431 257 431 410 239.5 c 128,-1,5
 563 48 563 48 808 46 c 1,6,-1
 813 46 l 2,7,8
 1052 46 1052 46 1206 250 c 0,9,10
 1358 452 1358 452 1358 696 c 2,11,-1
 1358 702 l 1,12,13
 1356 951 1356 951 1228 1154.5 c 128,-1,14
 1100 1358 1100 1358 808 1358 c 0,0,1
808 1446 m 1,15,-1
 818 1446 l 2,16,17
 1141 1446 1141 1446 1363 1248 c 0,18,19
 1570 1063 1570 1063 1570 760 c 0,20,21
 1570 733 1570 733 1568 705 c 0,22,23
 1547 361 1547 361 1329.5 171.5 c 128,-1,24
 1112 -18 1112 -18 806 -35 c 0,25,26
 783 -36 783 -36 760 -36 c 0,27,28
 482 -36 482 -36 268 156 c 1,29,30
 48 352 48 352 48 669 c 0,31,32
 48 687 48 687 49 705 c 0,33,34
 61 1046 61 1046 269.5 1244 c 128,-1,35
 478 1442 478 1442 808 1446 c 1,15,-1
EndSplineSet
Validated: 1
EndChar

StartChar: P
Encoding: 80 80 51
Width: 1237
Flags: W
LayerCount: 2
Fore
SplineSet
414 146 m 2,0,1
 414 81 414 81 464 63.5 c 128,-1,2
 514 46 514 46 514 21 c 0,3,4
 514 0 514 0 494 0 c 2,5,-1
 155 0 l 2,6,7
 134 0 134 0 134 21 c 0,8,9
 134 46 134 46 183 63.5 c 128,-1,10
 232 81 232 81 232 146 c 2,11,-1
 234 1257 l 2,12,13
 234 1321 234 1321 184 1339 c 128,-1,14
 134 1357 134 1357 134 1383 c 0,15,16
 134 1404 134 1404 155 1404 c 2,17,-1
 745 1404 l 2,18,19
 848 1404 848 1404 960 1367.5 c 128,-1,20
 1072 1331 1072 1331 1133 1226 c 1,21,22
 1181 1141 1181 1141 1181 1022 c 1,23,24
 1179 909 1179 909 1116 819 c 0,25,26
 1062 742 1062 742 962.5 704.5 c 128,-1,27
 863 667 863 667 781 667 c 2,28,-1
 414 667 l 1,29,-1
 414 146 l 2,0,1
414 1321 m 1,30,-1
 414 737 l 1,31,-1
 646 737 l 2,32,33
 715 737 715 737 786 757 c 128,-1,34
 857 777 857 777 908 828 c 1,35,36
 988 905 988 905 988 1032 c 0,37,38
 988 1154 988 1154 905 1236 c 1,39,40
 816 1321 816 1321 666 1321 c 2,41,-1
 414 1321 l 1,30,-1
EndSplineSet
Validated: 1
EndChar

StartChar: Q
Encoding: 81 81 52
Width: 1610
Flags: W
LayerCount: 2
Fore
SplineSet
808 1358 m 0,0,1
 501 1357 501 1357 379 1164.5 c 128,-1,2
 257 972 257 972 257 702 c 0,3,4
 257 431 257 431 410 239.5 c 128,-1,5
 563 48 563 48 808 46 c 1,6,-1
 813 46 l 2,7,8
 1052 46 1052 46 1206 250 c 0,9,10
 1358 452 1358 452 1358 696 c 2,11,-1
 1358 702 l 1,12,13
 1356 951 1356 951 1228 1154.5 c 128,-1,14
 1100 1358 1100 1358 808 1358 c 0,0,1
690 -33 m 1,15,16
 420 -6 420 -6 229 195 c 1,17,18
 48 384 48 384 48 669 c 0,19,20
 48 687 48 687 49 705 c 0,21,22
 61 1046 61 1046 269.5 1244 c 128,-1,23
 478 1442 478 1442 808 1446 c 1,24,-1
 818 1446 l 2,25,26
 1141 1446 1141 1446 1363 1248 c 0,27,28
 1570 1063 1570 1063 1570 760 c 0,29,30
 1570 733 1570 733 1568 705 c 0,31,32
 1548 376 1548 376 1347 187.5 c 128,-1,33
 1146 -1 1146 -1 859 -31 c 1,34,35
 927 -56 927 -56 984 -83 c 0,36,37
 1202 -184 1202 -184 1304 -184 c 0,38,39
 1338 -184 1338 -184 1404 -165 c 1,40,-1
 1404 -215 l 1,41,42
 1307 -271 1307 -271 1262 -320 c 1,43,44
 1193 -311 1193 -311 1128 -292 c 0,45,46
 1062 -272 1062 -272 946 -224 c 0,47,48
 742 -141 742 -141 675 -141 c 0,49,50
 658 -141 658 -141 633 -151 c 0,51,52
 605 -162 605 -162 525 -215 c 1,53,-1
 525 -152 l 1,54,55
 631 -70 631 -70 690 -33 c 1,15,16
EndSplineSet
Validated: 1
EndChar

StartChar: R
Encoding: 82 82 53
Width: 1368
Flags: W
LayerCount: 2
Fore
SplineSet
1263 72 m 1,0,1
 1291 49 1291 49 1336 45 c 0,2,3
 1364 42 1364 42 1364 24 c 2,4,-1
 1364 21 l 1,5,6
 1361 0 1361 0 1343 0 c 2,7,-1
 1076 0 l 2,8,9
 1067 0 1067 0 1008 78 c 128,-1,10
 949 156 949 156 871 264 c 128,-1,11
 793 372 793 372 711 485 c 128,-1,12
 629 598 629 598 574 667 c 1,13,-1
 414 667 l 1,14,-1
 414 146 l 2,15,16
 414 81 414 81 464 63.5 c 128,-1,17
 514 46 514 46 514 21 c 0,18,19
 514 0 514 0 494 0 c 2,20,-1
 155 0 l 2,21,22
 134 0 134 0 134 21 c 0,23,24
 134 46 134 46 184 63.5 c 128,-1,25
 234 81 234 81 234 146 c 2,26,-1
 234 1257 l 2,27,28
 234 1321 234 1321 184 1339 c 128,-1,29
 134 1357 134 1357 134 1383 c 0,30,31
 134 1404 134 1404 155 1404 c 2,32,-1
 745 1404 l 2,33,34
 848 1404 848 1404 960 1367.5 c 128,-1,35
 1072 1331 1072 1331 1133 1226 c 1,36,37
 1181 1141 1181 1141 1181 1022 c 1,38,39
 1179 909 1179 909 1116 819 c 0,40,41
 1066 748 1066 748 977 710.5 c 128,-1,42
 888 673 888 673 808 668 c 1,43,-1
 1263 72 l 1,0,1
414 1321 m 1,44,-1
 414 737 l 1,45,-1
 646 737 l 2,46,47
 715 737 715 737 786 757 c 128,-1,48
 857 777 857 777 908 828 c 1,49,50
 988 905 988 905 988 1032 c 0,51,52
 988 1154 988 1154 905 1236 c 1,53,54
 816 1321 816 1321 666 1321 c 2,55,-1
 414 1321 l 1,44,-1
EndSplineSet
Validated: 1
EndChar

StartChar: S
Encoding: 83 83 54
Width: 1075
Flags: W
LayerCount: 2
Fore
SplineSet
535 55 m 0,0,1
 616 60 616 60 690.5 97.5 c 128,-1,2
 765 135 765 135 810 207 c 0,3,4
 857 282 857 282 857 388 c 2,5,-1
 857 399 l 1,6,7
 854 512 854 512 771 572 c 0,8,9
 733 600 733 600 679 616 c 1,10,11
 573 645 573 645 462.5 657 c 128,-1,12
 352 669 352 669 253 717 c 1,13,14
 164 759 164 759 120 840.5 c 128,-1,15
 76 922 76 922 76 1018 c 0,16,17
 76 1206 76 1206 207 1325 c 1,18,19
 341 1449 341 1449 545 1449 c 2,20,-1
 575 1449 l 1,21,22
 798 1439 798 1439 954 1338 c 1,23,-1
 930 1128 l 2,24,25
 928 1110 928 1110 911 1110 c 2,26,-1
 907 1110 l 1,27,28
 894 1111 894 1111 882 1138 c 0,29,30
 839 1228 839 1228 757 1291.5 c 128,-1,31
 675 1355 675 1355 580 1359 c 1,32,-1
 564 1359 l 2,33,34
 472 1359 472 1359 400 1326 c 1,35,36
 353 1302 353 1302 325 1273 c 0,37,38
 299 1245 299 1245 279 1204 c 0,39,40
 263 1171 263 1171 254 1127 c 0,41,42
 247 1095 247 1095 247 1066 c 0,43,44
 247 1027 247 1027 259 994 c 1,45,46
 280 927 280 927 331 891 c 1,47,48
 370 862 370 862 416 851 c 0,49,50
 441 844 441 844 477 837.5 c 128,-1,51
 513 831 513 831 552 825 c 0,52,53
 609 816 609 816 672.5 806.5 c 128,-1,54
 736 797 736 797 796 779 c 1,55,56
 896 747 896 747 945 694 c 1,57,58
 981 653 981 653 1004 604 c 1,59,60
 1031 538 1031 538 1031 459 c 0,61,62
 1031 245 1031 245 857 103 c 0,63,64
 767 29 767 29 658 -6 c 0,65,66
 570 -34 570 -34 470 -38 c 0,67,68
 448 -39 448 -39 427 -39 c 0,69,70
 288 -39 288 -39 161 0 c 1,71,-1
 66 264 l 2,72,73
 64 269 64 269 64 274 c 0,74,75
 64 284 64 284 71 294 c 0,76,77
 79 307 79 307 92 307 c 1,78,79
 104 304 104 304 117 278 c 0,80,81
 181 139 181 139 278 92 c 0,82,83
 358 53 358 53 481 53 c 0,84,85
 507 53 507 53 535 55 c 0,0,1
EndSplineSet
Validated: 1
EndChar

StartChar: T
Encoding: 84 84 55
Width: 1255
Flags: W
LayerCount: 2
Fore
SplineSet
1215 1147 m 2,0,1
 1215 1126 1215 1126 1194 1126 c 0,2,3
 1185 1126 1185 1126 1156 1166 c 0,4,5
 1105 1235 1105 1235 1068.5 1273 c 128,-1,6
 1032 1311 1032 1311 972 1311 c 2,7,-1
 721 1311 l 1,8,-1
 721 146 l 2,9,10
 721 81 721 81 771 63 c 128,-1,11
 821 45 821 45 821 20 c 0,12,13
 821 0 821 0 801 0 c 2,14,-1
 462 0 l 2,15,16
 441 0 441 0 441 20 c 0,17,18
 441 45 441 45 491 63 c 128,-1,19
 541 81 541 81 541 146 c 2,20,-1
 541 1311 l 1,21,-1
 286 1311 l 2,22,23
 226 1311 226 1311 188.5 1273 c 128,-1,24
 151 1235 151 1235 101 1166 c 0,25,26
 73 1126 73 1126 64 1126 c 0,27,28
 43 1126 43 1126 43 1147 c 2,29,-1
 43 1332 l 2,30,31
 43 1386 43 1386 61.5 1397.5 c 128,-1,32
 80 1409 80 1409 157 1409 c 2,33,-1
 1101 1409 l 2,34,35
 1184 1409 1184 1409 1199.5 1399 c 128,-1,36
 1215 1389 1215 1389 1215 1332 c 2,37,-1
 1215 1147 l 2,0,1
EndSplineSet
Validated: 1
EndChar

StartChar: U
Encoding: 85 85 56
Width: 1554
Flags: W
LayerCount: 2
Fore
SplineSet
234 588 m 2,0,-1
 234 1258 l 2,1,2
 234 1322 234 1322 184 1339.5 c 128,-1,3
 134 1357 134 1357 134 1383 c 0,4,5
 134 1404 134 1404 155 1404 c 2,6,-1
 494 1404 l 2,7,8
 514 1404 514 1404 514 1383 c 0,9,10
 514 1357 514 1357 465 1340.5 c 128,-1,11
 416 1324 416 1324 416 1260 c 2,12,-1
 416 721 l 2,13,14
 416 568 416 568 426 450 c 128,-1,15
 436 332 436 332 478 251 c 0,16,17
 519 170 519 170 604 128 c 128,-1,18
 689 86 689 86 839 86 c 0,19,20
 1103 86 1103 86 1197 294 c 0,21,22
 1264 440 1264 440 1264 721 c 2,23,-1
 1264 1257 l 2,24,25
 1264 1321 1264 1321 1214 1339 c 128,-1,26
 1164 1357 1164 1357 1164 1383 c 0,27,28
 1164 1404 1164 1404 1185 1404 c 2,29,-1
 1440 1404 l 2,30,31
 1460 1404 1460 1404 1460 1383 c 0,32,33
 1460 1357 1460 1357 1410.5 1339 c 128,-1,34
 1361 1321 1361 1321 1361 1257 c 2,35,-1
 1361 588 l 1,36,37
 1360 439 1360 439 1333.5 315.5 c 128,-1,38
 1307 192 1307 192 1236 108 c 1,39,40
 1109 -39 1109 -39 839 -39 c 0,41,42
 668 -39 668 -39 548 -7 c 128,-1,43
 428 25 428 25 356 109 c 0,44,45
 234 250 234 250 234 588 c 2,0,-1
EndSplineSet
Validated: 1
EndChar

StartChar: V
Encoding: 86 86 57
Width: 1479
Flags: W
LayerCount: 2
Fore
SplineSet
392 1263 m 1,0,-1
 816 177 l 1,1,-1
 1270 1107 l 2,2,3
 1283 1133 1283 1133 1283 1154 c 0,4,5
 1283 1172 1283 1172 1274 1186 c 0,6,7
 1255 1216 1255 1216 1215 1264 c 2,8,-1
 1166 1321 l 1,9,-1
 1290 1415 l 2,10,11
 1298 1422 1298 1422 1307 1422 c 0,12,13
 1317 1422 1317 1422 1329 1412 c 1,14,-1
 1411 1328 l 2,15,16
 1437 1301 1437 1301 1437 1262 c 0,17,18
 1437 1240 1437 1240 1429 1215 c 0,19,20
 1405 1144 1405 1144 1358 1048 c 2,21,-1
 868 32 l 1,22,23
 861 15 861 15 854 6 c 1,24,25
 846 0 846 0 838 0 c 2,26,-1
 687 0 l 2,27,28
 677 0 677 0 671 8 c 0,29,30
 668 11 668 11 660.5 31 c 128,-1,31
 653 51 653 51 650 60 c 2,32,-1
 272 1110 l 1,33,34
 232 1216 232 1216 214 1258 c 1,35,36
 196 1295 196 1295 155 1325 c 1,37,38
 131 1340 131 1340 108.5 1349.5 c 128,-1,39
 86 1359 86 1359 72 1369 c 1,40,41
 63 1374 63 1374 60 1383 c 1,42,43
 57 1387 57 1387 57 1392 c 0,44,45
 57 1395 57 1395 59 1398 c 0,46,47
 63 1404 63 1404 71 1404 c 2,48,-1
 410 1404 l 2,49,50
 419 1404 419 1404 428 1398 c 1,51,52
 437 1390 437 1390 440 1383 c 0,53,54
 441 1380 441 1380 441 1378 c 0,55,56
 441 1368 441 1368 430 1358 c 0,57,58
 420 1349 420 1349 407.5 1338.5 c 128,-1,59
 395 1328 395 1328 389 1313 c 0,60,61
 385 1303 385 1303 385 1292 c 0,62,63
 385 1278 385 1278 392 1263 c 1,0,-1
EndSplineSet
Validated: 1
EndChar

StartChar: W
Encoding: 87 87 58
Width: 2048
Flags: W
LayerCount: 2
Fore
SplineSet
350 1263 m 1,0,-1
 774 177 l 1,1,-1
 1018 676 l 1,2,-1
 861 1110 l 2,3,4
 843 1161 843 1161 828.5 1197 c 128,-1,5
 814 1233 814 1233 804 1258 c 1,6,7
 786 1295 786 1295 745 1325 c 1,8,9
 721 1340 721 1340 698.5 1349.5 c 128,-1,10
 676 1359 676 1359 662 1369 c 0,11,12
 654 1374 654 1374 649 1383 c 1,13,14
 648 1388 648 1388 648 1391 c 0,15,16
 648 1395 648 1395 649 1398 c 0,17,18
 652 1404 652 1404 661 1404 c 2,19,-1
 1000 1404 l 2,20,21
 1009 1404 1009 1404 1017 1398 c 0,22,23
 1027 1391 1027 1391 1030 1383 c 0,24,25
 1031 1380 1031 1380 1031 1378 c 0,26,27
 1031 1368 1031 1368 1020 1358 c 0,28,29
 1010 1349 1010 1349 997.5 1338.5 c 128,-1,30
 985 1328 985 1328 979 1313 c 0,31,32
 975 1303 975 1303 975 1292 c 0,33,34
 975 1278 975 1278 982 1263 c 1,35,-1
 1125 897 l 1,36,-1
 1228 1107 l 2,37,38
 1240 1133 1240 1133 1240 1154 c 0,39,40
 1240 1172 1240 1172 1232 1186 c 1,41,42
 1212 1216 1212 1216 1173 1264 c 1,43,-1
 1123 1321 l 1,44,-1
 1248 1415 l 2,45,46
 1256 1422 1256 1422 1265 1422 c 0,47,48
 1275 1422 1275 1422 1287 1412 c 1,49,-1
 1369 1328 l 2,50,51
 1395 1301 1395 1301 1395 1262 c 0,52,53
 1395 1240 1395 1240 1387 1215 c 0,54,55
 1363 1144 1363 1144 1316 1048 c 2,56,-1
 1178 762 l 1,57,-1
 1406 177 l 1,58,-1
 1860 1107 l 2,59,60
 1872 1133 1872 1133 1872 1154 c 0,61,62
 1872 1172 1872 1172 1864 1186 c 1,63,64
 1844 1216 1844 1216 1804 1264 c 2,65,-1
 1755 1321 l 1,66,-1
 1879 1415 l 2,67,68
 1887 1422 1887 1422 1896 1422 c 0,69,70
 1907 1422 1907 1422 1919 1412 c 1,71,-1
 2001 1328 l 2,72,73
 2027 1301 2027 1301 2027 1262 c 0,74,75
 2027 1240 2027 1240 2019 1215 c 0,76,77
 1995 1144 1995 1144 1948 1048 c 2,78,-1
 1458 32 l 1,79,80
 1451 14 1451 14 1443 6 c 0,81,82
 1437 0 1437 0 1427 0 c 2,83,-1
 1277 0 l 2,84,85
 1266 0 1266 0 1261 8 c 1,86,87
 1257 11 1257 11 1250 31 c 128,-1,88
 1243 51 1243 51 1240 60 c 2,89,-1
 1069 535 l 1,90,-1
 826 32 l 1,91,92
 819 14 819 14 811 6 c 0,93,94
 805 0 805 0 795 0 c 2,95,-1
 645 0 l 2,96,97
 634 0 634 0 629 8 c 1,98,99
 625 11 625 11 618 31 c 128,-1,100
 611 51 611 51 608 60 c 2,101,-1
 172 1258 l 1,102,103
 158 1293 158 1293 113 1325 c 1,104,105
 89 1340 89 1340 66.5 1349.5 c 128,-1,106
 44 1359 44 1359 30 1369 c 0,107,108
 22 1374 22 1374 17 1383 c 1,109,110
 16 1388 16 1388 16 1391 c 0,111,112
 16 1395 16 1395 17 1398 c 0,113,114
 20 1404 20 1404 29 1404 c 2,115,-1
 368 1404 l 2,116,117
 377 1404 377 1404 386 1398 c 1,118,119
 395 1390 395 1390 398 1383 c 0,120,121
 399 1380 399 1380 399 1378 c 0,122,123
 399 1368 399 1368 388 1358 c 0,124,125
 378 1349 378 1349 365.5 1338.5 c 128,-1,126
 353 1328 353 1328 347 1313 c 0,127,128
 343 1303 343 1303 343 1292 c 0,129,130
 343 1278 343 1278 350 1263 c 1,0,-1
EndSplineSet
Validated: 1
EndChar

StartChar: X
Encoding: 88 88 59
Width: 1366
Flags: W
LayerCount: 2
Fore
SplineSet
332 78 m 1,0,-1
 341 39 l 1,1,2
 341 27 341 27 331 13.5 c 128,-1,3
 321 0 321 0 307 0 c 2,4,-1
 49 0 l 2,5,6
 37 0 37 0 36 6 c 1,7,-1
 36 11 l 2,8,9
 36 27 36 27 68 41 c 2,10,-1
 120 62 l 1,11,12
 195 94 195 94 233 146 c 2,13,-1
 627 698 l 1,14,-1
 264 1258 l 1,15,16
 225 1316 225 1316 134 1350 c 1,17,18
 109 1358 109 1358 95 1366 c 0,19,20
 71 1380 71 1380 71 1394 c 2,21,-1
 71 1398 l 1,22,23
 72 1404 72 1404 81 1404 c 2,24,-1
 420 1404 l 2,25,26
 437 1404 437 1404 448 1391 c 128,-1,27
 459 1378 459 1378 459 1372 c 256,28,29
 459 1366 459 1366 452 1357.5 c 128,-1,30
 445 1349 445 1349 435 1338.5 c 128,-1,31
 425 1328 425 1328 424 1313 c 1,32,-1
 424 1308 l 2,33,34
 424 1285 424 1285 440 1263 c 1,35,-1
 721 831 l 1,36,-1
 988 1204 l 2,37,38
 1057 1300 1057 1300 1105 1355 c 128,-1,39
 1153 1410 1153 1410 1195 1410 c 0,40,41
 1205 1410 1205 1410 1215 1407 c 2,42,-1
 1314 1376 l 1,43,44
 1331 1369 1331 1369 1331 1359 c 0,45,46
 1331 1348 1331 1348 1329 1341 c 2,47,-1
 1287 1171 l 1,48,-1
 1222 1186 l 2,49,50
 1168 1198 1168 1198 1135 1200 c 1,51,-1
 1132 1200 l 2,52,53
 1100 1200 1100 1200 1068 1153 c 2,54,-1
 779 742 l 1,55,-1
 1166 146 l 2,56,57
 1198 95 1198 95 1296 54 c 0,58,59
 1320 44 1320 44 1334 36 c 0,60,61
 1360 21 1360 21 1360 11 c 0,62,63
 1360 0 1360 0 1349 0 c 2,64,-1
 1010 0 l 2,65,66
 1001 0 1001 0 990 6 c 0,67,68
 971 16 971 16 971 27 c 256,69,70
 971 38 971 38 987.5 58 c 128,-1,71
 1004 78 1004 78 1006 91 c 1,72,-1
 1006 98 l 2,73,74
 1006 118 1006 118 993 141 c 1,75,-1
 685 609 l 1,76,-1
 361 147 l 2,77,78
 332 106 332 106 332 78 c 1,0,-1
EndSplineSet
Validated: 1
EndChar

StartChar: Y
Encoding: 89 89 60
Width: 1366
Flags: W
LayerCount: 2
Fore
SplineSet
589 677 m 2,0,-1
 240 1258 l 1,1,2
 217 1292 217 1292 163 1325 c 1,3,4
 135 1340 135 1340 109.5 1349.5 c 128,-1,5
 84 1359 84 1359 68 1369 c 0,6,7
 57 1375 57 1375 51 1383 c 0,8,9
 47 1389 47 1389 47 1394 c 2,10,-1
 47 1398 l 1,11,12
 48 1404 48 1404 57 1404 c 2,13,-1
 396 1404 l 2,14,15
 406 1404 406 1404 415 1398 c 0,16,17
 426 1391 426 1391 432 1383 c 0,18,19
 435 1378 435 1378 435 1373 c 0,20,21
 435 1366 435 1366 428 1358 c 0,22,23
 421 1349 421 1349 411 1338.5 c 128,-1,24
 401 1328 401 1328 400 1313 c 1,25,-1
 400 1308 l 2,26,27
 400 1286 400 1286 416 1263 c 1,28,-1
 753 729 l 1,29,-1
 1012 1124 l 2,30,31
 1041 1168 1041 1168 1046 1200 c 0,32,33
 1047 1205 1047 1205 1047 1210 c 0,34,35
 1047 1240 1047 1240 1023 1288 c 2,36,-1
 989 1356 l 1,37,-1
 1132 1418 l 2,38,39
 1139 1421 1139 1421 1145 1421 c 0,40,41
 1158 1421 1158 1421 1169 1405 c 1,42,-1
 1229 1304 l 2,43,44
 1240 1285 1240 1285 1240 1266 c 0,45,46
 1240 1232 1240 1232 1206 1197 c 0,47,48
 1153 1141 1153 1141 1093 1054 c 2,49,-1
 827 666 l 2,50,51
 809 639 809 639 803.5 590 c 128,-1,52
 798 541 798 541 798 497 c 2,53,-1
 798 146 l 2,54,55
 798 81 798 81 848 63.5 c 128,-1,56
 898 46 898 46 898 21 c 0,57,58
 898 0 898 0 877 0 c 2,59,-1
 538 0 l 2,60,61
 517 0 517 0 517 21 c 0,62,63
 517 46 517 46 567 63.5 c 128,-1,64
 617 81 617 81 617 146 c 2,65,-1
 617 573 l 2,66,67
 617 631 617 631 589 677 c 2,0,-1
EndSplineSet
Validated: 1
EndChar

StartChar: Z
Encoding: 90 90 61
Width: 1366
Flags: W
LayerCount: 2
Fore
SplineSet
48 61 m 2,0,-1
 1020 1312 l 1,1,-1
 412 1311 l 2,2,3
 352 1311 352 1311 315 1273 c 128,-1,4
 278 1235 278 1235 228 1166 c 0,5,6
 200 1126 200 1126 190 1126 c 0,7,8
 169 1126 169 1126 169 1147 c 2,9,-1
 169 1332 l 2,10,11
 169 1386 169 1386 188 1397.5 c 128,-1,12
 207 1409 207 1409 283 1409 c 2,13,-1
 1207 1409 l 2,14,15
 1289 1409 1289 1409 1307 1392 c 0,16,17
 1314 1385 1314 1385 1314 1374 c 0,18,19
 1314 1357 1314 1357 1299 1332 c 1,20,-1
 317 98 l 1,21,-1
 1098 99 l 2,22,23
 1158 99 1158 99 1195 136.5 c 128,-1,24
 1232 174 1232 174 1283 244 c 0,25,26
 1311 283 1311 283 1320 283 c 0,27,28
 1341 283 1341 283 1341 262 c 2,29,-1
 1341 77 l 2,30,31
 1341 19 1341 19 1325.5 9.5 c 128,-1,32
 1310 0 1310 0 1228 0 c 2,33,-1
 157 0 l 2,34,35
 73 0 73 0 44 9 c 0,36,37
 30 13 30 13 30 25 c 0,38,39
 30 38 30 38 48 61 c 2,0,-1
EndSplineSet
Validated: 1
EndChar

StartChar: bracketleft
Encoding: 91 91 62
Width: 682
Flags: W
LayerCount: 2
Fore
SplineSet
483 -367 m 2,0,1
 500 -367 500 -367 500 -394 c 0,2,3
 500 -420 500 -420 488 -420 c 2,4,-1
 241 -420 l 2,5,6
 220 -420 220 -420 220 -400 c 2,7,-1
 220 1436 l 2,8,9
 220 1466 220 1466 241 1466 c 2,10,-1
 488 1466 l 2,11,12
 500 1466 500 1466 500 1438 c 0,13,14
 500 1409 500 1409 483 1409 c 2,15,-1
 338 1409 l 1,16,-1
 338 -367 l 1,17,-1
 483 -367 l 2,0,1
EndSplineSet
Validated: 1
EndChar

StartChar: backslash
Encoding: 92 92 63
Width: 1024
Flags: W
LayerCount: 2
Fore
SplineSet
989 -70 m 1,0,-1
 848 -70 l 1,1,-1
 5 1474 l 1,2,-1
 146 1474 l 1,3,-1
 989 -70 l 1,0,-1
EndSplineSet
Validated: 1
EndChar

StartChar: bracketright
Encoding: 93 93 64
Width: 682
Flags: W
LayerCount: 2
Fore
SplineSet
237 -367 m 2,0,-1
 383 -367 l 1,1,-1
 383 1409 l 1,2,-1
 237 1409 l 2,3,4
 220 1409 220 1409 220 1438 c 0,5,6
 220 1466 220 1466 233 1466 c 2,7,-1
 480 1466 l 2,8,9
 501 1466 501 1466 501 1436 c 0,10,11
 501 1266 501 1266 500.5 1021.5 c 128,-1,12
 500 777 500 777 500 517 c 2,13,-1
 500 13 l 2,14,15
 500 -231 500 -231 501 -400 c 0,16,17
 501 -420 501 -420 480 -420 c 2,18,-1
 233 -420 l 2,19,20
 220 -420 220 -420 220 -394 c 0,21,22
 220 -367 220 -367 237 -367 c 2,0,-1
EndSplineSet
Validated: 1
EndChar

StartChar: asciicircum
Encoding: 94 94 65
Width: 1024
Flags: W
LayerCount: 2
Fore
SplineSet
479 1430 m 1,0,-1
 586 1430 l 1,1,-1
 899 912 l 1,2,-1
 843 912 l 1,3,-1
 532 1312 l 1,4,-1
 220 912 l 1,5,-1
 166 912 l 1,6,-1
 479 1430 l 1,0,-1
EndSplineSet
Validated: 1
EndChar

StartChar: underscore
Encoding: 95 95 66
Width: 1024
Flags: W
LayerCount: 2
Fore
SplineSet
0 -218 m 1,0,-1
 1021 -218 l 1,1,-1
 1021 -336 l 1,2,-1
 0 -336 l 1,3,-1
 0 -218 l 1,0,-1
EndSplineSet
Validated: 1
EndChar

StartChar: grave
Encoding: 96 96 67
Width: 1024
Flags: W
LayerCount: 2
Fore
SplineSet
592 1105 m 2,0,-1
 290 1293 l 2,1,2
 269 1306 269 1306 248.5 1326.5 c 128,-1,3
 228 1347 228 1347 228 1375 c 0,4,5
 228 1423 228 1423 267 1440 c 0,6,7
 284 1447 284 1447 301 1447 c 0,8,9
 322 1447 322 1447 343 1435 c 0,10,11
 367 1420 367 1420 431 1353 c 128,-1,12
 495 1286 495 1286 520 1261 c 2,13,-1
 640 1137 l 2,14,15
 675 1100 675 1100 675 1087 c 0,16,17
 675 1080 675 1080 666 1079 c 0,18,19
 663 1078 663 1078 660 1078 c 0,20,21
 635 1078 635 1078 592 1105 c 2,0,-1
EndSplineSet
Validated: 1
EndChar

StartChar: a
Encoding: 97 97 68
Width: 1155
Flags: W
LayerCount: 2
Fore
SplineSet
797 87 m 1,0,-1
 522 -14 l 2,1,2
 490 -25 490 -25 469 -25 c 2,3,-1
 428 -25 l 1,4,5
 286 -18 286 -18 183 91 c 256,6,7
 80 200 80 200 66 359 c 0,8,9
 62 401 62 401 62 440 c 0,10,11
 62 492 62 492 69 541 c 0,12,13
 81 626 81 626 135 711 c 1,14,15
 161 755 161 755 224 803 c 1,16,17
 246 818 246 818 273 830 c 1,18,19
 353 860 353 860 433.5 890 c 128,-1,20
 514 920 514 920 595 950 c 0,21,22
 612 956 612 956 627 956 c 2,23,-1
 632 956 l 1,24,25
 696 953 696 953 787 924 c 0,26,27
 795 921 795 921 797 920 c 0,28,29
 819 911 819 911 851 900 c 0,30,31
 864 896 864 896 875 896 c 0,32,33
 891 896 891 896 903 905 c 0,34,35
 924 923 924 923 933 935 c 0,36,37
 938 942 938 942 946 942 c 0,38,39
 951 942 951 942 956 940 c 0,40,41
 978 932 978 932 978 920 c 2,42,-1
 978 146 l 2,43,44
 978 81 978 81 1028 63.5 c 128,-1,45
 1078 46 1078 46 1078 21 c 0,46,47
 1078 0 1078 0 1057 0 c 2,48,-1
 814 0 l 2,49,50
 797 0 797 0 797 13 c 2,51,-1
 797 87 l 1,0,-1
797 769 m 1,52,53
 756 807 756 807 689 839.5 c 128,-1,54
 622 872 622 872 570 874 c 1,55,-1
 566 874 l 2,56,57
 546 874 546 874 526 866 c 0,58,59
 490 853 490 853 454.5 839.5 c 128,-1,60
 419 826 419 826 383 813 c 0,61,62
 358 803 358 803 343 787 c 0,63,64
 281 721 281 721 260 627 c 1,65,66
 243 556 243 556 243 486 c 0,67,68
 243 464 243 464 245 441 c 0,69,70
 256 297 256 297 323 207 c 1,71,72
 390 114 390 114 491 86 c 0,73,74
 529 75 529 75 568 75 c 0,75,76
 580 75 580 75 593 76 c 0,77,78
 615 78 615 78 645 89 c 0,79,80
 668 97 668 97 717 115.5 c 128,-1,81
 766 134 766 134 797 146 c 1,82,-1
 797 769 l 1,52,53
EndSplineSet
Validated: 1
EndChar

StartChar: b
Encoding: 98 98 69
Width: 1139
Flags: W
LayerCount: 2
Fore
SplineSet
343 161 m 1,0,1
 383 122 383 122 449.5 89.5 c 128,-1,2
 516 57 516 57 570 56 c 1,3,-1
 576 56 l 2,4,5
 592 56 592 56 613 64 c 0,6,7
 649 77 649 77 685 90 c 128,-1,8
 721 103 721 103 757 117 c 0,9,10
 779 125 779 125 797 143 c 0,11,12
 858 208 858 208 880 302 c 1,13,14
 896 375 896 375 896 448 c 0,15,16
 896 469 896 469 895 489 c 0,17,18
 884 632 884 632 817 723 c 256,19,20
 750 814 750 814 649 844 c 1,21,22
 608 855 608 855 568 855 c 0,23,24
 557 855 557 855 546 854 c 0,25,26
 523 851 523 851 494 841 c 1,27,28
 471 832 471 832 422 814 c 128,-1,29
 373 796 373 796 343 785 c 1,30,-1
 343 161 l 1,0,1
343 10 m 0,31,32
 320 19 320 19 288 30 c 0,33,34
 274 34 274 34 263 34 c 0,35,36
 248 34 248 34 237 25 c 0,37,38
 215 6 215 6 207 -4 c 0,39,40
 202 -11 202 -11 194 -11 c 0,41,42
 189 -11 189 -11 184 -9 c 0,43,44
 162 -1 162 -1 162 11 c 2,45,-1
 162 1257 l 2,46,47
 162 1321 162 1321 112 1339 c 128,-1,48
 62 1357 62 1357 62 1383 c 0,49,50
 62 1404 62 1404 83 1404 c 0,51,52
 149 1407 149 1407 213.5 1424 c 128,-1,53
 278 1441 278 1441 343 1463 c 1,54,-1
 343 843 l 1,55,-1
 618 945 l 2,56,57
 647 955 647 955 670 957 c 0,58,59
 679 957 679 957 689.5 956.5 c 128,-1,60
 700 956 700 956 712 956 c 0,61,62
 854 949 854 949 956 840 c 1,63,64
 1058 729 1058 729 1073 571 c 0,65,66
 1077 529 1077 529 1077 489 c 0,67,68
 1077 437 1077 437 1070 388 c 0,69,70
 1058 303 1058 303 1005 219 c 0,71,72
 976 172 976 172 916 127 c 0,73,74
 893 110 893 110 866 100 c 0,75,76
 785 70 785 70 705 40 c 128,-1,77
 625 10 625 10 545 -19 c 0,78,79
 526 -25 526 -25 511 -25 c 2,80,-1
 507 -25 l 1,81,82
 444 -22 444 -22 352 6 c 0,83,84
 346 8 346 8 343 10 c 0,31,32
EndSplineSet
Validated: 1
EndChar

StartChar: c
Encoding: 99 99 70
Width: 925
Flags: W
LayerCount: 2
Fore
SplineSet
555 956 m 1,0,-1
 576 956 l 2,1,2
 739 956 739 956 876 868 c 1,3,-1
 859 699 l 2,4,5
 857 686 857 686 846 686 c 2,6,-1
 843 686 l 1,7,8
 833 687 833 687 825 706 c 0,9,10
 785 793 785 793 720 832 c 0,11,12
 656 870 656 870 564 870 c 2,13,-1
 540 870 l 1,14,15
 431 864 431 864 371 807 c 1,16,17
 318 755 318 755 293 682 c 0,18,19
 267 609 267 609 267 519 c 0,20,21
 267 489 267 489 270 458 c 0,22,23
 280 309 280 309 351 214 c 0,24,25
 444 89 444 89 559 72 c 0,26,27
 578 69 578 69 598 69 c 0,28,29
 688 69 688 69 797 129 c 0,30,31
 854 160 854 160 874 160 c 0,32,33
 879 160 879 160 882 158 c 0,34,35
 884 156 884 156 884 150 c 0,36,37
 884 138 884 138 872 112 c 0,38,39
 857 82 857 82 838 65 c 0,40,41
 781 14 781 14 698 -5.5 c 128,-1,42
 615 -25 615 -25 540 -25 c 0,43,44
 354 -24 354 -24 227.5 78.5 c 128,-1,45
 101 181 101 181 84 372 c 0,46,47
 80 416 80 416 80 458 c 0,48,49
 80 512 80 512 87 563 c 0,50,51
 100 651 100 651 155 739 c 0,52,53
 213 832 213 832 316.5 891 c 128,-1,54
 420 950 420 950 555 956 c 1,0,-1
EndSplineSet
Validated: 1
EndChar

StartChar: d
Encoding: 100 100 71
Width: 1231
Flags: W
LayerCount: 2
Fore
SplineSet
817 87 m 1,0,-1
 542 -14 l 2,1,2
 510 -25 510 -25 489 -25 c 2,3,-1
 448 -25 l 1,4,5
 306 -18 306 -18 203 91 c 256,6,7
 100 200 100 200 86 359 c 0,8,9
 82 401 82 401 82 440 c 0,10,11
 82 492 82 492 89 541 c 0,12,13
 101 626 101 626 155 711 c 1,14,15
 181 755 181 755 244 803 c 1,16,17
 266 818 266 818 293 830 c 1,18,19
 373 860 373 860 453.5 890 c 128,-1,20
 534 920 534 920 615 950 c 0,21,22
 632 956 632 956 647 956 c 2,23,-1
 652 956 l 1,24,25
 716 953 716 953 807 924 c 0,26,27
 815 921 815 921 817 920 c 1,28,-1
 817 1257 l 2,29,30
 817 1321 817 1321 767 1339 c 128,-1,31
 717 1357 717 1357 717 1383 c 0,32,33
 717 1404 717 1404 738 1404 c 0,34,35
 804 1407 804 1407 868.5 1424 c 128,-1,36
 933 1441 933 1441 998 1463 c 1,37,-1
 998 146 l 2,38,39
 998 81 998 81 1048 63.5 c 128,-1,40
 1098 46 1098 46 1098 21 c 0,41,42
 1098 0 1098 0 1077 0 c 2,43,-1
 834 0 l 2,44,45
 817 0 817 0 817 13 c 2,46,-1
 817 87 l 1,0,-1
817 770 m 1,47,48
 772 811 772 811 706.5 841.5 c 128,-1,49
 641 872 641 872 590 874 c 1,50,-1
 586 874 l 2,51,52
 566 874 566 874 546 866 c 0,53,54
 510 853 510 853 474.5 839.5 c 128,-1,55
 439 826 439 826 403 813 c 0,56,57
 378 803 378 803 363 787 c 0,58,59
 301 721 301 721 280 627 c 1,60,61
 263 556 263 556 263 486 c 0,62,63
 263 464 263 464 265 441 c 0,64,65
 276 297 276 297 343 207 c 1,66,67
 410 114 410 114 511 86 c 0,68,69
 549 75 549 75 588 75 c 0,70,71
 600 75 600 75 613 76 c 0,72,73
 635 78 635 78 665 89 c 0,74,75
 688 97 688 97 737 115.5 c 128,-1,76
 786 134 786 134 817 146 c 1,77,-1
 817 770 l 1,47,48
EndSplineSet
Validated: 1
EndChar

StartChar: e
Encoding: 101 101 72
Width: 1004
Flags: W
LayerCount: 2
Fore
SplineSet
71 551 m 4,0,1
 99 736 99 736 218.5 847 c 132,-1,2
 338 958 338 958 533 960 c 5,3,-1
 537 960 l 6,4,5
 734 960 734 960 838 848 c 5,6,7
 942 734 942 734 942 551 c 5,8,9
 941 511 941 511 939 494.5 c 132,-1,10
 937 478 937 478 898 478 c 6,11,-1
 261 478 l 5,12,13
 264 316 264 316 343 209.5 c 132,-1,14
 422 103 422 103 542 79 c 4,15,16
 577 71 577 71 613 71 c 4,17,18
 708 71 708 71 810 126 c 4,19,20
 867 157 867 157 887 157 c 4,21,22
 892 157 892 157 895 155 c 4,23,24
 898 152 898 152 898 146 c 4,25,26
 898 133 898 133 885 109 c 4,27,28
 873 85 873 85 865.5 77 c 132,-1,29
 858 69 858 69 852 63 c 4,30,31
 743 -31 743 -31 556 -31 c 5,32,33
 294 -29 294 -29 163 137 c 4,34,35
 62 265 62 265 62 441 c 4,36,37
 62 494 62 494 71 551 c 4,0,1
261 551 m 5,38,-1
 788 551 l 5,39,40
 788 673 788 673 733 775 c 4,41,42
 680 872 680 872 539 872 c 6,43,-1
 528 872 l 5,44,45
 387 868 387 868 326 770 c 132,-1,46
 265 672 265 672 261 551 c 5,38,-1
EndSplineSet
Validated: 1
Colour: ff00
EndChar

StartChar: f
Encoding: 102 102 73
Width: 683
Flags: W
LayerCount: 2
Fore
SplineSet
388 1027 m 2,0,-1
 388 948 l 1,1,-1
 626 953 l 1,2,-1
 627 953 l 2,3,4
 642 953 642 953 642 927 c 0,5,6
 642 913 642 913 638 893 c 0,7,8
 628 846 628 846 593 846 c 2,9,-1
 388 847 l 1,10,-1
 388 146 l 2,11,12
 388 81 388 81 438 63.5 c 128,-1,13
 488 46 488 46 488 21 c 0,14,15
 488 0 488 0 467 0 c 2,16,-1
 128 0 l 2,17,18
 107 0 107 0 107 21 c 0,19,20
 107 46 107 46 157 63.5 c 128,-1,21
 207 81 207 81 207 146 c 2,22,-1
 207 845 l 1,23,24
 169 844 169 844 93 840 c 1,25,-1
 88 840 l 2,26,27
 69 840 69 840 68 860 c 1,28,-1
 68 862 l 2,29,30
 68 878 68 878 87 887 c 0,31,32
 107 896 107 896 170 930 c 0,33,34
 185 938 185 938 199 944 c 0,35,36
 202 945 202 945 207 945 c 1,37,-1
 207 1027 l 2,38,39
 207 1154 207 1154 230 1234 c 0,40,41
 245 1285 245 1285 273 1319 c 0,42,43
 286 1336 286 1336 311 1345 c 2,44,-1
 566 1440 l 2,45,46
 575 1443 575 1443 600 1445 c 1,47,-1
 604 1445 l 2,48,49
 626 1445 626 1445 645 1433 c 1,50,51
 672 1414 672 1414 680 1400 c 0,52,53
 686 1388 686 1388 686 1368 c 0,54,55
 686 1360 686 1360 685 1351 c 0,56,57
 683 1304 683 1304 672 1301 c 1,58,-1
 669 1301 l 2,59,60
 658 1301 658 1301 637 1316 c 1,61,62
 589 1347 589 1347 542 1347 c 0,63,64
 514 1347 514 1347 487 1336 c 0,65,66
 403 1300 403 1300 393 1199 c 0,67,68
 389 1161 389 1161 388.5 1117 c 128,-1,69
 388 1073 388 1073 388 1027 c 2,0,-1
EndSplineSet
Validated: 1
EndChar

StartChar: g
Encoding: 103 103 74
Width: 1103
Flags: W
LayerCount: 2
Fore
SplineSet
797 199 m 1,0,-1
 797 769 l 1,1,2
 756 807 756 807 689 839.5 c 128,-1,3
 622 872 622 872 570 874 c 1,4,-1
 566 874 l 2,5,6
 546 874 546 874 526 866 c 0,7,8
 490 853 490 853 454.5 839.5 c 128,-1,9
 419 826 419 826 383 813 c 0,10,11
 358 803 358 803 343 787 c 0,12,13
 281 721 281 721 260 627 c 1,14,15
 243 556 243 556 243 486 c 0,16,17
 243 464 243 464 245 441 c 0,18,19
 256 297 256 297 323 207 c 1,20,21
 390 114 390 114 491 86 c 0,22,23
 529 75 529 75 568 75 c 0,24,25
 580 75 580 75 593 76 c 0,26,27
 615 78 615 78 645 89 c 0,28,29
 668 97 668 97 716.5 115 c 128,-1,30
 765 133 765 133 796 145 c 1,31,-1
 796 199 l 1,32,-1
 797 199 l 1,0,-1
796 87 m 1,33,-1
 522 -14 l 2,34,35
 490 -25 490 -25 469 -25 c 2,36,-1
 428 -25 l 1,37,38
 286 -18 286 -18 183 91 c 256,39,40
 80 200 80 200 66 359 c 0,41,42
 62 401 62 401 62 440 c 0,43,44
 62 492 62 492 69 541 c 0,45,46
 81 626 81 626 135 711 c 1,47,48
 161 755 161 755 224 803 c 1,49,50
 246 818 246 818 273 830 c 1,51,52
 353 860 353 860 433.5 890 c 128,-1,53
 514 920 514 920 595 950 c 0,54,55
 612 956 612 956 627 956 c 2,56,-1
 632 956 l 1,57,58
 696 953 696 953 787 924 c 0,59,60
 795 921 795 921 797 920 c 0,61,62
 819 911 819 911 851 900 c 0,63,64
 864 896 864 896 875 896 c 0,65,66
 891 896 891 896 903 905 c 0,67,68
 924 923 924 923 933 935 c 0,69,70
 938 942 938 942 946 942 c 0,71,72
 951 942 951 942 956 940 c 0,73,74
 978 932 978 932 978 920 c 2,75,-1
 978 -180 l 2,76,77
 978 -345 978 -345 931 -386 c 128,-1,78
 884 -427 884 -427 797 -459 c 2,79,-1
 522 -562 l 2,80,81
 490 -573 490 -573 469 -573 c 0,82,83
 443 -573 443 -573 428 -572 c 0,84,85
 287 -567 287 -567 183 -456 c 0,86,87
 129 -397 129 -397 97 -315 c 1,88,89
 184 -281 184 -281 275 -248 c 1,90,91
 293 -299 293 -299 323 -340 c 0,92,93
 391 -432 391 -432 491 -461 c 0,94,95
 529 -471 529 -471 566 -471 c 0,96,97
 580 -471 580 -471 593 -470 c 0,98,99
 615 -468 615 -468 645 -458 c 0,100,101
 657 -453 657 -453 676 -446 c 128,-1,102
 695 -439 695 -439 717 -431 c 1,103,104
 765 -407 765 -407 781 -334 c 128,-1,105
 797 -261 797 -261 797 -237 c 2,106,-1
 796 87 l 1,33,-1
EndSplineSet
Validated: 1
EndChar

StartChar: h
Encoding: 104 104 75
Width: 1207
Flags: W
LayerCount: 2
Fore
SplineSet
362 146 m 2,0,1
 362 81 362 81 412 63.5 c 128,-1,2
 462 46 462 46 462 21 c 0,3,4
 462 0 462 0 442 0 c 2,5,-1
 103 0 l 2,6,7
 82 0 82 0 82 21 c 0,8,9
 82 46 82 46 132 63.5 c 128,-1,10
 182 81 182 81 182 146 c 2,11,-1
 182 1257 l 2,12,13
 182 1321 182 1321 132 1339 c 128,-1,14
 82 1357 82 1357 82 1383 c 0,15,16
 82 1404 82 1404 103 1404 c 0,17,18
 169 1407 169 1407 233.5 1424 c 128,-1,19
 298 1441 298 1441 362 1463 c 1,20,-1
 362 853 l 1,21,22
 417 874 417 874 459 890 c 128,-1,23
 501 906 501 906 539 919 c 0,24,25
 631 951 631 951 730 961 c 0,26,27
 742 962 742 962 755 962 c 0,28,29
 839 962 839 962 915 905 c 1,30,31
 1036 812 1036 812 1036 506 c 2,32,-1
 1036 146 l 2,33,34
 1036 81 1036 81 1086 63.5 c 128,-1,35
 1136 46 1136 46 1136 21 c 0,36,37
 1136 0 1136 0 1116 0 c 2,38,-1
 873 0 l 2,39,40
 856 0 856 0 856 13 c 2,41,-1
 856 506 l 2,42,43
 856 725 856 725 765 814 c 0,44,45
 707 871 707 871 623 871 c 0,46,47
 575 871 575 871 518 852 c 0,48,49
 496 844 496 844 462.5 831.5 c 128,-1,50
 429 819 429 819 405 810 c 256,51,52
 381 801 381 801 362 794 c 1,53,-1
 362 146 l 2,0,1
EndSplineSet
Validated: 1
EndChar

StartChar: i
Encoding: 105 105 76
Width: 593
Flags: W
LayerCount: 2
Fore
SplineSet
302 1400 m 256,0,1
 411 1400 411 1400 411 1290 c 0,2,3
 411 1179 411 1179 302 1179 c 256,4,5
 193 1179 193 1179 193 1290 c 0,6,7
 193 1400 193 1400 302 1400 c 256,0,1
392 146 m 2,8,9
 392 81 392 81 442 63.5 c 128,-1,10
 492 46 492 46 492 21 c 0,11,12
 492 0 492 0 472 0 c 2,13,-1
 133 0 l 2,14,15
 112 0 112 0 112 21 c 0,16,17
 112 46 112 46 162 63.5 c 128,-1,18
 212 81 212 81 212 146 c 2,19,-1
 212 786 l 2,20,21
 212 849 212 849 162 867 c 128,-1,22
 112 885 112 885 112 911 c 0,23,24
 112 932 112 932 133 932 c 0,25,26
 199 935 199 935 263.5 952.5 c 128,-1,27
 328 970 328 970 392 992 c 1,28,-1
 392 146 l 2,8,9
EndSplineSet
Validated: 1
EndChar

StartChar: j
Encoding: 106 106 77
Width: 487
Flags: W
LayerCount: 2
Fore
SplineSet
252 1400 m 0,0,1
 362 1400 362 1400 362 1290 c 0,2,3
 362 1179 362 1179 252 1179 c 0,4,5
 143 1179 143 1179 143 1290 c 0,6,7
 143 1400 143 1400 252 1400 c 0,0,1
343 12 m 1,8,9
 342 -185 342 -185 316 -281 c 128,-1,10
 290 -377 290 -377 225 -445 c 1,11,12
 132 -540 132 -540 22 -567 c 1,13,-1
 22 -517 l 1,14,15
 117 -460 117 -460 149 -357 c 0,16,17
 161 -316 161 -316 161.5 -242 c 128,-1,18
 162 -168 162 -168 162 6 c 2,19,-1
 162 786 l 2,20,21
 162 849 162 849 112 867 c 128,-1,22
 62 885 62 885 62 911 c 0,23,24
 62 932 62 932 83 932 c 0,25,26
 149 935 149 935 213.5 952.5 c 128,-1,27
 278 970 278 970 343 992 c 1,28,-1
 343 12 l 1,8,9
EndSplineSet
Validated: 1
EndChar

StartChar: k
Encoding: 107 107 78
Width: 1163
Flags: W
LayerCount: 2
Fore
SplineSet
382 443 m 1,0,-1
 382 146 l 2,1,2
 382 81 382 81 432 63.5 c 128,-1,3
 482 46 482 46 482 21 c 0,4,5
 482 0 482 0 462 0 c 2,6,-1
 123 0 l 2,7,8
 102 0 102 0 102 21 c 0,9,10
 102 46 102 46 152 63.5 c 128,-1,11
 202 81 202 81 202 146 c 2,12,-1
 202 1257 l 2,13,14
 202 1321 202 1321 152 1339 c 128,-1,15
 102 1357 102 1357 102 1383 c 0,16,17
 102 1404 102 1404 123 1404 c 0,18,19
 189 1407 189 1407 253.5 1424 c 128,-1,20
 318 1441 318 1441 382 1463 c 1,21,-1
 382 551 l 1,22,-1
 736 834 l 2,23,24
 797 884 797 884 844 913 c 0,25,26
 871 929 871 929 895 929 c 0,27,28
 913 929 913 929 930 920 c 1,29,-1
 1004 874 l 2,30,31
 1016 866 1016 866 1016 856 c 0,32,33
 1016 851 1016 851 1013 846 c 2,34,-1
 966 741 l 1,35,-1
 916 767 l 2,36,37
 886 782 886 782 858 782 c 0,38,39
 824 782 824 782 794 760 c 0,40,41
 649 651 649 651 538 565 c 1,42,-1
 886 225 l 2,43,44
 994 120 994 120 1026 106 c 0,45,46
 1049 95 1049 95 1073 95 c 0,47,48
 1083 95 1083 95 1094 97 c 0,49,50
 1102 99 1102 99 1109 99 c 0,51,52
 1129 99 1129 99 1136 84 c 0,53,54
 1138 78 1138 78 1138 74 c 0,55,56
 1138 64 1138 64 1128 60 c 2,57,-1
 1064 29 l 1,58,59
 1012 6 1012 6 967 6 c 0,60,61
 938 6 938 6 912 17 c 0,62,63
 847 43 847 43 793 96 c 2,64,-1
 412 467 l 1,65,66
 404 459 404 459 382 443 c 1,0,-1
EndSplineSet
Validated: 1
EndChar

StartChar: l
Encoding: 108 108 79
Width: 597
Flags: W
LayerCount: 2
Fore
SplineSet
382 146 m 2,0,1
 382 81 382 81 432 63.5 c 128,-1,2
 482 46 482 46 482 21 c 0,3,4
 482 0 482 0 462 0 c 2,5,-1
 123 0 l 2,6,7
 102 0 102 0 102 21 c 0,8,9
 102 46 102 46 152 63.5 c 128,-1,10
 202 81 202 81 202 146 c 2,11,-1
 202 1257 l 2,12,13
 202 1321 202 1321 152 1339 c 128,-1,14
 102 1357 102 1357 102 1383 c 0,15,16
 102 1404 102 1404 123 1404 c 0,17,18
 189 1407 189 1407 253.5 1424 c 128,-1,19
 318 1441 318 1441 382 1463 c 1,20,-1
 382 146 l 2,0,1
EndSplineSet
Validated: 1
EndChar

StartChar: m
Encoding: 109 109 80
Width: 1797
Flags: W
LayerCount: 2
Fore
SplineSet
379 861 m 5,0,1
 426 879 426 879 463.5 893 c 132,-1,2
 501 907 501 907 535 919 c 4,3,4
 627 951 627 951 726 961 c 4,5,6
 738 962 738 962 751 962 c 4,7,8
 835 962 835 962 911 905 c 5,9,10
 937 884 937 884 953 863 c 5,11,12
 998 880 998 880 1034.5 893.5 c 132,-1,13
 1071 907 1071 907 1104 919 c 4,14,15
 1196 951 1196 951 1294 961 c 4,16,17
 1307 962 1307 962 1320 962 c 4,18,19
 1403 962 1403 962 1479 905 c 4,20,21
 1601 812 1601 812 1601 506 c 6,22,-1
 1601 146 l 6,23,24
 1601 81 1601 81 1651 63.5 c 132,-1,25
 1701 46 1701 46 1701 21 c 4,26,27
 1701 0 1701 0 1680 0 c 6,28,-1
 1437 0 l 6,29,30
 1421 0 1421 0 1421 13 c 6,31,-1
 1421 506 l 6,32,33
 1421 725 1421 725 1330 814 c 4,34,35
 1272 871 1272 871 1188 871 c 4,36,37
 1140 871 1140 871 1083 852 c 4,38,39
 1063 845 1063 845 1034.5 834.5 c 132,-1,40
 1006 824 1006 824 982 815 c 5,41,42
 1032 712 1032 712 1032 506 c 6,43,-1
 1032 146 l 6,44,45
 1032 81 1032 81 1082 63.5 c 132,-1,46
 1132 46 1132 46 1132 21 c 4,47,48
 1132 0 1132 0 1112 0 c 6,49,-1
 773 0 l 6,50,51
 752 0 752 0 752 21 c 4,52,53
 752 46 752 46 802 63.5 c 132,-1,54
 852 81 852 81 852 146 c 6,55,-1
 852 506 l 6,56,57
 852 725 852 725 761 814 c 4,58,59
 703 871 703 871 619 871 c 4,60,61
 571 871 571 871 514 852 c 4,62,63
 479 840 479 840 445.5 827 c 132,-1,64
 412 814 412 814 379 802 c 5,65,-1
 379 146 l 6,66,67
 379 81 379 81 429 63.5 c 132,-1,68
 479 46 479 46 479 21 c 4,69,70
 479 0 479 0 459 0 c 6,71,-1
 120 0 l 6,72,73
 99 0 99 0 99 21 c 4,74,75
 99 46 99 46 149 63.5 c 132,-1,76
 199 81 199 81 199 146 c 6,77,-1
 199 786 l 6,78,79
 199 849 199 849 149 867 c 132,-1,80
 99 885 99 885 99 911 c 4,81,82
 99 932 99 932 120 932 c 4,83,84
 186 935 186 935 250.5 952.5 c 132,-1,85
 315 970 315 970 379 992 c 5,86,-1
 379 861 l 5,0,1
EndSplineSet
Validated: 1
EndChar

StartChar: n
Encoding: 110 110 81
Width: 1191
Flags: W
LayerCount: 2
Fore
SplineSet
362 853 m 1,0,1
 417 874 417 874 459 890 c 128,-1,2
 501 906 501 906 539 919 c 0,3,4
 631 951 631 951 730 961 c 0,5,6
 742 962 742 962 755 962 c 0,7,8
 839 962 839 962 915 905 c 1,9,10
 1036 812 1036 812 1036 506 c 2,11,-1
 1036 146 l 2,12,13
 1036 81 1036 81 1086 63.5 c 128,-1,14
 1136 46 1136 46 1136 21 c 0,15,16
 1136 0 1136 0 1116 0 c 2,17,-1
 873 0 l 2,18,19
 856 0 856 0 856 13 c 2,20,-1
 856 506 l 2,21,22
 856 725 856 725 765 814 c 0,23,24
 707 871 707 871 623 871 c 0,25,26
 575 871 575 871 518 852 c 0,27,28
 496 844 496 844 462.5 831.5 c 128,-1,29
 429 819 429 819 405 810 c 256,30,31
 381 801 381 801 362 794 c 1,32,-1
 362 146 l 2,33,34
 362 81 362 81 412 63.5 c 128,-1,35
 462 46 462 46 462 21 c 0,36,37
 462 0 462 0 442 0 c 2,38,-1
 103 0 l 2,39,40
 82 0 82 0 82 21 c 0,41,42
 82 46 82 46 132 63.5 c 128,-1,43
 182 81 182 81 182 146 c 2,44,-1
 182 786 l 2,45,46
 182 849 182 849 132 867 c 128,-1,47
 82 885 82 885 82 911 c 0,48,49
 82 932 82 932 103 932 c 0,50,51
 169 935 169 935 233.5 952.5 c 128,-1,52
 298 970 298 970 362 992 c 1,53,-1
 362 853 l 1,0,1
EndSplineSet
Validated: 1
EndChar

StartChar: o
Encoding: 111 111 82
Width: 1107
Flags: W
LayerCount: 2
Fore
SplineSet
577 956 m 1,0,1
 772 948 772 948 907 805.5 c 128,-1,2
 1042 663 1042 663 1045 465 c 1,3,-1
 1045 459 l 2,4,5
 1045 259 1045 259 904 121 c 0,6,7
 760 -19 760 -19 553 -25 c 1,8,-1
 537 -25 l 2,9,10
 345 -25 345 -25 206 117 c 0,11,12
 62 263 62 263 62 462 c 2,13,-1
 62 465 l 1,14,15
 63 684 63 684 227 833 c 0,16,17
 246 851 246 851 283.5 864 c 128,-1,18
 321 877 321 877 395 904 c 0,19,20
 439 920 439 920 492 939 c 0,21,22
 542 956 542 956 574 956 c 2,23,-1
 577 956 l 1,0,1
556 889 m 1,24,-1
 544 889 l 2,25,26
 427 889 427 889 343 776 c 0,27,28
 254 656 254 656 254 481 c 256,29,30
 254 306 254 306 341.5 177.5 c 128,-1,31
 429 49 429 49 554 43 c 1,32,-1
 568 43 l 2,33,34
 684 43 684 43 768 156 c 0,35,36
 856 275 856 275 856 450 c 256,37,38
 856 625 856 625 768 753.5 c 128,-1,39
 680 882 680 882 556 889 c 1,24,-1
EndSplineSet
Validated: 1
EndChar

StartChar: p
Encoding: 112 112 83
Width: 1197
Flags: W
LayerCount: 2
Fore
SplineSet
392 848 m 1,0,-1
 655 945 l 2,1,2
 684 955 684 955 707 957 c 0,3,4
 716 957 716 957 726 956.5 c 128,-1,5
 736 956 736 956 748 956 c 0,6,7
 889 950 889 950 993 840 c 1,8,9
 1095 729 1095 729 1110 571 c 0,10,11
 1114 530 1114 530 1114 491 c 0,12,13
 1114 437 1114 437 1107 388 c 0,14,15
 1094 303 1094 303 1042 219 c 0,16,17
 1014 174 1014 174 952 127 c 0,18,19
 930 111 930 111 903 100 c 0,20,21
 728 34 728 34 581 -19 c 0,22,23
 564 -25 564 -25 548 -25 c 2,24,-1
 544 -25 l 1,25,26
 485 -22 485 -22 392 5 c 1,27,-1
 392 -441 l 2,28,29
 392 -505 392 -505 442 -523 c 128,-1,30
 492 -541 492 -541 492 -567 c 0,31,32
 492 -587 492 -587 472 -587 c 2,33,-1
 133 -587 l 2,34,35
 112 -587 112 -587 112 -567 c 0,36,37
 112 -541 112 -541 162 -523 c 128,-1,38
 212 -505 212 -505 212 -441 c 2,39,-1
 212 786 l 2,40,41
 212 849 212 849 162 867 c 128,-1,42
 112 885 112 885 112 911 c 0,43,44
 112 932 112 932 133 932 c 0,45,46
 199 935 199 935 263.5 952.5 c 128,-1,47
 328 970 328 970 392 992 c 1,48,-1
 392 848 l 1,0,-1
392 150 m 1,49,50
 434 114 434 114 495.5 85.5 c 128,-1,51
 557 57 557 57 607 56 c 1,52,-1
 613 56 l 2,53,54
 629 56 629 56 650 64 c 0,55,56
 686 77 686 77 721.5 90 c 128,-1,57
 757 103 757 103 793 117 c 0,58,59
 816 125 816 125 834 143 c 1,60,61
 894 208 894 208 916 302 c 0,62,63
 933 373 933 373 933 444 c 0,64,65
 933 467 933 467 931 489 c 0,66,67
 920 632 920 632 853 723 c 0,68,69
 785 815 785 815 685 844 c 0,70,71
 645 855 645 855 606 855 c 0,72,73
 594 855 594 855 583 854 c 0,74,75
 560 851 560 851 531 841 c 0,76,77
 510 833 510 833 467.5 817.5 c 128,-1,78
 425 802 425 802 392 790 c 1,79,-1
 392 150 l 1,49,50
EndSplineSet
Validated: 1
EndChar

StartChar: q
Encoding: 113 113 84
Width: 1173
Flags: W
LayerCount: 2
Fore
SplineSet
813 86 m 1,0,-1
 541 -14 l 2,1,2
 511 -25 511 -25 489 -25 c 2,3,-1
 447 -25 l 1,4,5
 304 -18 304 -18 203 91 c 1,6,7
 100 200 100 200 86 359 c 0,8,9
 82 402 82 402 82 442 c 0,10,11
 82 493 82 493 89 541 c 0,12,13
 100 626 100 626 154 711 c 1,14,15
 182 757 182 757 243 803 c 0,16,17
 265 819 265 819 293 830 c 0,18,19
 373 860 373 860 453 890 c 128,-1,20
 533 920 533 920 614 950 c 0,21,22
 632 956 632 956 648 956 c 2,23,-1
 652 956 l 1,24,25
 717 953 717 953 807 924 c 0,26,27
 809 923 809 923 812 921.5 c 128,-1,28
 815 920 815 920 818 920 c 1,29,-1
 818 918 l 1,30,31
 841 909 841 909 871 900 c 0,32,33
 883 896 883 896 892 896 c 0,34,35
 908 896 908 896 919 905 c 0,36,37
 940 923 940 923 949 935 c 0,38,39
 954 942 954 942 962 942 c 0,40,41
 967 942 967 942 972 940 c 0,42,43
 994 932 994 932 994 920 c 2,44,-1
 994 -441 l 2,45,46
 994 -505 994 -505 1044 -523 c 128,-1,47
 1094 -541 1094 -541 1094 -567 c 0,48,49
 1094 -587 1094 -587 1073 -587 c 2,50,-1
 734 -587 l 2,51,52
 713 -587 713 -587 713 -567 c 0,53,54
 713 -541 713 -541 763 -523 c 128,-1,55
 813 -505 813 -505 813 -441 c 2,56,-1
 813 86 l 1,0,-1
813 772 m 1,57,58
 771 809 771 809 705.5 840.5 c 128,-1,59
 640 872 640 872 589 874 c 1,60,-1
 585 874 l 2,61,62
 565 874 565 874 546 866 c 1,63,64
 510 853 510 853 474 839.5 c 128,-1,65
 438 826 438 826 402 813 c 0,66,67
 379 804 379 804 362 787 c 0,68,69
 300 721 300 721 279 627 c 1,70,71
 262 556 262 556 262 486 c 0,72,73
 262 464 262 464 264 441 c 0,74,75
 275 297 275 297 342 207 c 1,76,77
 408 115 408 115 510 86 c 0,78,79
 549 75 549 75 587 75 c 0,80,81
 600 75 600 75 612 76 c 0,82,83
 635 78 635 78 665 89 c 0,84,85
 686 97 686 97 733.5 114.5 c 128,-1,86
 781 132 781 132 813 144 c 1,87,-1
 813 772 l 1,57,58
EndSplineSet
Validated: 1
EndChar

StartChar: r
Encoding: 114 114 85
Width: 831
Flags: W
LayerCount: 2
Fore
SplineSet
403 595 m 1,0,-1
 403 146 l 2,1,2
 403 81 403 81 452.5 63.5 c 128,-1,3
 502 46 502 46 502 21 c 0,4,5
 502 0 502 0 482 0 c 2,6,-1
 143 0 l 2,7,8
 122 0 122 0 122 21 c 0,9,10
 122 46 122 46 172 63.5 c 128,-1,11
 222 81 222 81 222 146 c 2,12,-1
 222 786 l 2,13,14
 222 849 222 849 172 867 c 128,-1,15
 122 885 122 885 122 911 c 0,16,17
 122 932 122 932 143 932 c 0,18,19
 209 935 209 935 273.5 952.5 c 128,-1,20
 338 970 338 970 403 992 c 1,21,-1
 403 860 l 1,22,-1
 542 913 l 2,23,24
 619 942 619 942 662 956 c 0,25,26
 675 960 675 960 693 960 c 0,27,28
 730 960 730 960 787 940 c 1,29,-1
 765 689 l 1,30,-1
 719 689 l 1,31,32
 680 835 680 835 569 835 c 0,33,34
 558 835 558 835 547 834 c 0,35,36
 471 825 471 825 438.5 756.5 c 128,-1,37
 406 688 406 688 403 595 c 1,0,-1
EndSplineSet
Validated: 1
EndChar

StartChar: s
Encoding: 115 115 86
Width: 884
Flags: W
LayerCount: 2
Fore
SplineSet
490 958 m 0,0,1
 637 950 637 950 768 869 c 1,2,-1
 747 694 l 2,3,4
 745 679 745 679 731 679 c 2,5,-1
 728 679 l 1,6,7
 716 680 716 680 706 703 c 0,8,9
 670 778 670 778 601 828.5 c 128,-1,10
 532 879 532 879 452 882 c 1,11,-1
 448 882 l 2,12,13
 386 882 386 882 327 851 c 0,14,15
 265 819 265 819 251 753 c 0,16,17
 246 731 246 731 246 713 c 0,18,19
 246 650 246 650 302 623 c 1,20,21
 373 587 373 587 467 566 c 0,22,23
 596 537 596 537 701.5 488 c 128,-1,24
 807 439 807 439 817 283 c 1,25,-1
 817 273 l 2,26,27
 817 199 817 199 760 125 c 0,28,29
 698 45 698 45 581 4 c 1,30,31
 508 -20 508 -20 419 -23 c 1,32,-1
 392 -23 l 2,33,34
 269 -23 269 -23 157 9 c 1,35,-1
 76 229 l 1,36,-1
 79 249 l 1,37,38
 80 264 80 264 97 264 c 2,39,-1
 99 264 l 1,40,41
 109 262 109 262 120 240 c 0,42,43
 166 141 166 141 232.5 99.5 c 128,-1,44
 299 58 299 58 401 55 c 1,45,-1
 413 55 l 2,46,47
 484 55 484 55 569 88 c 0,48,49
 661 124 661 124 665 218 c 1,50,-1
 665 224 l 2,51,52
 665 332 665 332 563 361 c 0,53,54
 457 391 457 391 377 414 c 1,55,56
 278 441 278 441 191 500 c 0,57,58
 105 558 105 558 105 672 c 2,59,-1
 105 677 l 1,60,61
 106 832 106 832 225 898 c 0,62,63
 334 959 334 959 466 959 c 0,64,65
 478 959 478 959 490 958 c 0,0,1
EndSplineSet
Validated: 1
EndChar

StartChar: t
Encoding: 116 116 87
Width: 682
Flags: W
LayerCount: 2
Fore
SplineSet
207 845 m 1,0,1
 169 844 169 844 93 840 c 1,2,-1
 88 840 l 2,3,4
 69 840 69 840 68 860 c 1,5,-1
 68 862 l 2,6,7
 68 878 68 878 87 887 c 0,8,9
 107 896 107 896 170 930 c 0,10,11
 185 938 185 938 199 944 c 0,12,13
 202 945 202 945 207 945 c 1,14,-1
 207 1116 l 2,15,16
 207 1166 207 1166 227.5 1185.5 c 128,-1,17
 248 1205 248 1205 322 1240 c 0,18,19
 349 1253 349 1253 365 1253 c 0,20,21
 388 1253 388 1253 388 1227 c 2,22,-1
 388 948 l 1,23,-1
 626 953 l 1,24,-1
 627 953 l 2,25,26
 642 953 642 953 642 927 c 0,27,28
 642 913 642 913 638 893 c 0,29,30
 628 846 628 846 593 846 c 2,31,-1
 388 847 l 1,32,-1
 388 220 l 2,33,34
 388 129 388 129 451.5 84 c 128,-1,35
 515 39 515 39 560 33 c 1,36,-1
 560 1 l 1,37,38
 411 1 411 1 309 29 c 128,-1,39
 207 57 207 57 207 250 c 2,40,-1
 207 845 l 1,0,1
EndSplineSet
Validated: 1
EndChar

StartChar: u
Encoding: 117 117 88
Width: 1239
Flags: W
LayerCount: 2
Fore
SplineSet
1040 146 m 2,0,1
 1040 81 1040 81 1090 63.5 c 128,-1,2
 1140 46 1140 46 1140 21 c 0,3,4
 1140 0 1140 0 1119 0 c 2,5,-1
 876 0 l 2,6,7
 859 0 859 0 859 13 c 2,8,-1
 859 78 l 1,9,10
 804 57 804 57 761.5 40.5 c 128,-1,11
 719 24 719 24 683 12 c 0,12,13
 590 -19 590 -19 492 -29 c 0,14,15
 478 -30 478 -30 465 -30 c 0,16,17
 382 -30 382 -30 307 26 c 0,18,19
 185 118 185 118 185 425 c 2,20,-1
 185 786 l 2,21,22
 185 849 185 849 135 867 c 128,-1,23
 85 885 85 885 85 911 c 0,24,25
 85 932 85 932 106 932 c 0,26,27
 172 935 172 935 236.5 952.5 c 128,-1,28
 301 970 301 970 366 992 c 1,29,-1
 366 425 l 2,30,31
 366 205 366 205 457 117 c 0,32,33
 515 60 515 60 599 60 c 0,34,35
 647 60 647 60 704 79 c 0,36,37
 725 86 725 86 759 99 c 128,-1,38
 793 112 793 112 817 121 c 0,39,40
 822 123 822 123 833.5 127 c 128,-1,41
 845 131 845 131 859 137 c 1,42,-1
 859 786 l 2,43,44
 859 849 859 849 809 867 c 128,-1,45
 759 885 759 885 759 911 c 0,46,47
 759 932 759 932 780 932 c 0,48,49
 846 935 846 935 910.5 952.5 c 128,-1,50
 975 970 975 970 1040 992 c 1,51,-1
 1040 146 l 2,0,1
EndSplineSet
Validated: 1
EndChar

StartChar: v
Encoding: 118 118 89
Width: 1036
Flags: W
LayerCount: 2
Fore
SplineSet
355 805 m 2,0,-1
 617 166 l 1,1,-1
 847 717 l 2,2,3
 856 738 856 738 856 758 c 0,4,5
 856 793 856 793 828 826 c 2,6,-1
 795 865 l 1,7,-1
 885 936 l 2,8,9
 891 942 891 942 896 942 c 0,10,11
 903 942 903 942 911 934 c 2,12,-1
 967 877 l 2,13,14
 984 859 984 859 984 833 c 0,15,16
 984 818 984 818 978 800 c 0,17,18
 962 752 962 752 931 688 c 1,19,-1
 624 2 l 2,20,21
 619 -8 619 -8 614 -14 c 0,22,23
 609 -19 609 -19 603 -19 c 2,24,-1
 519 -19 l 2,25,26
 512 -19 512 -19 508 -13 c 0,27,28
 505 -10 505 -10 500.5 2.5 c 128,-1,29
 496 15 496 15 494 21 c 2,30,-1
 167 800 l 2,31,32
 150 838 150 838 118 860 c 1,33,34
 97 873 97 873 76.5 882 c 128,-1,35
 56 891 56 891 44 900 c 1,36,37
 37 904 37 904 32 913 c 1,38,39
 31 917 31 917 31 920 c 256,40,41
 31 923 31 923 32 926 c 0,42,43
 35 931 35 931 43 931 c 2,44,-1
 371 931 l 2,45,46
 378 931 378 931 387 926 c 1,47,48
 395 919 395 919 398 913 c 0,49,50
 399 910 399 910 399 908 c 0,51,52
 399 899 399 899 389 890 c 0,53,54
 355 859 355 859 352 849 c 0,55,56
 349 840 349 840 349 830 c 0,57,58
 349 818 349 818 355 805 c 2,0,-1
EndSplineSet
Validated: 1
EndChar

StartChar: w
Encoding: 119 119 90
Width: 1647
Flags: W
LayerCount: 2
Fore
SplineSet
966 805 m 2,0,-1
 1228 166 l 1,1,-1
 1458 717 l 2,2,3
 1467 738 1467 738 1467 758 c 0,4,5
 1467 793 1467 793 1439 826 c 2,6,-1
 1406 865 l 1,7,-1
 1495 936 l 2,8,9
 1500 941 1500 941 1507 941 c 256,10,11
 1514 941 1514 941 1522 934 c 2,12,-1
 1578 877 l 2,13,14
 1595 859 1595 859 1595 833 c 0,15,16
 1595 818 1595 818 1589 800 c 0,17,18
 1573 752 1573 752 1542 688 c 1,19,-1
 1235 2 l 2,20,21
 1230 -8 1230 -8 1225 -14 c 0,22,23
 1220 -19 1220 -19 1214 -19 c 2,24,-1
 1130 -19 l 2,25,26
 1123 -19 1123 -19 1119 -13 c 0,27,28
 1116 -10 1116 -10 1111.5 2.5 c 128,-1,29
 1107 15 1107 15 1104 21 c 2,30,-1
 876 565 l 1,31,-1
 624 2 l 2,32,33
 619 -8 619 -8 614 -14 c 0,34,35
 609 -19 609 -19 603 -19 c 2,36,-1
 519 -19 l 2,37,38
 512 -19 512 -19 508 -13 c 0,39,40
 505 -10 505 -10 500.5 2.5 c 128,-1,41
 496 15 496 15 494 21 c 2,42,-1
 167 800 l 2,43,44
 150 838 150 838 118 860 c 1,45,46
 97 873 97 873 76.5 882 c 128,-1,47
 56 891 56 891 44 900 c 1,48,49
 37 904 37 904 32 913 c 1,50,51
 31 917 31 917 31 920 c 256,52,53
 31 923 31 923 32 926 c 0,54,55
 35 931 35 931 43 931 c 2,56,-1
 371 931 l 2,57,58
 378 931 378 931 387 926 c 1,59,60
 395 919 395 919 398 913 c 0,61,62
 399 910 399 910 399 908 c 0,63,64
 399 899 399 899 389 890 c 0,65,66
 355 859 355 859 352 849 c 0,67,68
 349 840 349 840 349 830 c 0,69,70
 349 818 349 818 355 805 c 2,71,-1
 617 166 l 1,72,-1
 830 676 l 1,73,-1
 778 800 l 2,74,75
 761 838 761 838 729 860 c 1,76,77
 708 873 708 873 687.5 882 c 128,-1,78
 667 891 667 891 655 900 c 1,79,80
 645 906 645 906 643 913 c 0,81,82
 642 917 642 917 642 920 c 256,83,84
 642 923 642 923 643 926 c 0,85,86
 646 931 646 931 654 931 c 2,87,-1
 982 931 l 2,88,89
 989 931 989 931 998 926 c 1,90,91
 1006 919 1006 919 1009 913 c 0,92,93
 1010 910 1010 910 1010 908 c 0,94,95
 1010 899 1010 899 1000 890 c 0,96,97
 966 859 966 859 963 849 c 0,98,99
 960 840 960 840 960 830 c 0,100,101
 960 818 960 818 966 805 c 2,0,-1
EndSplineSet
Validated: 1
EndChar

StartChar: x
Encoding: 120 120 91
Width: 1098
Flags: W
LayerCount: 2
Fore
SplineSet
163 97 m 2,0,-1
 449 447 l 1,1,-1
 184 832 l 2,2,3
 168 856 168 856 130 876 c 0,4,5
 111 886 111 886 93 892.5 c 128,-1,6
 75 899 75 899 64 906 c 0,7,8
 41 919 41 919 41 924 c 256,9,10
 41 929 41 929 56 929 c 2,11,-1
 378 929 l 2,12,13
 393 929 393 929 403 915 c 0,14,15
 406 911 406 911 406 906 c 0,16,17
 406 900 406 900 397 895 c 0,18,19
 382 886 382 886 381 868 c 0,20,21
 381 853 381 853 393 836 c 2,22,-1
 564 587 l 1,23,-1
 734 796 l 2,24,25
 825 907 825 907 850 929 c 0,26,27
 859 937 859 937 875 937 c 0,28,29
 899 937 899 937 937 917 c 2,30,-1
 1001 883 l 2,31,32
 1010 878 1010 878 1010 869 c 0,33,34
 1010 864 1010 864 1007 858 c 2,35,-1
 956 754 l 1,36,37
 919 774 919 774 888 789 c 0,38,39
 880 793 880 793 872 793 c 0,40,41
 848 793 848 793 820 758 c 2,42,-1
 617 510 l 1,43,-1
 902 97 l 1,44,45
 920 68 920 68 961 51 c 0,46,47
 976 44 976 44 991.5 37.5 c 128,-1,48
 1007 31 1007 31 1022 23 c 0,49,50
 1045 10 1045 10 1045 5 c 256,51,52
 1045 0 1045 0 1030 0 c 2,53,-1
 708 0 l 2,54,55
 693 0 693 0 683 13 c 0,56,57
 680 18 680 18 680 22 c 0,58,59
 680 28 680 28 689 34 c 0,60,61
 703 42 703 42 705 60 c 1,62,-1
 705 62 l 2,63,64
 705 76 705 76 693 93 c 2,65,-1
 503 370 l 1,66,-1
 279 97 l 1,67,68
 260 71 260 71 260 55 c 2,69,-1
 260 52 l 2,70,71
 260 39 260 39 265 32 c 0,72,73
 266 29 266 29 266 26 c 0,74,75
 266 20 266 20 261 14 c 0,76,77
 252 0 252 0 242 0 c 2,78,-1
 34 0 l 2,79,80
 24 0 24 0 24 5 c 0,81,82
 24 9 24 9 28 14 c 0,83,84
 41 30 41 30 84 41 c 128,-1,85
 127 52 127 52 163 97 c 2,0,-1
EndSplineSet
Validated: 1
EndChar

StartChar: y
Encoding: 121 121 92
Width: 1036
Flags: W
LayerCount: 2
Fore
SplineSet
167 800 m 2,0,1
 150 838 150 838 118 860 c 1,2,3
 92 876 92 876 65 887 c 128,-1,4
 38 898 38 898 32 913 c 0,5,6
 30 918 30 918 30 922 c 0,7,8
 30 931 30 931 43 931 c 2,9,-1
 371 931 l 2,10,11
 390 931 390 931 398 913 c 0,12,13
 400 909 400 909 400 905 c 0,14,15
 400 893 400 893 383 885 c 1,16,17
 361 873 361 873 352 849 c 0,18,19
 349 840 349 840 349 830 c 0,20,21
 349 818 349 818 355 805 c 2,22,-1
 617 166 l 1,23,-1
 847 717 l 2,24,25
 856 738 856 738 856 758 c 0,26,27
 856 793 856 793 828 826 c 2,28,-1
 795 865 l 1,29,-1
 885 936 l 2,30,31
 891 942 891 942 896 942 c 0,32,33
 903 942 903 942 911 934 c 2,34,-1
 967 877 l 2,35,36
 984 859 984 859 984 833 c 0,37,38
 984 818 984 818 978 800 c 0,39,40
 962 752 962 752 931 688 c 1,41,-1
 436 -414 l 2,42,43
 406 -480 406 -480 382 -524 c 0,44,45
 358 -566 358 -566 321 -566 c 2,46,-1
 318 -566 l 1,47,-1
 238 -563 l 1,48,49
 219 -560 219 -560 219 -544 c 2,50,-1
 213 -430 l 1,51,-1
 264 -429 l 2,52,53
 331 -427 331 -427 359 -370 c 2,54,-1
 528 -19 l 1,55,56
 513 -19 513 -19 508 -13 c 0,57,58
 505 -10 505 -10 500.5 2.5 c 128,-1,59
 496 15 496 15 494 21 c 2,60,-1
 167 800 l 2,0,1
EndSplineSet
Validated: 1
EndChar

StartChar: z
Encoding: 122 122 93
Width: 1019
Flags: W
LayerCount: 2
Fore
SplineSet
932 880 m 2,0,-1
 294 79 l 1,1,-1
 728 79 l 1,2,3
 779 81 779 81 814 114 c 128,-1,4
 849 147 849 147 892 207 c 0,5,6
 917 241 917 241 924 241 c 0,7,8
 942 241 942 241 942 223 c 2,9,-1
 942 65 l 2,10,11
 942 16 942 16 929 8 c 128,-1,12
 916 0 916 0 845 0 c 2,13,-1
 160 -1 l 1,14,15
 88 0 88 0 63 8 c 0,16,17
 51 11 51 11 51 21 c 0,18,19
 51 32 51 32 67 51 c 2,20,-1
 699 861 l 1,21,-1
 347 861 l 2,22,23
 295 861 295 861 263 828 c 128,-1,24
 231 795 231 795 189 736 c 1,25,26
 164 703 164 703 157 703 c 0,27,28
 138 703 138 703 138 720 c 2,29,-1
 138 879 l 2,30,31
 138 924 138 924 154 934.5 c 128,-1,32
 170 945 170 945 236 945 c 2,33,-1
 858 945 l 2,34,35
 947 945 947 945 947 913 c 0,36,37
 947 899 947 899 932 880 c 2,0,-1
EndSplineSet
Validated: 1
EndChar

StartChar: braceleft
Encoding: 123 123 94
Width: 1024
Flags: W
LayerCount: 2
Fore
SplineSet
158 613 m 0,0,1
 142 614 142 614 136 624 c 1,2,3
 130 631 130 631 130 643 c 0,4,5
 130 647 130 647 131 652 c 0,6,7
 134 670 134 670 158 673 c 0,8,9
 310 686 310 686 366 746 c 0,10,11
 399 782 399 782 409.5 843 c 128,-1,12
 420 904 420 904 420 961 c 2,13,-1
 420 1173 l 2,14,15
 420 1245 420 1245 434.5 1321.5 c 128,-1,16
 449 1398 449 1398 496 1443 c 0,17,18
 570 1516 570 1516 774 1516 c 0,19,20
 794 1516 794 1516 802 1507 c 1,21,22
 812 1492 812 1492 812 1482 c 0,23,24
 812 1466 812 1466 782 1466 c 0,25,26
 649 1464 649 1464 602 1411 c 1,27,28
 571 1378 571 1378 562.5 1317.5 c 128,-1,29
 554 1257 554 1257 554 1204 c 2,30,-1
 554 1061 l 2,31,32
 554 984 554 984 543.5 895.5 c 128,-1,33
 533 807 533 807 497 755 c 0,34,35
 440 673 440 673 286 642 c 1,36,37
 439 611 439 611 497 529 c 0,38,39
 533 477 533 477 543.5 389 c 128,-1,40
 554 301 554 301 554 223 c 2,41,-1
 554 80 l 2,42,43
 554 -73 554 -73 602 -126 c 0,44,45
 650 -178 650 -178 782 -180 c 0,46,47
 798 -180 798 -180 804 -195 c 0,48,49
 806 -201 806 -201 806 -207 c 0,50,51
 806 -215 806 -215 800 -223 c 0,52,53
 793 -231 793 -231 774 -231 c 0,54,55
 572 -231 572 -231 496 -158 c 0,56,57
 449 -113 449 -113 434.5 -37 c 128,-1,58
 420 39 420 39 420 112 c 2,59,-1
 420 323 l 2,60,61
 420 380 420 380 409 441.5 c 128,-1,62
 398 503 398 503 365 541 c 1,63,64
 330 577 330 577 271.5 593 c 128,-1,65
 213 609 213 609 158 613 c 0,0,1
EndSplineSet
Validated: 1
EndChar

StartChar: bar
Encoding: 124 124 95
Width: 1024
Flags: W
LayerCount: 2
Fore
SplineSet
450 1490 m 1,0,-1
 591 1490 l 1,1,-1
 591 -227 l 1,2,-1
 450 -227 l 1,3,-1
 450 1490 l 1,0,-1
EndSplineSet
Validated: 1
EndChar

StartChar: braceright
Encoding: 125 125 96
Width: 1024
Flags: W
LayerCount: 2
Fore
SplineSet
779 613 m 0,0,1
 723 609 723 609 664 593 c 128,-1,2
 605 577 605 577 571 541 c 1,3,4
 537 503 537 503 526.5 441.5 c 128,-1,5
 516 380 516 380 516 323 c 2,6,-1
 516 112 l 2,7,8
 516 39 516 39 501 -37 c 128,-1,9
 486 -113 486 -113 441 -158 c 1,10,11
 363 -231 363 -231 162 -231 c 0,12,13
 143 -231 143 -231 136 -223 c 256,14,15
 129 -215 129 -215 129 -206 c 0,16,17
 129 -201 129 -201 131 -195 c 0,18,19
 137 -180 137 -180 154 -180 c 0,20,21
 287 -178 287 -178 335 -126 c 0,22,23
 383 -73 383 -73 383 80 c 2,24,-1
 383 223 l 2,25,26
 383 301 383 301 393.5 389 c 128,-1,27
 404 477 404 477 440 529 c 0,28,29
 497 612 497 612 651 642 c 1,30,31
 496 673 496 673 440 755 c 1,32,33
 403 807 403 807 393 895.5 c 128,-1,34
 383 984 383 984 383 1061 c 2,35,-1
 383 1204 l 2,36,37
 383 1257 383 1257 373.5 1317.5 c 128,-1,38
 364 1378 364 1378 334 1411 c 0,39,40
 286 1464 286 1464 154 1466 c 0,41,42
 124 1466 124 1466 124 1482 c 0,43,44
 124 1492 124 1492 135 1507 c 0,45,46
 141 1516 141 1516 162 1516 c 0,47,48
 365 1516 365 1516 441 1443 c 0,49,50
 487 1398 487 1398 501.5 1321.5 c 128,-1,51
 516 1245 516 1245 516 1173 c 2,52,-1
 516 961 l 2,53,54
 516 904 516 904 526.5 843 c 128,-1,55
 537 782 537 782 570 746 c 0,56,57
 624 686 624 686 779 673 c 1,58,59
 802 670 802 670 806 652 c 1,60,-1
 806 643 l 2,61,62
 806 631 806 631 800 624 c 0,63,64
 793 614 793 614 779 613 c 0,0,1
EndSplineSet
Validated: 1
EndChar

StartChar: asciitilde
Encoding: 126 126 97
Width: 1024
Flags: W
LayerCount: 2
Fore
SplineSet
963 729 m 0,0,1
 902 616 902 616 847 565 c 0,2,3
 787 510 787 510 722 510 c 0,4,5
 609 510 609 510 474 594 c 0,6,7
 399 640 399 640 332 640 c 0,8,9
 280 640 280 640 233 611 c 0,10,11
 221 603 221 603 204 592.5 c 128,-1,12
 187 582 187 582 167 564 c 0,13,14
 132 531 132 531 106 491 c 0,15,16
 99 481 99 481 89 481 c 0,17,18
 81 481 81 481 71 487 c 0,19,20
 58 494 58 494 58 506 c 0,21,22
 58 516 58 516 66 529 c 0,23,24
 113 601 113 601 161.5 677 c 128,-1,25
 210 753 210 753 312 753 c 0,26,27
 438 753 438 753 567 666 c 0,28,29
 636 619 636 619 704 619 c 0,30,31
 763 619 763 619 821 654 c 1,32,33
 876 686 876 686 917 761 c 0,34,35
 924 773 924 773 938 773 c 0,36,37
 941 773 941 773 944 772 c 0,38,39
 963 769 963 769 966 751 c 0,40,41
 967 748 967 748 967 745 c 0,42,43
 967 738 967 738 963 729 c 0,0,1
EndSplineSet
Validated: 1
EndChar

StartChar: exclamdown
Encoding: 161 161 98
Width: 569
Flags: W
LayerCount: 2
Fore
SplineSet
294 518 m 1,0,-1
 364 -436 l 1,1,-1
 364 -444 l 2,2,3
 364 -509 364 -509 290 -509 c 2,4,-1
 227 -509 l 2,5,6
 154 -509 154 -509 154 -446 c 2,7,-1
 154 -436 l 1,8,-1
 224 518 l 1,9,10
 224 543 224 543 248 543 c 2,11,-1
 269 543 l 2,12,13
 294 543 294 543 294 518 c 1,0,-1
259 664 m 256,14,15
 149 664 149 664 149 751 c 2,16,-1
 149 833 l 2,17,18
 149 920 149 920 259 920 c 256,19,20
 369 920 369 920 369 833 c 2,21,-1
 369 751 l 2,22,23
 369 664 369 664 259 664 c 256,14,15
EndSplineSet
Validated: 1
EndChar

StartChar: cent
Encoding: 162 162 99
Width: 1024
Flags: W
LayerCount: 2
Fore
SplineSet
622 956 m 1,0,-1
 626 956 l 2,1,2
 790 956 790 956 926 868 c 1,3,-1
 909 700 l 2,4,5
 907 687 907 687 896 687 c 2,6,-1
 893 687 l 1,7,8
 883 688 883 688 875 707 c 0,9,10
 835 792 835 792 770 833 c 1,11,12
 712 867 712 867 622 871 c 1,13,-1
 622 73 l 1,14,15
 635 72 635 72 648 72 c 0,16,17
 737 72 737 72 847 131 c 0,18,19
 905 163 905 163 925 163 c 0,20,21
 930 163 930 163 932 161 c 0,22,23
 935 157 935 157 935 151 c 0,24,25
 935 138 935 138 922 114 c 0,26,27
 906 83 906 83 888 67 c 0,28,29
 837 21 837 21 764.5 1 c 128,-1,30
 692 -19 692 -19 622 -22 c 1,31,-1
 622 -212 l 1,32,-1
 538 -212 l 1,33,-1
 538 -20 l 1,34,35
 372 -5 372 -5 261 96 c 128,-1,36
 150 197 150 197 134 374 c 0,37,38
 130 418 130 418 130 460 c 0,39,40
 130 514 130 514 137 564 c 0,41,42
 150 652 150 652 205 740 c 0,43,44
 315 915 315 915 538 949 c 1,45,-1
 538 1115 l 1,46,-1
 622 1115 l 1,47,-1
 622 956 l 1,0,-1
538 863 m 1,48,49
 464 848 464 848 421 807 c 0,50,51
 367 754 367 754 343 683 c 1,52,53
 317 610 317 610 317 519 c 0,54,55
 317 490 317 490 320 459 c 0,56,57
 330 311 330 311 401 216 c 0,58,59
 463 132 463 132 538 96 c 1,60,-1
 538 863 l 1,48,49
EndSplineSet
Validated: 1
EndChar

StartChar: sterling
Encoding: 163 163 100
Width: 1024
Flags: W
LayerCount: 2
Fore
SplineSet
72 108 m 0,0,1
 72 29 72 29 135 29 c 0,2,3
 191 29 191 29 213.5 74.5 c 128,-1,4
 236 120 236 120 250 164 c 1,5,6
 213 201 213 201 174 201 c 0,7,8
 72 201 72 201 72 108 c 0,0,1
64 784 m 2,9,-1
 240 784 l 1,10,11
 232 862 232 862 232 928 c 0,12,13
 232 985 232 985 238 1033 c 0,14,15
 251 1152 251 1152 295 1238 c 0,16,17
 402 1443 402 1443 638 1443 c 0,18,19
 708 1443 708 1443 774 1408 c 128,-1,20
 840 1373 840 1373 873 1308 c 1,21,22
 888 1276 888 1276 891 1237 c 1,23,-1
 891 1230 l 2,24,25
 891 1195 891 1195 866 1170 c 0,26,27
 839 1143 839 1143 811 1143 c 0,28,29
 786 1143 786 1143 759 1165 c 1,30,31
 733 1184 733 1184 727 1228.5 c 128,-1,32
 721 1273 721 1273 717 1302 c 1,33,34
 705 1371 705 1371 627 1383 c 0,35,36
 609 1385 609 1385 593 1385 c 0,37,38
 538 1385 538 1385 503 1355 c 0,39,40
 440 1301 440 1301 423.5 1229 c 128,-1,41
 407 1157 407 1157 407 1079 c 0,42,43
 407 1004 407 1004 413.5 930.5 c 128,-1,44
 420 857 420 857 426 784 c 1,45,-1
 687 784 l 2,46,47
 702 784 702 784 702 769 c 2,48,-1
 702 699 l 2,49,50
 702 684 702 684 687 684 c 2,51,-1
 432 684 l 1,52,53
 434 650 434 650 434 615 c 256,54,55
 434 580 434 580 432 545 c 0,56,57
 426 463 426 463 407 389 c 128,-1,58
 388 315 388 315 372 237 c 1,59,60
 426 218 426 218 480 199.5 c 128,-1,61
 534 181 534 181 590 167 c 0,62,63
 651 152 651 152 703 152 c 0,64,65
 745 152 745 152 782 162 c 0,66,67
 858 183 858 183 902 249 c 0,68,69
 916 270 916 270 919 292 c 128,-1,70
 922 314 922 314 950 314 c 0,71,72
 970 314 970 314 970 291 c 0,73,74
 970 258 970 258 958.5 228.5 c 128,-1,75
 947 199 947 199 936 170 c 0,76,77
 899 75 899 75 818 17 c 1,78,79
 746 -31 746 -31 667 -31 c 0,80,81
 656 -31 656 -31 646 -30 c 0,82,83
 555 -23 555 -23 478 29 c 0,84,85
 459 42 459 42 404.5 76.5 c 128,-1,86
 350 111 350 111 329 129 c 1,87,88
 273 43 273 43 205 -10 c 1,89,90
 175 -32 175 -32 140 -32 c 0,91,92
 120 -32 120 -32 99 -25 c 0,93,94
 40 -5 40 -5 18 45 c 0,95,96
 9 65 9 65 9 90 c 0,97,98
 9 114 9 114 18 143 c 0,99,100
 35 201 35 201 68 228 c 0,101,102
 116 266 116 266 157 266 c 2,103,-1
 163 266 l 1,104,105
 205 263 205 263 262 259 c 1,106,107
 268 309 268 309 268 357 c 2,108,-1
 268 387 l 1,109,110
 265 449 265 449 263 511 c 1,111,112
 259 585 259 585 249 684 c 1,113,-1
 64 684 l 2,114,115
 49 684 49 684 49 699 c 2,116,-1
 49 769 l 2,117,118
 49 784 49 784 64 784 c 2,9,-1
EndSplineSet
Validated: 1
EndChar

StartChar: currency
Encoding: 164 164 101
Width: 1024
Flags: W
LayerCount: 2
Fore
SplineSet
513 732 m 0,0,1
 406 732 406 732 331 656.5 c 128,-1,2
 256 581 256 581 256 475 c 256,3,4
 256 369 256 369 331 294 c 128,-1,5
 406 219 406 219 513 219 c 0,6,7
 618 219 618 219 693.5 294 c 128,-1,8
 769 369 769 369 769 475 c 256,9,10
 769 581 769 581 693.5 656.5 c 128,-1,11
 618 732 618 732 513 732 c 0,0,1
513 822 m 256,12,13
 629 822 629 822 723 751 c 1,14,-1
 867 895 l 2,15,16
 873 901 873 901 878 901 c 256,17,18
 883 901 883 901 887 896 c 2,19,-1
 934 850 l 2,20,21
 938 845 938 845 938 840 c 256,22,23
 938 835 938 835 933 830 c 2,24,-1
 788 685 l 1,25,26
 859 593 859 593 859 476 c 0,27,28
 859 358 859 358 788 267 c 1,29,-1
 933 123 l 2,30,31
 938 117 938 117 938 112 c 256,32,33
 938 107 938 107 934 102 c 2,34,-1
 887 56 l 2,35,36
 882 51 882 51 877 51 c 256,37,38
 872 51 872 51 867 57 c 2,39,-1
 723 201 l 1,40,41
 630 131 630 131 513 131 c 256,42,43
 396 131 396 131 304 201 c 1,44,-1
 160 57 l 2,45,46
 154 51 154 51 149 51 c 256,47,48
 144 51 144 51 139 56 c 2,49,-1
 93 102 l 2,50,51
 88 107 88 107 88 112 c 256,52,53
 88 117 88 117 94 123 c 2,54,-1
 238 267 l 1,55,56
 168 359 168 359 168 476 c 0,57,58
 168 592 168 592 238 685 c 1,59,-1
 94 830 l 2,60,61
 88 835 88 835 88 840 c 256,62,63
 88 845 88 845 93 850 c 2,64,-1
 139 896 l 2,65,66
 144 901 144 901 149 901 c 256,67,68
 154 901 154 901 160 895 c 2,69,-1
 304 751 l 1,70,71
 397 822 397 822 513 822 c 256,12,13
EndSplineSet
Validated: 1
EndChar

StartChar: yen
Encoding: 165 165 102
Width: 1366
Flags: W
LayerCount: 2
Fore
SplineSet
562 721 m 1,0,-1
 240 1258 l 1,1,2
 217 1292 217 1292 163 1325 c 1,3,4
 135 1340 135 1340 109.5 1349.5 c 128,-1,5
 84 1359 84 1359 68 1369 c 0,6,7
 57 1375 57 1375 51 1383 c 0,8,9
 47 1389 47 1389 47 1394 c 2,10,-1
 47 1398 l 1,11,12
 48 1404 48 1404 57 1404 c 2,13,-1
 396 1404 l 2,14,15
 406 1404 406 1404 415 1398 c 0,16,17
 426 1391 426 1391 432 1383 c 0,18,19
 435 1378 435 1378 435 1373 c 0,20,21
 435 1366 435 1366 428 1358 c 0,22,23
 421 1349 421 1349 411 1338.5 c 128,-1,24
 401 1328 401 1328 400 1313 c 1,25,-1
 400 1308 l 2,26,27
 400 1286 400 1286 416 1263 c 1,28,-1
 753 729 l 1,29,30
 818 818 818 818 886 924.5 c 128,-1,31
 954 1031 954 1031 1012 1124 c 0,32,33
 1040 1169 1040 1169 1046 1201 c 1,34,-1
 1046 1211 l 2,35,36
 1046 1241 1046 1241 1023 1288 c 2,37,-1
 989 1356 l 1,38,-1
 1132 1418 l 2,39,40
 1139 1421 1139 1421 1145 1421 c 0,41,42
 1158 1421 1158 1421 1169 1405 c 1,43,-1
 1229 1304 l 2,44,45
 1240 1285 1240 1285 1240 1265 c 0,46,47
 1240 1231 1240 1231 1208 1196 c 0,48,49
 1156 1139 1156 1139 1093 1054 c 0,50,51
 1038 980 1038 980 981 893 c 128,-1,52
 924 806 924 806 866 721 c 1,53,-1
 1139 721 l 1,54,-1
 1139 642 l 1,55,-1
 816 642 l 1,56,57
 805 614 805 614 801.5 575 c 128,-1,58
 798 536 798 536 798 500 c 1,59,-1
 1139 500 l 1,60,-1
 1139 421 l 1,61,-1
 798 421 l 1,62,-1
 798 146 l 2,63,64
 798 81 798 81 848 63.5 c 128,-1,65
 898 46 898 46 898 21 c 0,66,67
 898 0 898 0 877 0 c 2,68,-1
 538 0 l 2,69,70
 517 0 517 0 517 21 c 0,71,72
 517 46 517 46 567 63.5 c 128,-1,73
 617 81 617 81 617 146 c 0,74,75
 617 324 617 324 617.5 336.5 c 128,-1,76
 618 349 618 349 618 421 c 1,77,-1
 315 421 l 1,78,-1
 315 500 l 1,79,-1
 618 500 l 1,80,81
 618 515 618 515 617.5 533.5 c 128,-1,82
 617 552 617 552 617 573 c 0,83,84
 617 620 617 620 608 642 c 1,85,-1
 315 642 l 1,86,-1
 315 721 l 1,87,-1
 562 721 l 1,0,-1
EndSplineSet
Validated: 1
EndChar

StartChar: brokenbar
Encoding: 166 166 103
Width: 1024
Flags: W
LayerCount: 2
Fore
SplineSet
340 1490 m 1,0,-1
 472 1490 l 1,1,-1
 472 813 l 1,2,-1
 340 813 l 1,3,-1
 340 1490 l 1,0,-1
340 -223 m 1,4,-1
 340 453 l 1,5,-1
 472 453 l 1,6,-1
 472 -223 l 1,7,-1
 340 -223 l 1,4,-1
EndSplineSet
Validated: 1
EndChar

StartChar: section
Encoding: 167 167 104
Width: 1024
Flags: W
LayerCount: 2
Fore
SplineSet
499 -365 m 0,0,1
 574 -359 574 -359 643 -325 c 128,-1,2
 712 -291 712 -291 754 -224 c 0,3,4
 797 -154 797 -154 797 -58 c 2,5,-1
 797 -47 l 1,6,7
 794 56 794 56 718 111 c 0,8,9
 682 137 682 137 632 152 c 1,10,11
 534 179 534 179 432.5 190 c 128,-1,12
 331 201 331 201 239 246 c 0,13,14
 157 285 157 285 116.5 360 c 128,-1,15
 76 435 76 435 76 524 c 0,16,17
 76 692 76 692 190 802 c 1,18,19
 76 889 76 889 76 1051 c 0,20,21
 76 1224 76 1224 196 1335 c 0,22,23
 321 1450 321 1450 508 1450 c 0,24,25
 522 1450 522 1450 536 1449 c 0,26,27
 742 1440 742 1440 887 1347 c 1,28,-1
 864 1153 l 2,29,30
 862 1135 862 1135 849 1135 c 0,31,32
 846 1135 846 1135 843 1136 c 0,33,34
 830 1137 830 1137 820 1162 c 1,35,36
 781 1245 781 1245 704.5 1303.5 c 128,-1,37
 628 1362 628 1362 541 1366 c 1,38,-1
 526 1366 l 2,39,40
 441 1366 441 1366 375 1335 c 0,41,42
 333 1315 333 1315 305 1286 c 0,43,44
 280 1261 280 1261 263 1222 c 1,45,46
 247 1188 247 1188 240 1152 c 0,47,48
 234 1122 234 1122 234 1094 c 0,49,50
 234 1059 234 1059 244 1029 c 0,51,52
 263 967 263 967 311 933 c 1,53,54
 343 908 343 908 389 896 c 0,55,56
 413 890 413 890 446 884.5 c 128,-1,57
 479 879 479 879 515 873 c 0,58,59
 567 864 567 864 626 855 c 128,-1,60
 685 846 685 846 740 830 c 1,61,62
 834 799 834 799 878 751 c 0,63,64
 911 716 911 716 933 668 c 1,65,66
 958 607 958 607 958 534 c 0,67,68
 958 371 958 371 848 252 c 1,69,70
 864 240 864 240 878 225 c 0,71,72
 912 187 912 187 933 141 c 1,73,74
 958 80 958 80 958 7 c 0,75,76
 958 -188 958 -188 797 -321 c 1,77,78
 715 -387 715 -387 613 -422 c 1,79,80
 537 -447 537 -447 440 -453 c 0,81,82
 421 -454 421 -454 402 -454 c 0,83,84
 272 -454 272 -454 153 -417 c 1,85,-1
 66 -172 l 2,86,87
 64 -167 64 -167 64 -163 c 0,88,89
 64 -153 64 -153 71 -144 c 1,90,91
 77 -133 77 -133 87 -133 c 2,92,-1
 90 -133 l 1,93,94
 100 -134 100 -134 113 -159 c 1,95,96
 173 -287 173 -287 263 -330 c 1,97,98
 337 -367 337 -367 450 -367 c 0,99,100
 474 -367 474 -367 499 -365 c 0,0,1
752 299 m 1,101,-1
 754 301 l 1,102,103
 797 370 797 370 797 468 c 2,104,-1
 797 479 l 1,105,106
 794 583 794 583 718 638 c 0,107,108
 679 665 679 665 632 679 c 1,109,110
 549 701 549 701 463 711.5 c 128,-1,111
 377 722 377 722 296 749 c 1,112,113
 276 727 276 727 263 696 c 1,114,115
 247 663 247 663 240 625 c 0,116,117
 234 595 234 595 234 567 c 0,118,119
 234 532 234 532 244 502 c 0,120,121
 264 439 264 439 311 407 c 1,122,123
 342 381 342 381 389 370 c 0,124,125
 425 361 425 361 515 346 c 0,126,127
 567 337 567 337 626 328 c 128,-1,128
 685 319 685 319 740 303 c 0,129,130
 743 302 743 302 746 300.5 c 128,-1,131
 749 299 749 299 752 299 c 1,101,-1
EndSplineSet
Validated: 1
EndChar

StartChar: dieresis
Encoding: 168 168 105
Width: 682
Flags: W
LayerCount: 2
Fore
SplineSet
554 1165 m 0,0,1
 507 1165 507 1165 477 1197 c 1,2,3
 445 1227 445 1227 445 1274 c 0,4,5
 445 1383 445 1383 554 1383 c 0,6,7
 601 1383 601 1383 632 1352 c 0,8,9
 664 1320 664 1320 664 1274 c 0,10,11
 664 1229 664 1229 632 1197 c 256,12,13
 600 1165 600 1165 554 1165 c 0,0,1
130 1165 m 0,14,15
 84 1165 84 1165 52 1197 c 0,16,17
 14 1235 14 1235 14 1274 c 0,18,19
 14 1312 14 1312 52 1351 c 0,20,21
 84 1383 84 1383 130 1383 c 256,22,23
 176 1383 176 1383 207 1352 c 0,24,25
 239 1321 239 1321 239 1274 c 0,26,27
 239 1229 239 1229 207 1197 c 256,28,29
 175 1165 175 1165 130 1165 c 0,14,15
EndSplineSet
Validated: 1
EndChar

StartChar: copyright
Encoding: 169 169 106
Width: 1532
Flags: W
LayerCount: 2
Fore
SplineSet
767 1452 m 256,0,1
 1076 1452 1076 1452 1295 1234 c 128,-1,2
 1514 1016 1514 1016 1514 708 c 0,3,4
 1514 399 1514 399 1295 181.5 c 128,-1,5
 1076 -36 1076 -36 767 -36 c 256,6,7
 458 -36 458 -36 239 181.5 c 128,-1,8
 20 399 20 399 20 708 c 0,9,10
 20 1016 20 1016 239 1234 c 128,-1,11
 458 1452 458 1452 767 1452 c 256,0,1
767 1372 m 256,12,13
 491 1372 491 1372 296 1177.5 c 128,-1,14
 101 983 101 983 101 708 c 0,15,16
 101 432 101 432 296 238 c 128,-1,17
 491 44 491 44 767 44 c 256,18,19
 1043 44 1043 44 1238.5 238 c 128,-1,20
 1434 432 1434 432 1434 708 c 0,21,22
 1434 983 1434 983 1238.5 1177.5 c 128,-1,23
 1043 1372 1043 1372 767 1372 c 256,12,13
830 1128 m 1,24,-1
 844 1128 l 2,25,26
 986 1128 986 1128 1105 1053 c 1,27,-1
 1090 909 l 1,28,29
 1090 898 1090 898 1079 898 c 2,30,-1
 1076 898 l 2,31,32
 1069 898 1069 898 1061 915 c 0,33,34
 1027 988 1027 988 971 1023 c 1,35,36
 917 1055 917 1055 837 1055 c 2,37,-1
 817 1055 l 1,38,39
 723 1050 723 1050 672 1001 c 0,40,41
 628 959 628 959 605 894 c 0,42,43
 583 831 583 831 583 753 c 0,44,45
 583 728 583 728 585 702 c 0,46,47
 594 574 594 574 654 493 c 1,48,49
 735 386 735 386 833 372 c 0,50,51
 849 369 849 369 867 369 c 0,52,53
 943 369 943 369 1037 420 c 0,54,55
 1087 448 1087 448 1104 448 c 0,56,57
 1108 448 1108 448 1110 446 c 0,58,59
 1113 443 1113 443 1113 438 c 0,60,61
 1113 426 1113 426 1101 406 c 1,62,63
 1088 379 1088 379 1073 366 c 0,64,65
 1023 321 1023 321 953 304 c 0,66,67
 886 288 886 288 824 288 c 2,68,-1
 817 288 l 2,69,70
 657 288 657 288 548.5 376.5 c 128,-1,71
 440 465 440 465 425 629 c 0,72,73
 421 668 421 668 421 705 c 0,74,75
 421 750 421 750 427 792 c 0,76,77
 438 867 438 867 486 943 c 0,78,79
 597 1120 597 1120 830 1128 c 1,24,-1
EndSplineSet
Validated: 1
EndChar

StartChar: ordfeminine
Encoding: 170 170 107
Width: 686
Flags: W
LayerCount: 2
Fore
SplineSet
486 900 m 1,0,-1
 322 838 l 2,1,2
 302 831 302 831 291 831 c 0,3,4
 275 831 275 831 266 832 c 0,5,6
 180 835 180 835 120 901 c 1,7,8
 59 966 59 966 50 1061 c 0,9,10
 48 1084 48 1084 48 1106 c 0,11,12
 48 1203 48 1203 91 1271 c 0,13,14
 108 1298 108 1298 144 1326 c 0,15,16
 156 1336 156 1336 174 1342 c 0,17,18
 222 1360 222 1360 270 1378 c 128,-1,19
 318 1396 318 1396 366 1414 c 0,20,21
 376 1418 376 1418 388 1418 c 0,22,23
 428 1415 428 1415 481 1398 c 0,24,25
 492 1394 492 1394 513 1385 c 0,26,27
 522 1381 522 1381 529 1381 c 0,28,29
 538 1381 538 1381 545 1387 c 0,30,31
 568 1409 568 1409 579 1409 c 0,32,33
 581 1409 581 1409 582 1408 c 0,34,35
 594 1402 594 1402 594 1396 c 0,36,37
 594 1360 594 1360 591 1335 c 128,-1,38
 588 1310 588 1310 587 1274 c 0,39,40
 586 1256 586 1256 586 1210 c 2,41,-1
 587 926 l 2,42,43
 587 890 587 890 616 881 c 128,-1,44
 645 872 645 872 645 858 c 0,45,46
 645 846 645 846 633 846 c 2,47,-1
 497 847 l 2,48,49
 488 847 488 847 488 854 c 2,50,-1
 486 900 l 1,0,-1
76 731 m 2,51,-1
 617 731 l 2,52,53
 628 731 628 731 628 720 c 2,54,-1
 628 667 l 2,55,56
 628 655 628 655 617 655 c 2,57,-1
 76 655 l 2,58,59
 64 655 64 655 64 667 c 2,60,-1
 64 720 l 2,61,62
 64 731 64 731 76 731 c 2,51,-1
365 893 m 0,63,64
 380 894 380 894 396 900 c 0,65,66
 438 916 438 916 487 934 c 1,67,-1
 486 1306 l 1,68,69
 422 1365 422 1365 351 1369 c 0,70,71
 337 1369 337 1369 325 1364 c 0,72,73
 303 1356 303 1356 281.5 1348 c 128,-1,74
 260 1340 260 1340 239 1332 c 0,75,76
 226 1327 226 1327 215 1317 c 1,77,78
 178 1278 178 1278 165 1221 c 0,79,80
 156 1180 156 1180 156 1140 c 0,81,82
 156 1125 156 1125 157 1110 c 0,83,84
 163 1026 163 1026 203 970 c 1,85,86
 244 915 244 915 304 898 c 0,87,88
 326 892 326 892 348 892 c 0,89,90
 357 892 357 892 365 893 c 0,63,64
EndSplineSet
Validated: 1
EndChar

StartChar: guillemotleft
Encoding: 171 171 108
Width: 1024
Flags: W
LayerCount: 2
Fore
SplineSet
103 616 m 0,0,1
 97 621 97 621 97 627 c 256,2,3
 97 633 97 633 103 640 c 0,4,5
 163 712 163 712 270 811 c 128,-1,6
 377 910 377 910 452 988 c 0,7,8
 455 991 455 991 459 991 c 0,9,10
 461 991 461 991 464 990 c 2,11,-1
 501 964 l 1,12,13
 504 960 504 960 504 957 c 0,14,15
 504 955 504 955 503 953 c 2,16,-1
 248 629 l 1,17,-1
 504 302 l 2,18,19
 506 300 506 300 506 297 c 256,20,21
 506 294 506 294 501 291 c 2,22,-1
 464 265 l 2,23,24
 461 263 461 263 459 263 c 0,25,26
 455 263 455 263 452 267 c 0,27,28
 366 351 366 351 277 439 c 128,-1,29
 188 527 188 527 103 616 c 0,0,1
524 616 m 0,30,31
 519 620 519 620 519 626 c 256,32,33
 519 632 519 632 524 640 c 1,34,35
 584 712 584 712 691 811 c 128,-1,36
 798 910 798 910 873 988 c 0,37,38
 877 992 877 992 880 992 c 256,39,40
 883 992 883 992 885 990 c 2,41,-1
 922 964 l 2,42,43
 926 960 926 960 926 957 c 0,44,45
 926 955 926 955 924 953 c 2,46,-1
 670 629 l 1,47,-1
 926 302 l 2,48,49
 927 300 927 300 927 299 c 0,50,51
 927 294 927 294 922 291 c 2,52,-1
 885 265 l 2,53,54
 883 263 883 263 880 263 c 256,55,56
 877 263 877 263 873 267 c 0,57,58
 788 351 788 351 698.5 439 c 128,-1,59
 609 527 609 527 524 616 c 0,30,31
EndSplineSet
Validated: 1
EndChar

StartChar: logicalnot
Encoding: 172 172 109
Width: 1024
Flags: W
LayerCount: 2
Fore
SplineSet
998 341 m 1,0,-1
 881 341 l 1,1,-1
 881 775 l 1,2,-1
 30 775 l 1,3,-1
 30 887 l 1,4,-1
 998 887 l 1,5,-1
 998 341 l 1,0,-1
EndSplineSet
Validated: 1
EndChar

StartChar: uni00AD
Encoding: 173 173 110
Width: 670
Flags: W
LayerCount: 2
Fore
SplineSet
156 409 m 2,0,1
 116 409 116 409 116 437 c 2,2,-1
 116 520 l 2,3,4
 116 549 116 549 157 549 c 2,5,-1
 513 549 l 2,6,7
 554 549 554 549 554 520 c 2,8,-1
 554 437 l 2,9,10
 554 409 554 409 514 409 c 2,11,-1
 156 409 l 2,0,1
EndSplineSet
Validated: 1
EndChar

StartChar: registered
Encoding: 174 174 111
Width: 1530
Flags: W
LayerCount: 2
Fore
SplineSet
844 688 m 1,0,-1
 1111 338 l 1,1,2
 1128 324 1128 324 1154 322 c 1,3,4
 1171 319 1171 319 1171 308 c 2,5,-1
 1171 307 l 1,6,7
 1170 295 1170 295 1159 295 c 2,8,-1
 1002 295 l 2,9,10
 991 295 991 295 881 450.5 c 128,-1,11
 771 606 771 606 707 688 c 1,12,-1
 613 688 l 1,13,-1
 613 381 l 2,14,15
 613 343 613 343 642.5 332.5 c 128,-1,16
 672 322 672 322 672 308 c 0,17,18
 672 295 672 295 659 295 c 2,19,-1
 460 295 l 2,20,21
 448 295 448 295 448 308 c 0,22,23
 448 322 448 322 477.5 332.5 c 128,-1,24
 507 343 507 343 507 381 c 2,25,-1
 507 1034 l 2,26,27
 507 1072 507 1072 477.5 1082.5 c 128,-1,28
 448 1093 448 1093 448 1108 c 0,29,30
 448 1120 448 1120 460 1120 c 2,31,-1
 807 1121 l 2,32,33
 868 1121 868 1121 933.5 1099.5 c 128,-1,34
 999 1078 999 1078 1035 1016 c 0,35,36
 1062 968 1062 968 1064 896 c 1,37,38
 1062 829 1062 829 1025 777 c 0,39,40
 996 735 996 735 943.5 713 c 128,-1,41
 891 691 891 691 844 688 c 1,0,-1
767 1452 m 256,42,43
 1076 1452 1076 1452 1295 1234 c 128,-1,44
 1514 1016 1514 1016 1514 708 c 0,45,46
 1514 399 1514 399 1295 181.5 c 128,-1,47
 1076 -36 1076 -36 767 -36 c 256,48,49
 458 -36 458 -36 239 181.5 c 128,-1,50
 20 399 20 399 20 708 c 0,51,52
 20 1016 20 1016 239 1234 c 128,-1,53
 458 1452 458 1452 767 1452 c 256,42,43
613 1072 m 1,54,-1
 613 729 l 1,55,-1
 749 729 l 2,56,57
 848 729 848 729 903 782 c 0,58,59
 950 827 950 827 950 902 c 0,60,61
 950 974 950 974 901 1022 c 0,62,63
 849 1072 849 1072 761 1072 c 2,64,-1
 613 1072 l 1,54,-1
767 1372 m 256,65,66
 491 1372 491 1372 296 1177.5 c 128,-1,67
 101 983 101 983 101 708 c 0,68,69
 101 432 101 432 296 238 c 128,-1,70
 491 44 491 44 767 44 c 256,71,72
 1043 44 1043 44 1238.5 238 c 128,-1,73
 1434 432 1434 432 1434 708 c 0,74,75
 1434 983 1434 983 1238.5 1177.5 c 128,-1,76
 1043 1372 1043 1372 767 1372 c 256,65,66
EndSplineSet
Validated: 1
EndChar

StartChar: macron
Encoding: 175 175 112
Width: 680
Flags: W
LayerCount: 2
Fore
SplineSet
51 1347 m 2,0,-1
 650 1347 l 2,1,2
 661 1347 661 1347 661 1337 c 2,3,-1
 661 1251 l 2,4,5
 661 1240 661 1240 650 1240 c 2,6,-1
 51 1240 l 2,7,8
 40 1240 40 1240 40 1251 c 2,9,-1
 40 1337 l 2,10,11
 40 1347 40 1347 51 1347 c 2,0,-1
EndSplineSet
Validated: 1
EndChar

StartChar: degree
Encoding: 176 176 113
Width: 819
Flags: W
LayerCount: 2
Fore
SplineSet
406 1387 m 0,0,1
 534 1387 534 1387 624.5 1296.5 c 128,-1,2
 715 1206 715 1206 715 1078 c 256,3,4
 715 950 715 950 624.5 859.5 c 128,-1,5
 534 769 534 769 406 769 c 0,6,7
 277 769 277 769 187 859.5 c 128,-1,8
 97 950 97 950 97 1078 c 256,9,10
 97 1206 97 1206 187 1296.5 c 128,-1,11
 277 1387 277 1387 406 1387 c 0,0,1
406 1305 m 0,12,13
 312 1305 312 1305 246 1238 c 128,-1,14
 180 1171 180 1171 180 1078 c 0,15,16
 180 984 180 984 246 918 c 128,-1,17
 312 852 312 852 406 852 c 0,18,19
 499 852 499 852 565.5 918 c 128,-1,20
 632 984 632 984 632 1078 c 0,21,22
 632 1171 632 1171 565.5 1238 c 128,-1,23
 499 1305 499 1305 406 1305 c 0,12,13
EndSplineSet
Validated: 1
EndChar

StartChar: plusminus
Encoding: 177 177 114
Width: 1024
Flags: W
LayerCount: 2
Fore
SplineSet
200 806 m 2,0,-1
 479 806 l 1,1,-1
 479 1086 l 2,2,3
 479 1122 479 1122 506 1122 c 2,4,-1
 558 1122 l 2,5,6
 585 1122 585 1122 585 1086 c 2,7,-1
 585 806 l 1,8,-1
 864 806 l 2,9,10
 901 806 901 806 901 780 c 2,11,-1
 901 727 l 2,12,13
 901 701 901 701 864 701 c 2,14,-1
 585 701 l 1,15,-1
 585 422 l 2,16,17
 585 385 585 385 558 385 c 2,18,-1
 506 385 l 2,19,20
 479 385 479 385 479 422 c 2,21,-1
 479 701 l 1,22,-1
 200 701 l 2,23,24
 163 701 163 701 163 727 c 2,25,-1
 163 780 l 2,26,27
 163 806 163 806 200 806 c 2,0,-1
200 238 m 2,28,-1
 864 238 l 2,29,30
 901 238 901 238 901 211 c 2,31,-1
 901 159 l 2,32,33
 901 132 901 132 864 132 c 2,34,-1
 200 132 l 2,35,36
 163 132 163 132 163 159 c 2,37,-1
 163 211 l 2,38,39
 163 238 163 238 200 238 c 2,28,-1
EndSplineSet
Validated: 1
EndChar

StartChar: uni00B2
Encoding: 178 178 115
Width: 735
Flags: W
LayerCount: 2
Fore
SplineSet
108 451 m 1,0,-1
 108 502 l 2,1,2
 108 557 108 557 141 598 c 0,3,4
 174 640 174 640 246 718 c 1,5,6
 288 759 288 759 329.5 805.5 c 128,-1,7
 371 852 371 852 410 897 c 0,8,9
 463 959 463 959 491 1030 c 0,10,11
 510 1077 510 1077 510 1117 c 0,12,13
 510 1155 510 1155 493 1186 c 0,14,15
 459 1250 459 1250 394 1275 c 0,16,17
 357 1289 357 1289 316 1289 c 0,18,19
 286 1289 286 1289 253 1281 c 0,20,21
 176 1262 176 1262 127 1190 c 0,22,23
 107 1162 107 1162 102 1137 c 1,24,-1
 102 1230 l 1,25,26
 106 1245 106 1245 115 1261 c 0,27,28
 177 1363 177 1363 304 1383 c 0,29,30
 330 1387 330 1387 356 1387 c 0,31,32
 442 1387 442 1387 521 1343 c 1,33,34
 622 1285 622 1285 624 1153 c 1,35,-1
 624 1149 l 2,36,37
 624 972 624 972 465 833 c 0,38,39
 303 691 303 691 230 567 c 1,40,-1
 468 567 l 2,41,42
 555 567 555 567 627 594 c 1,43,-1
 627 478 l 1,44,45
 590 454 590 454 547.5 452.5 c 128,-1,46
 505 451 505 451 468 451 c 2,47,-1
 108 451 l 1,0,-1
EndSplineSet
Validated: 1
EndChar

StartChar: uni00B3
Encoding: 179 179 116
Width: 735
Flags: W
LayerCount: 2
Fore
SplineSet
473 483 m 0,0,1
 402 432 402 432 298 422 c 0,2,3
 281 420 281 420 266 420 c 0,4,5
 182 420 182 420 121 468 c 1,6,-1
 118 585 l 1,7,8
 156 513 156 513 250 490 c 0,9,10
 285 481 285 481 318 481 c 0,11,12
 371 481 371 481 416 504 c 0,13,14
 483 539 483 539 508 606 c 0,15,16
 521 642 521 642 521 678 c 0,17,18
 521 709 521 709 511 739 c 0,19,20
 490 805 490 805 424.5 854 c 128,-1,21
 359 903 359 903 247 905 c 1,22,-1
 246 924 l 1,23,24
 291 938 291 938 348.5 963.5 c 128,-1,25
 406 989 406 989 438 1043 c 0,26,27
 463 1085 463 1085 463 1127 c 0,28,29
 463 1140 463 1140 461 1153 c 0,30,31
 451 1208 451 1208 416 1245 c 0,32,33
 374 1288 374 1288 309 1295 c 1,34,-1
 295 1295 l 2,35,36
 237 1295 237 1295 180 1244 c 0,37,38
 147 1214 147 1214 137 1166 c 1,39,-1
 137 1278 l 1,40,41
 235 1384 235 1384 363 1384 c 1,42,43
 512 1382 512 1382 562 1264 c 0,44,45
 576 1229 576 1229 576 1196 c 0,46,47
 576 1112 576 1112 488 1030 c 0,48,49
 473 1015 473 1015 445 994 c 1,50,51
 540 947 540 947 582 874 c 0,52,53
 619 809 619 809 619 740 c 0,54,55
 619 730 619 730 618 720 c 0,56,57
 606 580 606 580 473 483 c 0,0,1
EndSplineSet
Validated: 1
EndChar

StartChar: acute
Encoding: 180 180 117
Width: 682
Flags: W
LayerCount: 2
Fore
SplineSet
210 1124 m 2,0,1
 167 1097 167 1097 141 1097 c 0,2,3
 138 1097 138 1097 135 1098 c 0,4,5
 126 1099 126 1099 126 1106 c 0,6,7
 126 1119 126 1119 162 1156 c 2,8,-1
 282 1280 l 2,9,10
 306 1305 306 1305 370.5 1372 c 128,-1,11
 435 1439 435 1439 459 1454 c 0,12,13
 479 1466 479 1466 500 1466 c 0,14,15
 517 1466 517 1466 535 1458 c 0,16,17
 574 1441 574 1441 574 1393 c 0,18,19
 574 1366 574 1366 553.5 1345 c 128,-1,20
 533 1324 533 1324 512 1311 c 2,21,-1
 210 1124 l 2,0,1
EndSplineSet
Validated: 1
EndChar

StartChar: uni00B5
Encoding: 181 181 118
Width: 1325
Flags: W
LayerCount: 2
Fore
SplineSet
890 752 m 2,0,1
 890 815 890 815 839 833 c 128,-1,2
 788 851 788 851 788 877 c 0,3,4
 788 898 788 898 809 898 c 0,5,6
 864 900 864 900 924 915 c 1,7,8
 993 930 993 930 1070 958 c 1,9,-1
 1070 142 l 2,10,11
 1070 77 1070 77 1121.5 61.5 c 128,-1,12
 1173 46 1173 46 1173 21 c 0,13,14
 1173 0 1173 0 1152 0 c 2,15,-1
 889 0 l 1,16,-1
 889 87 l 1,17,-1
 682 6 l 2,18,19
 622 -17 622 -17 563 -17 c 0,20,21
 547 -17 547 -17 531 -15 c 0,22,23
 456 -7 456 -7 400 24 c 0,24,25
 311 73 311 73 275 139 c 1,26,27
 275 85 275 85 280 22 c 2,28,-1
 327 -532 l 1,29,-1
 327 -534 l 2,30,31
 327 -553 327 -553 307 -553 c 2,32,-1
 215 -553 l 2,33,34
 195 -553 195 -553 195 -532 c 2,35,-1
 195 811 l 1,36,37
 171 835 171 835 142 847 c 128,-1,38
 113 859 113 859 113 877 c 0,39,40
 113 898 113 898 134 898 c 1,41,42
 193 901 193 901 250 916 c 1,43,44
 286 923 286 923 319 934.5 c 128,-1,45
 352 946 352 946 388 958 c 1,46,-1
 388 424 l 2,47,48
 388 246 388 246 468 149 c 0,49,50
 535 67 535 67 633 67 c 0,51,52
 684 67 684 67 744 89 c 2,53,-1
 890 143 l 1,54,-1
 890 752 l 2,0,1
EndSplineSet
Validated: 1
EndChar

StartChar: paragraph
Encoding: 182 182 119
Width: 1266
Flags: W
LayerCount: 2
Fore
SplineSet
677 1337 m 1,0,-1
 677 -234 l 1,1,-1
 937 -234 l 1,2,-1
 937 1337 l 1,3,-1
 677 1337 l 1,0,-1
529 797 m 1,4,5
 481 781 481 781 433 781 c 0,6,7
 309 781 309 781 222 872.5 c 128,-1,8
 135 964 135 964 135 1093 c 0,9,10
 135 1221 135 1221 222 1312 c 128,-1,11
 309 1403 309 1403 432 1404 c 1,12,-1
 1181 1404 l 2,13,14
 1207 1404 1207 1404 1207 1379 c 0,15,16
 1207 1348 1207 1348 1146 1326 c 128,-1,17
 1085 1304 1085 1304 1085 1226 c 2,18,-1
 1085 -122 l 2,19,20
 1085 -200 1085 -200 1146 -222 c 128,-1,21
 1207 -244 1207 -244 1207 -275 c 0,22,23
 1207 -300 1207 -300 1181 -300 c 2,24,-1
 433 -300 l 2,25,26
 407 -300 407 -300 407 -275 c 0,27,28
 407 -244 407 -244 468 -222 c 128,-1,29
 529 -200 529 -200 529 -122 c 2,30,-1
 529 797 l 1,4,5
EndSplineSet
Validated: 1
EndChar

StartChar: periodcentered
Encoding: 183 183 120
Width: 512
Flags: W
LayerCount: 2
Fore
SplineSet
255 496 m 256,0,1
 204 496 204 496 168.5 531.5 c 128,-1,2
 133 567 133 567 133 618 c 0,3,4
 133 668 133 668 168.5 704 c 128,-1,5
 204 740 204 740 255 740 c 256,6,7
 306 740 306 740 341.5 704 c 128,-1,8
 377 668 377 668 377 618 c 0,9,10
 377 567 377 567 341.5 531.5 c 128,-1,11
 306 496 306 496 255 496 c 256,0,1
EndSplineSet
Validated: 1
EndChar

StartChar: cedilla
Encoding: 184 184 121
Width: 1011
Flags: W
LayerCount: 2
Fore
SplineSet
385 -5 m 1,0,-1
 442 -5 l 1,1,2
 435 -27 435 -27 435 -46 c 0,3,4
 435 -78 435 -78 457 -99 c 0,5,6
 492 -132 492 -132 532 -166 c 0,7,8
 589 -214 589 -214 589 -289 c 2,9,-1
 589 -298 l 1,10,11
 585 -380 585 -380 466 -389 c 1,12,-1
 451 -389 l 2,13,14
 393 -389 393 -389 313 -362 c 1,15,-1
 298 -294 l 1,16,17
 347 -328 347 -328 391 -328 c 0,18,19
 425 -328 425 -328 456 -307 c 0,20,21
 486 -287 486 -287 486 -258 c 0,22,23
 486 -221 486 -221 435 -171 c 0,24,25
 403 -141 403 -141 377 -99 c 0,26,27
 366 -82 366 -82 366 -61 c 0,28,29
 366 -35 366 -35 385 -5 c 1,0,-1
EndSplineSet
Validated: 1
EndChar

StartChar: uni00B9
Encoding: 185 185 122
Width: 668
Flags: W
LayerCount: 2
Fore
SplineSet
231 448 m 2,0,1
 217 448 217 448 217 461 c 0,2,3
 217 477 217 477 250 489 c 128,-1,4
 283 501 283 501 283 545 c 2,5,-1
 283 1283 l 1,6,-1
 148 1283 l 1,7,-1
 148 1315 l 1,8,-1
 404 1425 l 1,9,-1
 404 545 l 2,10,11
 404 501 404 501 437.5 489 c 128,-1,12
 471 477 471 477 471 461 c 0,13,14
 471 448 471 448 457 448 c 2,15,-1
 231 448 l 2,0,1
EndSplineSet
Validated: 1
EndChar

StartChar: ordmasculine
Encoding: 186 186 123
Width: 682
Flags: W
LayerCount: 2
Fore
SplineSet
338 1429 m 0,0,1
 463 1429 463 1429 552 1338 c 128,-1,2
 641 1247 641 1247 641 1119 c 0,3,4
 641 990 641 990 552 899 c 128,-1,5
 463 808 463 808 338 808 c 0,6,7
 212 808 212 808 123 899 c 128,-1,8
 34 990 34 990 34 1119 c 0,9,10
 34 1247 34 1247 123 1338 c 128,-1,11
 212 1429 212 1429 338 1429 c 0,0,1
77 730 m 2,12,-1
 600 730 l 2,13,14
 612 730 612 730 612 718 c 2,15,-1
 612 660 l 2,16,17
 612 647 612 647 600 647 c 2,18,-1
 77 647 l 2,19,20
 65 647 65 647 65 660 c 2,21,-1
 65 718 l 2,22,23
 65 730 65 730 77 730 c 2,12,-1
325 1385 m 0,24,25
 247 1385 247 1385 197 1307 c 0,26,27
 152 1237 152 1237 152 1142 c 0,28,29
 152 1131 152 1131 153 1119 c 0,30,31
 158 1008 158 1008 216.5 930.5 c 128,-1,32
 275 853 275 853 353 853 c 0,33,34
 429 853 429 853 480 931 c 0,35,36
 526 1000 526 1000 526 1096 c 0,37,38
 526 1107 526 1107 525 1119 c 0,39,40
 519 1229 519 1229 460.5 1307 c 128,-1,41
 402 1385 402 1385 325 1385 c 0,24,25
EndSplineSet
Validated: 1
EndChar

StartChar: guillemotright
Encoding: 187 187 124
Width: 1024
Flags: W
LayerCount: 2
Fore
SplineSet
922 616 m 0,0,1
 836 527 836 527 747 439 c 128,-1,2
 658 351 658 351 573 267 c 0,3,4
 569 263 569 263 566 263 c 256,5,6
 563 263 563 263 561 265 c 2,7,-1
 524 291 l 2,8,9
 519 294 519 294 519 297 c 256,10,11
 519 300 519 300 521 302 c 2,12,-1
 777 629 l 1,13,-1
 522 953 l 2,14,15
 520 955 520 955 520 957 c 0,16,17
 520 960 520 960 524 964 c 2,18,-1
 561 990 l 2,19,20
 563 991 563 991 566 991 c 256,21,22
 569 991 569 991 573 988 c 0,23,24
 648 910 648 910 754.5 811 c 128,-1,25
 861 712 861 712 922 640 c 0,26,27
 928 633 928 633 928 627 c 256,28,29
 928 621 928 621 922 616 c 0,0,1
501 616 m 0,30,31
 415 527 415 527 326 439 c 128,-1,32
 237 351 237 351 152 267 c 0,33,34
 148 263 148 263 145 263 c 256,35,36
 142 263 142 263 140 265 c 2,37,-1
 103 291 l 2,38,39
 98 294 98 294 98 298 c 0,40,41
 98 300 98 300 99 302 c 2,42,-1
 356 629 l 1,43,-1
 101 953 l 2,44,45
 99 955 99 955 99 957 c 0,46,47
 99 960 99 960 103 964 c 2,48,-1
 140 990 l 2,49,50
 142 992 142 992 145 992 c 256,51,52
 148 992 148 992 152 988 c 0,53,54
 227 910 227 910 333.5 811 c 128,-1,55
 440 712 440 712 501 640 c 1,56,57
 506 632 506 632 506 626 c 256,58,59
 506 620 506 620 501 616 c 0,30,31
EndSplineSet
Validated: 1
EndChar

StartChar: onequarter
Encoding: 188 188 125
Width: 1350
Flags: W
LayerCount: 2
Fore
SplineSet
1175 1400 m 1,0,-1
 1286 1400 l 1,1,-1
 132 0 l 1,2,-1
 20 0 l 1,3,-1
 1175 1400 l 1,0,-1
1191 663 m 1,4,-1
 1191 262 l 1,5,-1
 1285 262 l 1,6,-1
 1285 195 l 1,7,-1
 1191 195 l 1,8,-1
 1191 86 l 2,9,10
 1191 52 1191 52 1238.5 37.5 c 128,-1,11
 1286 23 1286 23 1286 10 c 0,12,13
 1286 0 1286 0 1275 0 c 2,14,-1
 1015 0 l 2,15,16
 1005 0 1005 0 1005 10 c 0,17,18
 1005 23 1005 23 1053 37 c 128,-1,19
 1101 51 1101 51 1101 84 c 2,20,-1
 1102 195 l 1,21,-1
 831 195 l 1,22,-1
 831 250 l 1,23,-1
 1102 663 l 1,24,-1
 1191 663 l 1,4,-1
1104 262 m 1,25,-1
 1104 588 l 1,26,-1
 1102 588 l 1,27,-1
 894 267 l 1,28,-1
 894 262 l 1,29,-1
 1104 262 l 1,25,-1
392 1400 m 1,30,-1
 392 814 l 2,31,32
 392 780 392 780 439 765.5 c 128,-1,33
 486 751 486 751 486 738 c 0,34,35
 486 727 486 727 475 727 c 2,36,-1
 215 727 l 2,37,38
 205 727 205 727 205 738 c 0,39,40
 205 751 205 751 252 765.5 c 128,-1,41
 299 780 299 780 299 813 c 2,42,-1
 299 1293 l 2,43,44
 299 1318 299 1318 237 1325 c 1,45,46
 194 1328 194 1328 194 1335 c 0,47,48
 194 1347 194 1347 204 1349 c 2,49,-1
 392 1400 l 1,30,-1
EndSplineSet
Validated: 1
EndChar

StartChar: onehalf
Encoding: 189 189 126
Width: 1312
Flags: W
LayerCount: 2
Fore
SplineSet
1142 1362 m 1,0,-1
 1250 1362 l 1,1,-1
 128 0 l 1,2,-1
 19 0 l 1,3,-1
 1142 1362 l 1,0,-1
260 717 m 2,4,5
 250 717 250 717 250 726 c 0,6,7
 250 738 250 738 273 746 c 128,-1,8
 296 754 296 754 296 784 c 2,9,-1
 296 1290 l 1,10,-1
 203 1290 l 1,11,-1
 203 1312 l 2,12,13
 203 1331 203 1331 296 1357 c 0,14,15
 320 1363 320 1363 342 1369 c 128,-1,16
 364 1375 364 1375 378 1379 c 1,17,-1
 378 784 l 2,18,19
 378 754 378 754 401 746 c 128,-1,20
 424 738 424 738 424 726 c 0,21,22
 424 717 424 717 415 717 c 2,23,-1
 260 717 l 2,4,5
865 6 m 1,24,-1
 865 40 l 2,25,26
 865 81 865 81 889 111 c 128,-1,27
 913 141 913 141 965 197 c 1,28,29
 1020 252 1020 252 1082 326 c 0,30,31
 1119 369 1119 369 1140 421 c 0,32,33
 1155 460 1155 460 1155 492 c 0,34,35
 1155 566 1155 566 1071 597 c 1,36,37
 1035 609 1035 609 1004 609 c 0,38,39
 929 609 929 609 879 536 c 1,40,41
 864 512 864 512 861 498 c 1,42,-1
 861 561 l 1,43,-1
 860 562 l 2,44,45
 861 562 861 562 870 586 c 1,46,47
 914 659 914 659 1006 674 c 0,48,49
 1025 677 1025 677 1043 677 c 0,50,51
 1105 677 1105 677 1162 645 c 0,52,53
 1234 604 1234 604 1235 509 c 1,54,-1
 1235 507 l 2,55,56
 1235 380 1235 380 1121 280 c 0,57,58
 1005 178 1005 178 953 89 c 1,59,-1
 1124 89 l 2,60,61
 1185 89 1185 89 1237 109 c 1,62,-1
 1237 25 l 1,63,64
 1211 8 1211 8 1180.5 7 c 128,-1,65
 1150 6 1150 6 1124 6 c 2,66,-1
 865 6 l 1,24,-1
EndSplineSet
Validated: 1
EndChar

StartChar: threequarters
Encoding: 190 190 127
Width: 1312
Flags: W
LayerCount: 2
Fore
SplineSet
1142 1362 m 1,0,-1
 1250 1362 l 1,1,-1
 128 0 l 1,2,-1
 19 0 l 1,3,-1
 1142 1362 l 1,0,-1
394 734 m 1,4,5
 342 697 342 697 266 690 c 0,6,7
 254 688 254 688 244 688 c 0,8,9
 182 688 182 688 137 724 c 1,10,-1
 135 808 l 1,11,12
 162 756 162 756 231 739 c 0,13,14
 256 733 256 733 280 733 c 0,15,16
 319 733 319 733 352 750 c 0,17,18
 401 775 401 775 419 824 c 0,19,20
 428 850 428 850 428 876 c 0,21,22
 428 898 428 898 421 920 c 0,23,24
 406 968 406 968 358 1004 c 128,-1,25
 310 1040 310 1040 229 1042 c 1,26,-1
 229 1055 l 1,27,28
 261 1065 261 1065 303 1084 c 128,-1,29
 345 1103 345 1103 368 1142 c 0,30,31
 389 1177 389 1177 389 1209 c 0,32,33
 389 1251 389 1251 352 1289 c 0,34,35
 321 1320 321 1320 273 1325 c 0,36,37
 268 1326 268 1326 263 1326 c 0,38,39
 220 1326 220 1326 180 1288 c 0,40,41
 156 1265 156 1265 149 1232 c 1,42,-1
 149 1313 l 1,43,44
 220 1390 220 1390 314 1390 c 1,45,46
 422 1388 422 1388 458 1302 c 0,47,48
 468 1277 468 1277 468 1253 c 0,49,50
 468 1192 468 1192 405 1132 c 1,51,52
 397 1126 397 1126 389.5 1119 c 128,-1,53
 382 1112 382 1112 374 1106 c 1,54,55
 500 1043 500 1043 500 926 c 0,56,57
 500 917 500 917 499 907 c 0,58,59
 490 805 490 805 394 734 c 1,4,5
1158 644 m 1,60,-1
 1158 255 l 1,61,-1
 1250 255 l 1,62,-1
 1250 190 l 1,63,-1
 1158 190 l 1,64,-1
 1158 83 l 2,65,66
 1158 50 1158 50 1204 36 c 128,-1,67
 1250 22 1250 22 1250 10 c 0,68,69
 1250 0 1250 0 1240 0 c 2,70,-1
 987 0 l 2,71,72
 977 0 977 0 977 10 c 0,73,74
 977 22 977 22 1024 35.5 c 128,-1,75
 1071 49 1071 49 1071 82 c 2,76,-1
 1071 190 l 1,77,-1
 808 190 l 1,78,-1
 808 243 l 1,79,-1
 1071 644 l 1,80,-1
 1158 644 l 1,60,-1
1073 255 m 1,81,-1
 1073 572 l 1,82,-1
 1071 572 l 1,83,-1
 869 260 l 1,84,-1
 869 255 l 1,85,-1
 1073 255 l 1,81,-1
EndSplineSet
Validated: 1
EndChar

StartChar: questiondown
Encoding: 191 191 128
Width: 800
Flags: W
LayerCount: 2
Fore
SplineSet
411 395 m 1,0,-1
 414 229 l 2,1,2
 415 160 415 160 434 127 c 1,3,4
 450 94 450 94 509 58 c 1,5,6
 516 52 516 52 526.5 46 c 128,-1,7
 537 40 537 40 550 32 c 0,8,9
 712 -67 712 -67 712 -225 c 0,10,11
 712 -353 712 -353 627 -425 c 1,12,13
 543 -498 543 -498 393 -498 c 0,14,15
 248 -498 248 -498 164 -423 c 256,16,17
 80 -348 80 -348 80 -219 c 0,18,19
 80 -190 80 -190 95 -177 c 0,20,21
 110 -165 110 -165 144 -165 c 0,22,23
 176 -165 176 -165 194 -177 c 0,24,25
 211 -189 211 -189 213 -211 c 0,26,27
 223 -338 223 -338 258 -388 c 1,28,29
 294 -436 294 -436 370 -436 c 0,30,31
 457 -436 457 -436 501 -384 c 0,32,33
 544 -332 544 -332 544 -225 c 0,34,35
 544 -128 544 -128 499 -56 c 1,36,37
 454 13 454 13 335 97 c 1,38,-1
 335 394 l 2,39,40
 335 444 335 444 345 472 c 256,41,42
 355 500 355 500 372 500 c 0,43,44
 391 500 391 500 400 475 c 0,45,46
 409 447 409 447 411 395 c 1,0,-1
357 624 m 2,47,48
 283 624 283 624 283 698 c 2,49,-1
 283 761 l 2,50,51
 283 835 283 835 357 835 c 2,52,-1
 420 835 l 2,53,54
 494 835 494 835 494 761 c 2,55,-1
 494 698 l 2,56,57
 494 624 494 624 420 624 c 2,58,-1
 357 624 l 2,47,48
EndSplineSet
Validated: 1
EndChar

StartChar: Agrave
Encoding: 192 192 129
Width: 1593
Flags: W
LayerCount: 2
Fore
SplineSet
838 1427 m 1,0,1
 888 1309 888 1309 961.5 1138 c 128,-1,2
 1035 967 1035 967 1113.5 786 c 128,-1,3
 1192 605 1192 605 1265.5 434 c 128,-1,4
 1339 263 1339 263 1390 146 c 1,5,6
 1405 109 1405 109 1449 79 c 0,7,8
 1472 64 1472 64 1494.5 54 c 128,-1,9
 1517 44 1517 44 1531 35 c 0,10,11
 1541 28 1541 28 1544 21 c 0,12,13
 1546 17 1546 17 1546 13 c 0,14,15
 1546 10 1546 10 1544 6 c 0,16,17
 1541 0 1541 0 1532 0 c 2,18,-1
 1194 0 l 2,19,20
 1185 0 1185 0 1176 6 c 0,21,22
 1166 13 1166 13 1164 21 c 1,23,24
 1162 24 1162 24 1162 27 c 0,25,26
 1162 36 1162 36 1174 46 c 1,27,28
 1183 55 1183 55 1196 65 c 128,-1,29
 1209 75 1209 75 1215 92 c 0,30,31
 1218 100 1218 100 1218 110 c 0,32,33
 1218 127 1218 127 1210 147 c 2,34,-1
 1062 489 l 1,35,-1
 479 489 l 1,36,37
 443 403 443 403 407.5 317.5 c 128,-1,38
 372 232 372 232 336 147 c 0,39,40
 327 127 327 127 326 111 c 0,41,42
 325 104 325 104 325 97 c 0,43,44
 325 87 325 87 328 78 c 0,45,46
 331 65 331 65 338 56.5 c 128,-1,47
 345 48 345 48 348 39 c 1,48,49
 349 31 349 31 349 28 c 256,50,51
 349 25 349 25 347 21 c 0,52,53
 340 0 340 0 325 0 c 2,54,-1
 67 0 l 2,55,56
 57 0 57 0 53 6 c 0,57,58
 53 7 53 7 51 11 c 0,59,60
 51 13 51 13 53 21 c 1,61,62
 59 34 59 34 87 47 c 0,63,64
 102 54 102 54 119.5 62.5 c 128,-1,65
 137 71 137 71 155 83 c 0,66,67
 192 109 192 109 209 146 c 2,68,-1
 776 1427 l 1,69,-1
 838 1427 l 1,0,1
940 1581 m 2,70,-1
 638 1768 l 2,71,72
 617 1781 617 1781 596.5 1802 c 128,-1,73
 576 1823 576 1823 576 1851 c 0,74,75
 576 1899 576 1899 616 1916 c 0,76,77
 633 1923 633 1923 650 1923 c 0,78,79
 671 1923 671 1923 691 1911 c 0,80,81
 715 1896 715 1896 779 1829 c 128,-1,82
 843 1762 843 1762 868 1737 c 2,83,-1
 988 1613 l 2,84,85
 1023 1576 1023 1576 1023 1563 c 0,86,87
 1023 1556 1023 1556 1015 1555 c 0,88,89
 1012 1554 1012 1554 1009 1554 c 0,90,91
 983 1554 983 1554 940 1581 c 2,70,-1
1027 570 m 1,92,-1
 766 1179 l 1,93,94
 702 1026 702 1026 638.5 874 c 128,-1,95
 575 722 575 722 512 570 c 1,96,-1
 1027 570 l 1,92,-1
EndSplineSet
Validated: 1
EndChar

StartChar: Aacute
Encoding: 193 193 130
Width: 1593
Flags: W
LayerCount: 2
Fore
SplineSet
620 1620 m 6,0,1
 580 1605 580 1605 555 1605 c 4,2,3
 548 1605 548 1605 542 1606 c 4,4,5
 539 1606 539 1606 537 1608 c 5,6,7
 529 1610 529 1610 529 1615 c 6,8,-1
 529 1617 l 5,9,10
 531 1631 531 1631 577 1663 c 6,11,-1
 729 1769 l 6,12,13
 744 1779 744 1779 772 1798.5 c 132,-1,14
 800 1818 800 1818 841 1847 c 4,15,16
 921 1902 921 1902 952 1914 c 4,17,18
 966 1919 966 1919 981 1919 c 4,19,20
 989 1919 989 1919 997 1918 c 4,21,22
 1016 1914 1016 1914 1032 1902 c 4,23,24
 1061 1882 1061 1882 1061 1846 c 4,25,26
 1061 1837 1061 1837 1059 1826 c 4,27,28
 1054 1798 1054 1798 1028 1780 c 260,29,30
 1002 1762 1002 1762 977 1753 c 6,31,-1
 620 1620 l 6,0,1
838 1427 m 1,32,33
 888 1309 888 1309 961.5 1138 c 128,-1,34
 1035 967 1035 967 1113.5 786 c 128,-1,35
 1192 605 1192 605 1265.5 434 c 128,-1,36
 1339 263 1339 263 1390 146 c 1,37,38
 1405 109 1405 109 1449 79 c 0,39,40
 1472 64 1472 64 1494.5 54 c 128,-1,41
 1517 44 1517 44 1531 35 c 0,42,43
 1541 28 1541 28 1544 21 c 0,44,45
 1546 17 1546 17 1546 13 c 0,46,47
 1546 10 1546 10 1544 6 c 0,48,49
 1541 0 1541 0 1532 0 c 2,50,-1
 1194 0 l 2,51,52
 1185 0 1185 0 1176 6 c 0,53,54
 1166 13 1166 13 1164 21 c 1,55,56
 1162 24 1162 24 1162 27 c 0,57,58
 1162 36 1162 36 1174 46 c 1,59,60
 1183 55 1183 55 1196 65 c 128,-1,61
 1209 75 1209 75 1215 92 c 0,62,63
 1218 100 1218 100 1218 110 c 0,64,65
 1218 127 1218 127 1210 147 c 2,66,-1
 1062 489 l 1,67,-1
 479 489 l 1,68,69
 443 403 443 403 407.5 317.5 c 128,-1,70
 372 232 372 232 336 147 c 0,71,72
 327 127 327 127 326 111 c 0,73,74
 325 104 325 104 325 97 c 0,75,76
 325 87 325 87 328 78 c 0,77,78
 331 65 331 65 338 56.5 c 128,-1,79
 345 48 345 48 348 39 c 1,80,81
 349 31 349 31 349 28 c 256,82,83
 349 25 349 25 347 21 c 0,84,85
 340 0 340 0 325 0 c 2,86,-1
 67 0 l 2,87,88
 57 0 57 0 53 6 c 0,89,90
 53 7 53 7 51 11 c 0,91,92
 51 13 51 13 53 21 c 1,93,94
 59 34 59 34 87 47 c 0,95,96
 102 54 102 54 119.5 62.5 c 128,-1,97
 137 71 137 71 155 83 c 0,98,99
 192 109 192 109 209 146 c 2,100,-1
 776 1427 l 1,101,-1
 838 1427 l 1,32,33
1027 570 m 1,102,-1
 766 1179 l 1,103,104
 702 1026 702 1026 638.5 874 c 128,-1,105
 575 722 575 722 512 570 c 1,106,-1
 1027 570 l 1,102,-1
EndSplineSet
Validated: 1
EndChar

StartChar: Acircumflex
Encoding: 194 194 131
Width: 1593
Flags: W
LayerCount: 2
Fore
SplineSet
838 1427 m 1,0,1
 888 1309 888 1309 961.5 1138 c 128,-1,2
 1035 967 1035 967 1113.5 786 c 128,-1,3
 1192 605 1192 605 1265.5 434 c 128,-1,4
 1339 263 1339 263 1390 146 c 1,5,6
 1405 109 1405 109 1449 79 c 0,7,8
 1472 64 1472 64 1494.5 54 c 128,-1,9
 1517 44 1517 44 1531 35 c 0,10,11
 1541 28 1541 28 1544 21 c 0,12,13
 1546 17 1546 17 1546 13 c 0,14,15
 1546 10 1546 10 1544 6 c 0,16,17
 1541 0 1541 0 1532 0 c 2,18,-1
 1194 0 l 2,19,20
 1185 0 1185 0 1176 6 c 0,21,22
 1166 13 1166 13 1164 21 c 1,23,24
 1162 24 1162 24 1162 27 c 0,25,26
 1162 36 1162 36 1174 46 c 1,27,28
 1183 55 1183 55 1196 65 c 128,-1,29
 1209 75 1209 75 1215 92 c 0,30,31
 1218 100 1218 100 1218 110 c 0,32,33
 1218 127 1218 127 1210 147 c 2,34,-1
 1062 489 l 1,35,-1
 479 489 l 1,36,37
 443 403 443 403 407.5 317.5 c 128,-1,38
 372 232 372 232 336 147 c 0,39,40
 327 127 327 127 326 111 c 0,41,42
 325 104 325 104 325 97 c 0,43,44
 325 87 325 87 328 78 c 0,45,46
 331 65 331 65 338 56.5 c 128,-1,47
 345 48 345 48 348 39 c 1,48,49
 349 31 349 31 349 28 c 256,50,51
 349 25 349 25 347 21 c 0,52,53
 340 0 340 0 325 0 c 2,54,-1
 67 0 l 2,55,56
 57 0 57 0 53 6 c 0,57,58
 53 7 53 7 51 11 c 0,59,60
 51 13 51 13 53 21 c 1,61,62
 59 34 59 34 87 47 c 0,63,64
 102 54 102 54 119.5 62.5 c 128,-1,65
 137 71 137 71 155 83 c 0,66,67
 192 109 192 109 209 146 c 2,68,-1
 776 1427 l 1,69,-1
 838 1427 l 1,0,1
526 1556 m 1,70,-1
 755 1903 l 1,71,-1
 871 1903 l 1,72,-1
 1101 1556 l 1,73,-1
 1044 1556 l 1,74,-1
 814 1764 l 1,75,-1
 583 1556 l 1,76,-1
 526 1556 l 1,70,-1
1027 570 m 1,77,-1
 766 1179 l 1,78,79
 702 1026 702 1026 638.5 874 c 128,-1,80
 575 722 575 722 512 570 c 1,81,-1
 1027 570 l 1,77,-1
EndSplineSet
Validated: 1
EndChar

StartChar: Atilde
Encoding: 195 195 132
Width: 1593
Flags: W
LayerCount: 2
Fore
SplineSet
838 1427 m 1,0,1
 888 1309 888 1309 961.5 1138 c 128,-1,2
 1035 967 1035 967 1113.5 786 c 128,-1,3
 1192 605 1192 605 1265.5 434 c 128,-1,4
 1339 263 1339 263 1390 146 c 1,5,6
 1405 109 1405 109 1449 79 c 0,7,8
 1472 64 1472 64 1494.5 54 c 128,-1,9
 1517 44 1517 44 1531 35 c 0,10,11
 1541 28 1541 28 1544 21 c 0,12,13
 1546 17 1546 17 1546 13 c 0,14,15
 1546 10 1546 10 1544 6 c 0,16,17
 1541 0 1541 0 1532 0 c 2,18,-1
 1194 0 l 2,19,20
 1185 0 1185 0 1176 6 c 0,21,22
 1166 13 1166 13 1164 21 c 1,23,24
 1162 24 1162 24 1162 27 c 0,25,26
 1162 36 1162 36 1174 46 c 1,27,28
 1183 55 1183 55 1196 65 c 128,-1,29
 1209 75 1209 75 1215 92 c 0,30,31
 1218 100 1218 100 1218 110 c 0,32,33
 1218 127 1218 127 1210 147 c 2,34,-1
 1062 489 l 1,35,-1
 479 489 l 1,36,37
 443 403 443 403 407.5 317.5 c 128,-1,38
 372 232 372 232 336 147 c 0,39,40
 327 127 327 127 326 111 c 0,41,42
 325 104 325 104 325 97 c 0,43,44
 325 87 325 87 328 78 c 0,45,46
 331 65 331 65 338 56.5 c 128,-1,47
 345 48 345 48 348 39 c 1,48,49
 349 31 349 31 349 28 c 256,50,51
 349 25 349 25 347 21 c 0,52,53
 340 0 340 0 325 0 c 2,54,-1
 67 0 l 2,55,56
 57 0 57 0 53 6 c 0,57,58
 53 7 53 7 51 11 c 0,59,60
 51 13 51 13 53 21 c 1,61,62
 59 34 59 34 87 47 c 0,63,64
 102 54 102 54 119.5 62.5 c 128,-1,65
 137 71 137 71 155 83 c 0,66,67
 192 109 192 109 209 146 c 2,68,-1
 776 1427 l 1,69,-1
 838 1427 l 1,0,1
1113 1810 m 1,70,71
 1070 1696 1070 1696 1032 1645 c 1,72,73
 990 1591 990 1591 944 1591 c 0,74,75
 866 1591 866 1591 772 1675 c 1,76,77
 719 1721 719 1721 673 1721 c 0,78,79
 636 1721 636 1721 603 1692 c 0,80,81
 594 1684 594 1684 582.5 1673.5 c 128,-1,82
 571 1663 571 1663 557 1645 c 0,83,84
 531 1610 531 1610 514 1572 c 0,85,86
 509 1562 509 1562 501 1562 c 0,87,88
 496 1562 496 1562 489 1568 c 0,89,90
 480 1575 480 1575 480 1587 c 0,91,92
 480 1597 480 1597 486 1610 c 0,93,94
 519 1682 519 1682 553 1758 c 128,-1,95
 587 1834 587 1834 659 1834 c 0,96,97
 746 1834 746 1834 836 1747 c 0,98,99
 884 1700 884 1700 932 1700 c 0,100,101
 973 1700 973 1700 1013 1735 c 1,102,103
 1052 1766 1052 1766 1081 1842 c 0,104,105
 1086 1854 1086 1854 1095 1854 c 0,106,107
 1097 1854 1097 1854 1100 1853 c 0,108,109
 1112 1850 1112 1850 1115 1832 c 1,110,-1
 1115 1827 l 2,111,112
 1115 1819 1115 1819 1113 1810 c 1,70,71
1027 570 m 1,113,-1
 766 1179 l 1,114,115
 702 1026 702 1026 638.5 874 c 128,-1,116
 575 722 575 722 512 570 c 1,117,-1
 1027 570 l 1,113,-1
EndSplineSet
Validated: 1
EndChar

StartChar: Adieresis
Encoding: 196 196 133
Width: 1593
Flags: W
LayerCount: 2
Fore
SplineSet
838 1427 m 1,0,1
 888 1309 888 1309 961.5 1138 c 128,-1,2
 1035 967 1035 967 1113.5 786 c 128,-1,3
 1192 605 1192 605 1265.5 434 c 128,-1,4
 1339 263 1339 263 1390 146 c 1,5,6
 1405 109 1405 109 1449 79 c 0,7,8
 1472 64 1472 64 1494.5 54 c 128,-1,9
 1517 44 1517 44 1531 35 c 0,10,11
 1541 28 1541 28 1544 21 c 0,12,13
 1546 17 1546 17 1546 13 c 0,14,15
 1546 10 1546 10 1544 6 c 0,16,17
 1541 0 1541 0 1532 0 c 2,18,-1
 1194 0 l 2,19,20
 1185 0 1185 0 1176 6 c 0,21,22
 1166 13 1166 13 1164 21 c 1,23,24
 1162 24 1162 24 1162 27 c 0,25,26
 1162 36 1162 36 1174 46 c 1,27,28
 1183 55 1183 55 1196 65 c 128,-1,29
 1209 75 1209 75 1215 92 c 0,30,31
 1218 100 1218 100 1218 110 c 0,32,33
 1218 127 1218 127 1210 147 c 2,34,-1
 1062 489 l 1,35,-1
 479 489 l 1,36,37
 443 403 443 403 407.5 317.5 c 128,-1,38
 372 232 372 232 336 147 c 0,39,40
 327 127 327 127 326 111 c 0,41,42
 325 104 325 104 325 97 c 0,43,44
 325 87 325 87 328 78 c 0,45,46
 331 65 331 65 338 56.5 c 128,-1,47
 345 48 345 48 348 39 c 1,48,49
 349 31 349 31 349 28 c 256,50,51
 349 25 349 25 347 21 c 0,52,53
 340 0 340 0 325 0 c 2,54,-1
 67 0 l 2,55,56
 57 0 57 0 53 6 c 0,57,58
 53 7 53 7 51 11 c 0,59,60
 51 13 51 13 53 21 c 1,61,62
 59 34 59 34 87 47 c 0,63,64
 102 54 102 54 119.5 62.5 c 128,-1,65
 137 71 137 71 155 83 c 0,66,67
 192 109 192 109 209 146 c 2,68,-1
 776 1427 l 1,69,-1
 838 1427 l 1,0,1
891 1708 m 0,70,71
 891 1747 891 1747 920 1777.5 c 128,-1,72
 949 1808 949 1808 989 1808 c 0,73,74
 1055 1808 1055 1808 1082 1746 c 0,75,76
 1091 1723 1091 1723 1091 1702 c 0,77,78
 1091 1666 1091 1666 1061 1636 c 0,79,80
 1032 1607 1032 1607 990 1607 c 1,81,82
 989 1606 989 1606 988 1606 c 0,83,84
 947 1606 947 1606 919 1636 c 1,85,86
 891 1664 891 1664 891 1708 c 0,70,71
537 1708 m 0,87,88
 537 1774 537 1774 598 1800 c 0,89,90
 619 1809 619 1809 638 1809 c 0,91,92
 675 1809 675 1809 706 1778 c 256,93,94
 737 1747 737 1747 737 1710 c 0,95,96
 737 1690 737 1690 729 1669 c 0,97,98
 703 1607 703 1607 636 1607 c 0,99,100
 537 1607 537 1607 537 1708 c 0,87,88
1027 570 m 1,101,-1
 766 1179 l 1,102,103
 702 1026 702 1026 638.5 874 c 128,-1,104
 575 722 575 722 512 570 c 1,105,-1
 1027 570 l 1,101,-1
EndSplineSet
Validated: 1
EndChar

StartChar: Aring
Encoding: 197 197 134
Width: 1593
Flags: W
LayerCount: 2
Fore
SplineSet
838 1427 m 1,0,1
 888 1309 888 1309 961.5 1138 c 128,-1,2
 1035 967 1035 967 1113.5 786 c 128,-1,3
 1192 605 1192 605 1265.5 434 c 128,-1,4
 1339 263 1339 263 1390 146 c 1,5,6
 1405 109 1405 109 1449 79 c 0,7,8
 1472 64 1472 64 1494.5 54 c 128,-1,9
 1517 44 1517 44 1531 35 c 0,10,11
 1541 28 1541 28 1544 21 c 0,12,13
 1546 17 1546 17 1546 13 c 0,14,15
 1546 10 1546 10 1544 6 c 0,16,17
 1541 0 1541 0 1532 0 c 2,18,-1
 1194 0 l 2,19,20
 1185 0 1185 0 1176 6 c 0,21,22
 1166 13 1166 13 1164 21 c 1,23,24
 1162 24 1162 24 1162 27 c 0,25,26
 1162 36 1162 36 1174 46 c 1,27,28
 1183 55 1183 55 1196 65 c 128,-1,29
 1209 75 1209 75 1215 92 c 0,30,31
 1218 100 1218 100 1218 110 c 0,32,33
 1218 127 1218 127 1210 147 c 2,34,-1
 1062 489 l 1,35,-1
 479 489 l 1,36,37
 443 403 443 403 407.5 317.5 c 128,-1,38
 372 232 372 232 336 147 c 0,39,40
 327 127 327 127 326 111 c 0,41,42
 325 104 325 104 325 97 c 0,43,44
 325 87 325 87 328 78 c 0,45,46
 331 65 331 65 338 56.5 c 128,-1,47
 345 48 345 48 348 39 c 1,48,49
 349 31 349 31 349 28 c 256,50,51
 349 25 349 25 347 21 c 0,52,53
 340 0 340 0 325 0 c 2,54,-1
 67 0 l 2,55,56
 57 0 57 0 53 6 c 0,57,58
 53 7 53 7 51 11 c 0,59,60
 51 13 51 13 53 21 c 1,61,62
 59 34 59 34 87 47 c 0,63,64
 102 54 102 54 119.5 62.5 c 128,-1,65
 137 71 137 71 155 83 c 0,66,67
 192 109 192 109 209 146 c 2,68,-1
 776 1427 l 1,69,-1
 838 1427 l 1,0,1
799 1920 m 0,70,71
 879 1920 879 1920 936.5 1861 c 128,-1,72
 994 1802 994 1802 994 1720 c 0,73,74
 994 1637 994 1637 936.5 1579 c 128,-1,75
 879 1521 879 1521 799 1521 c 0,76,77
 718 1521 718 1521 660.5 1579 c 128,-1,78
 603 1637 603 1637 603 1720 c 0,79,80
 603 1802 603 1802 660.5 1861 c 128,-1,81
 718 1920 718 1920 799 1920 c 0,70,71
791 1892 m 0,82,83
 740 1892 740 1892 708 1842 c 0,84,85
 680 1797 680 1797 680 1736 c 2,86,-1
 680 1720 l 1,87,88
 683 1649 683 1649 720.5 1599 c 128,-1,89
 758 1549 758 1549 808 1549 c 0,90,91
 857 1549 857 1549 890 1599 c 1,92,93
 919 1645 919 1645 919 1708 c 2,94,-1
 919 1720 l 1,95,96
 915 1791 915 1791 877.5 1841.5 c 128,-1,97
 840 1892 840 1892 791 1892 c 0,82,83
1027 570 m 1,98,-1
 766 1179 l 1,99,100
 702 1026 702 1026 638.5 874 c 128,-1,101
 575 722 575 722 512 570 c 1,102,-1
 1027 570 l 1,98,-1
EndSplineSet
Validated: 1
EndChar

StartChar: AE
Encoding: 198 198 135
Width: 1933
Flags: W
LayerCount: 2
Fore
SplineSet
1089 94 m 1,0,-1
 1517 94 l 2,1,2
 1609 94 1609 94 1673.5 165.5 c 128,-1,3
 1738 237 1738 237 1771 277 c 0,4,5
 1789 299 1789 299 1799 299 c 0,6,7
 1820 299 1820 299 1820 278 c 0,8,9
 1820 265 1820 265 1818 257 c 2,10,-1
 1745 0 l 1,11,-1
 826 0 l 2,12,13
 808 0 808 0 808 21 c 0,14,15
 808 46 808 46 858 63.5 c 128,-1,16
 908 81 908 81 908 146 c 2,17,-1
 908 489 l 1,18,-1
 403 489 l 1,19,20
 355 403 355 403 306.5 317.5 c 128,-1,21
 258 232 258 232 210 147 c 0,22,23
 201 131 201 131 195 111 c 0,24,25
 191 100 191 100 191 88 c 0,26,27
 191 83 191 83 192 78 c 0,28,29
 194 65 194 65 199 56.5 c 128,-1,30
 204 48 204 48 206 39 c 0,31,32
 207 36 207 36 207 33 c 0,33,34
 207 31 207 31 206 28 c 0,35,36
 205 26 205 26 204 24 c 128,-1,37
 203 22 203 22 203 21 c 0,38,39
 192 0 192 0 178 0 c 2,40,-1
 -79 0 l 2,41,42
 -90 0 -90 0 -93 6 c 1,43,-1
 -93 11 l 2,44,45
 -93 15 -93 15 -90 21 c 1,46,47
 -82 32 -82 32 -53 47 c 1,48,49
 -36 54 -36 54 -17.5 62.5 c 128,-1,50
 1 71 1 71 20 83 c 0,51,52
 60 109 60 109 83 146 c 1,53,-1
 784 1336 l 1,54,55
 745 1345 745 1345 713 1355 c 128,-1,56
 681 1365 681 1365 681 1383 c 0,57,58
 681 1404 681 1404 702 1404 c 2,59,-1
 1757 1404 l 1,60,-1
 1757 1147 l 2,61,62
 1757 1126 1757 1126 1736 1126 c 0,63,64
 1726 1126 1726 1126 1699 1166 c 1,65,66
 1649 1235 1649 1235 1612.5 1273 c 128,-1,67
 1576 1311 1576 1311 1517 1311 c 2,68,-1
 1089 1311 l 1,69,-1
 1089 768 l 1,70,-1
 1318 768 l 2,71,72
 1382 768 1382 768 1402 819.5 c 128,-1,73
 1422 871 1422 871 1448 871 c 0,74,75
 1468 871 1468 871 1468 850 c 2,76,-1
 1468 596 l 2,77,78
 1468 575 1468 575 1448 575 c 0,79,80
 1422 575 1422 575 1399 626 c 128,-1,81
 1376 677 1376 677 1312 677 c 2,82,-1
 1089 677 l 1,83,-1
 1089 94 l 1,0,-1
911 570 m 1,84,-1
 909 1325 l 1,85,-1
 880 1325 l 1,86,87
 794 1173 794 1173 664 947.5 c 128,-1,88
 534 722 534 722 449 570 c 1,89,-1
 911 570 l 1,84,-1
EndSplineSet
Validated: 1
EndChar

StartChar: Ccedilla
Encoding: 199 199 136
Width: 1400
Flags: W
LayerCount: 2
Fore
SplineSet
848 -37 m 4,0,1
 541 -37 541 -37 304 159 c 132,-1,2
 67 355 67 355 67 701 c 4,3,4
 67 1038 67 1038 297.5 1241.5 c 132,-1,5
 528 1445 528 1445 848 1445 c 4,6,7
 963 1445 963 1445 1092.5 1419.5 c 132,-1,8
 1222 1394 1222 1394 1339 1319 c 5,9,-1
 1315 1109 l 5,10,11
 1311 1091 1311 1091 1295 1091 c 6,12,-1
 1292 1091 l 5,13,14
 1280 1092 1280 1092 1266 1119 c 5,15,16
 1208 1244 1208 1244 1092 1303 c 5,17,18
 984 1356 984 1356 862 1356 c 6,19,-1
 841 1356 l 5,20,21
 571 1344 571 1344 419 1140 c 4,22,23
 282 957 282 957 282 735 c 4,24,25
 282 710 282 710 284 685 c 4,26,27
 298 455 298 455 446 266 c 132,-1,28
 594 77 594 77 848 65 c 4,29,30
 872 64 872 64 894 64 c 4,31,32
 1022 64 1022 64 1105 103 c 4,33,34
 1201 149 1201 149 1266 288 c 4,35,36
 1279 316 1279 316 1298 316 c 4,37,38
 1302 316 1302 316 1306 315 c 4,39,40
 1322 309 1322 309 1322 292 c 4,41,42
 1322 284 1322 284 1318 274 c 6,43,-1
 1231 31 l 5,44,45
 1135 -9 1135 -9 1036 -23 c 132,-1,46
 937 -37 937 -37 848 -37 c 4,0,1
827 -88 m 1,47,-1
 884 -88 l 1,48,49
 877 -110 877 -110 877 -129 c 0,50,51
 877 -161 877 -161 899 -182 c 0,52,53
 934 -215 934 -215 974 -249 c 0,54,55
 1031 -297 1031 -297 1031 -372 c 2,56,-1
 1031 -381 l 1,57,58
 1027 -463 1027 -463 908 -472 c 1,59,-1
 893 -472 l 2,60,61
 835 -472 835 -472 755 -445 c 1,62,-1
 740 -377 l 1,63,64
 789 -411 789 -411 833 -411 c 0,65,66
 867 -411 867 -411 898 -390 c 0,67,68
 928 -370 928 -370 928 -341 c 0,69,70
 928 -304 928 -304 877 -254 c 0,71,72
 845 -224 845 -224 819 -182 c 0,73,74
 808 -165 808 -165 808 -144 c 0,75,76
 808 -118 808 -118 827 -88 c 1,47,-1
EndSplineSet
Validated: 1
Colour: ff00
EndChar

StartChar: Egrave
Encoding: 200 200 137
Width: 1251
Flags: W
LayerCount: 2
Fore
SplineSet
436 94 m 1,0,-1
 863 94 l 2,1,2
 956 94 956 94 1020.5 165.5 c 128,-1,3
 1085 237 1085 237 1118 277 c 0,4,5
 1136 299 1136 299 1146 299 c 0,6,7
 1167 299 1167 299 1167 278 c 0,8,9
 1167 265 1167 265 1165 257 c 2,10,-1
 1092 0 l 1,11,-1
 173 0 l 2,12,13
 155 0 155 0 155 21 c 0,14,15
 155 46 155 46 205 63.5 c 128,-1,16
 255 81 255 81 255 146 c 2,17,-1
 255 1257 l 2,18,19
 255 1322 255 1322 205 1339.5 c 128,-1,20
 155 1357 155 1357 155 1383 c 0,21,22
 155 1404 155 1404 176 1404 c 2,23,-1
 1104 1404 l 1,24,-1
 1104 1147 l 2,25,26
 1104 1126 1104 1126 1083 1126 c 0,27,28
 1073 1126 1073 1126 1046 1166 c 1,29,30
 996 1235 996 1235 959.5 1273 c 128,-1,31
 923 1311 923 1311 863 1311 c 2,32,-1
 436 1311 l 1,33,-1
 436 768 l 1,34,-1
 665 768 l 2,35,36
 729 768 729 768 749 819.5 c 128,-1,37
 769 871 769 871 795 871 c 0,38,39
 815 871 815 871 815 850 c 2,40,-1
 815 596 l 2,41,42
 815 575 815 575 795 575 c 0,43,44
 769 575 769 575 746 626 c 128,-1,45
 723 677 723 677 659 677 c 2,46,-1
 436 677 l 1,47,-1
 436 94 l 1,0,-1
803 1581 m 2,48,-1
 501 1768 l 2,49,50
 480 1781 480 1781 459 1802 c 128,-1,51
 438 1823 438 1823 438 1851 c 0,52,53
 438 1899 438 1899 478 1916 c 0,54,55
 495 1923 495 1923 512 1923 c 0,56,57
 533 1923 533 1923 553 1911 c 0,58,59
 577 1896 577 1896 641.5 1829 c 128,-1,60
 706 1762 706 1762 731 1737 c 2,61,-1
 850 1613 l 2,62,63
 886 1576 886 1576 886 1562 c 0,64,65
 886 1556 886 1556 877 1555 c 0,66,67
 874 1554 874 1554 871 1554 c 0,68,69
 846 1554 846 1554 803 1581 c 2,48,-1
EndSplineSet
Validated: 1
EndChar

StartChar: Eacute
Encoding: 201 201 138
Width: 1251
Flags: W
LayerCount: 2
Fore
SplineSet
496 1620 m 6,0,1
 456 1605 456 1605 431 1605 c 4,2,3
 424 1605 424 1605 418 1606 c 4,4,5
 415 1606 415 1606 413 1608 c 5,6,7
 405 1610 405 1610 405 1615 c 6,8,-1
 405 1617 l 5,9,10
 407 1631 407 1631 453 1663 c 6,11,-1
 605 1769 l 6,12,13
 620 1779 620 1779 648 1798.5 c 132,-1,14
 676 1818 676 1818 717 1847 c 4,15,16
 797 1902 797 1902 828 1914 c 4,17,18
 842 1919 842 1919 857 1919 c 4,19,20
 865 1919 865 1919 873 1918 c 4,21,22
 892 1914 892 1914 908 1902 c 4,23,24
 937 1882 937 1882 937 1846 c 4,25,26
 937 1837 937 1837 935 1826 c 4,27,28
 930 1798 930 1798 904 1780 c 260,29,30
 878 1762 878 1762 853 1753 c 6,31,-1
 496 1620 l 6,0,1
436 94 m 1,32,-1
 863 94 l 2,33,34
 956 94 956 94 1020.5 165.5 c 128,-1,35
 1085 237 1085 237 1118 277 c 0,36,37
 1136 299 1136 299 1146 299 c 0,38,39
 1167 299 1167 299 1167 278 c 0,40,41
 1167 265 1167 265 1165 257 c 2,42,-1
 1092 0 l 1,43,-1
 173 0 l 2,44,45
 155 0 155 0 155 21 c 0,46,47
 155 46 155 46 205 63.5 c 128,-1,48
 255 81 255 81 255 146 c 2,49,-1
 255 1257 l 2,50,51
 255 1322 255 1322 205 1339.5 c 128,-1,52
 155 1357 155 1357 155 1383 c 0,53,54
 155 1404 155 1404 176 1404 c 2,55,-1
 1104 1404 l 1,56,-1
 1104 1147 l 2,57,58
 1104 1126 1104 1126 1083 1126 c 0,59,60
 1073 1126 1073 1126 1046 1166 c 1,61,62
 996 1235 996 1235 959.5 1273 c 128,-1,63
 923 1311 923 1311 863 1311 c 2,64,-1
 436 1311 l 1,65,-1
 436 768 l 1,66,-1
 665 768 l 2,67,68
 729 768 729 768 749 819.5 c 128,-1,69
 769 871 769 871 795 871 c 0,70,71
 815 871 815 871 815 850 c 2,72,-1
 815 596 l 2,73,74
 815 575 815 575 795 575 c 0,75,76
 769 575 769 575 746 626 c 128,-1,77
 723 677 723 677 659 677 c 2,78,-1
 436 677 l 1,79,-1
 436 94 l 1,32,-1
EndSplineSet
Validated: 1
EndChar

StartChar: Ecircumflex
Encoding: 202 202 139
Width: 1251
Flags: W
LayerCount: 2
Fore
SplineSet
436 94 m 1,0,-1
 863 94 l 2,1,2
 956 94 956 94 1020.5 165.5 c 128,-1,3
 1085 237 1085 237 1118 277 c 0,4,5
 1136 299 1136 299 1146 299 c 0,6,7
 1167 299 1167 299 1167 278 c 0,8,9
 1167 265 1167 265 1165 257 c 2,10,-1
 1092 0 l 1,11,-1
 173 0 l 2,12,13
 155 0 155 0 155 21 c 0,14,15
 155 46 155 46 205 63.5 c 128,-1,16
 255 81 255 81 255 146 c 2,17,-1
 255 1257 l 2,18,19
 255 1322 255 1322 205 1339.5 c 128,-1,20
 155 1357 155 1357 155 1383 c 0,21,22
 155 1404 155 1404 176 1404 c 2,23,-1
 1104 1404 l 1,24,-1
 1104 1147 l 2,25,26
 1104 1126 1104 1126 1083 1126 c 0,27,28
 1073 1126 1073 1126 1046 1166 c 1,29,30
 996 1235 996 1235 959.5 1273 c 128,-1,31
 923 1311 923 1311 863 1311 c 2,32,-1
 436 1311 l 1,33,-1
 436 768 l 1,34,-1
 665 768 l 2,35,36
 729 768 729 768 749 819.5 c 128,-1,37
 769 871 769 871 795 871 c 0,38,39
 815 871 815 871 815 850 c 2,40,-1
 815 596 l 2,41,42
 815 575 815 575 795 575 c 0,43,44
 769 575 769 575 746 626 c 128,-1,45
 723 677 723 677 659 677 c 2,46,-1
 436 677 l 1,47,-1
 436 94 l 1,0,-1
373 1556 m 1,48,-1
 603 1903 l 1,49,-1
 719 1903 l 1,50,-1
 948 1556 l 1,51,-1
 891 1556 l 1,52,-1
 661 1764 l 1,53,-1
 431 1556 l 1,54,-1
 373 1556 l 1,48,-1
EndSplineSet
Validated: 1
EndChar

StartChar: Edieresis
Encoding: 203 203 140
Width: 1251
Flags: W
LayerCount: 2
Fore
SplineSet
436 94 m 1,0,-1
 863 94 l 2,1,2
 956 94 956 94 1020.5 165.5 c 128,-1,3
 1085 237 1085 237 1118 277 c 0,4,5
 1136 299 1136 299 1146 299 c 0,6,7
 1167 299 1167 299 1167 278 c 0,8,9
 1167 265 1167 265 1165 257 c 2,10,-1
 1092 0 l 1,11,-1
 173 0 l 2,12,13
 155 0 155 0 155 21 c 0,14,15
 155 46 155 46 205 63.5 c 128,-1,16
 255 81 255 81 255 146 c 2,17,-1
 255 1257 l 2,18,19
 255 1322 255 1322 205 1339.5 c 128,-1,20
 155 1357 155 1357 155 1383 c 0,21,22
 155 1404 155 1404 176 1404 c 2,23,-1
 1104 1404 l 1,24,-1
 1104 1147 l 2,25,26
 1104 1126 1104 1126 1083 1126 c 0,27,28
 1073 1126 1073 1126 1046 1166 c 1,29,30
 996 1235 996 1235 959.5 1273 c 128,-1,31
 923 1311 923 1311 863 1311 c 2,32,-1
 436 1311 l 1,33,-1
 436 768 l 1,34,-1
 665 768 l 2,35,36
 729 768 729 768 749 819.5 c 128,-1,37
 769 871 769 871 795 871 c 0,38,39
 815 871 815 871 815 850 c 2,40,-1
 815 596 l 2,41,42
 815 575 815 575 795 575 c 0,43,44
 769 575 769 575 746 626 c 128,-1,45
 723 677 723 677 659 677 c 2,46,-1
 436 677 l 1,47,-1
 436 94 l 1,0,-1
738 1708 m 0,48,49
 738 1747 738 1747 767 1777.5 c 128,-1,50
 796 1808 796 1808 837 1808 c 0,51,52
 903 1808 903 1808 929 1746 c 0,53,54
 938 1723 938 1723 938 1702 c 0,55,56
 938 1666 938 1666 909 1636 c 1,57,58
 873 1601 873 1601 837 1601 c 256,59,60
 801 1601 801 1601 766 1636 c 0,61,62
 738 1664 738 1664 738 1708 c 0,48,49
384 1708 m 0,63,64
 384 1774 384 1774 445 1800 c 0,65,66
 466 1809 466 1809 486 1809 c 0,67,68
 523 1809 523 1809 554 1778 c 256,69,70
 585 1747 585 1747 585 1710 c 0,71,72
 585 1690 585 1690 576 1669 c 0,73,74
 551 1607 551 1607 483 1607 c 0,75,76
 384 1607 384 1607 384 1708 c 0,63,64
EndSplineSet
Validated: 1
EndChar

StartChar: Igrave
Encoding: 204 204 141
Width: 690
Flags: W
LayerCount: 2
Fore
SplineSet
435 1257 m 2,0,-1
 435 147 l 2,1,2
 435 81 435 81 485 63.5 c 128,-1,3
 535 46 535 46 535 21 c 0,4,5
 535 0 535 0 514 0 c 2,6,-1
 175 0 l 2,7,8
 155 0 155 0 155 21 c 0,9,10
 155 46 155 46 205 63.5 c 128,-1,11
 255 81 255 81 255 146 c 2,12,-1
 255 1257 l 2,13,14
 255 1322 255 1322 205 1339.5 c 128,-1,15
 155 1357 155 1357 155 1383 c 0,16,17
 155 1404 155 1404 176 1404 c 2,18,-1
 514 1404 l 2,19,20
 535 1404 535 1404 535 1383 c 0,21,22
 535 1357 535 1357 485 1339.5 c 128,-1,23
 435 1322 435 1322 435 1257 c 2,0,-1
487 1581 m 2,24,-1
 185 1768 l 2,25,26
 164 1781 164 1781 143 1802 c 128,-1,27
 122 1823 122 1823 122 1851 c 0,28,29
 122 1899 122 1899 162 1916 c 0,30,31
 179 1923 179 1923 196 1923 c 0,32,33
 217 1923 217 1923 237 1911 c 0,34,35
 261 1896 261 1896 325.5 1829 c 128,-1,36
 390 1762 390 1762 415 1737 c 2,37,-1
 534 1613 l 2,38,39
 570 1576 570 1576 570 1562 c 0,40,41
 570 1556 570 1556 561 1555 c 0,42,43
 558 1554 558 1554 555 1554 c 0,44,45
 530 1554 530 1554 487 1581 c 2,24,-1
EndSplineSet
Validated: 1
EndChar

StartChar: Iacute
Encoding: 205 205 142
Width: 690
Flags: W
LayerCount: 2
Fore
SplineSet
164 1624 m 6,0,1
 124 1609 124 1609 99 1609 c 4,2,3
 92 1609 92 1609 86 1610 c 4,4,5
 83 1610 83 1610 81 1612 c 5,6,7
 73 1614 73 1614 73 1619 c 6,8,-1
 73 1621 l 5,9,10
 75 1635 75 1635 121 1667 c 6,11,-1
 273 1773 l 6,12,13
 288 1783 288 1783 316 1802.5 c 132,-1,14
 344 1822 344 1822 385 1851 c 4,15,16
 465 1906 465 1906 496 1918 c 4,17,18
 510 1923 510 1923 525 1923 c 4,19,20
 533 1923 533 1923 541 1922 c 4,21,22
 560 1918 560 1918 576 1906 c 4,23,24
 605 1886 605 1886 605 1850 c 4,25,26
 605 1841 605 1841 603 1830 c 4,27,28
 598 1802 598 1802 572 1784 c 260,29,30
 546 1766 546 1766 521 1757 c 6,31,-1
 164 1624 l 6,0,1
435 1257 m 2,32,-1
 435 147 l 2,33,34
 435 81 435 81 485 63.5 c 128,-1,35
 535 46 535 46 535 21 c 0,36,37
 535 0 535 0 514 0 c 2,38,-1
 175 0 l 2,39,40
 155 0 155 0 155 21 c 0,41,42
 155 46 155 46 205 63.5 c 128,-1,43
 255 81 255 81 255 146 c 2,44,-1
 255 1257 l 2,45,46
 255 1322 255 1322 205 1339.5 c 128,-1,47
 155 1357 155 1357 155 1383 c 0,48,49
 155 1404 155 1404 176 1404 c 2,50,-1
 514 1404 l 2,51,52
 535 1404 535 1404 535 1383 c 0,53,54
 535 1357 535 1357 485 1339.5 c 128,-1,55
 435 1322 435 1322 435 1257 c 2,32,-1
EndSplineSet
Validated: 1
EndChar

StartChar: Icircumflex
Encoding: 206 206 143
Width: 690
Flags: W
LayerCount: 2
Fore
SplineSet
435 1257 m 2,0,-1
 435 147 l 2,1,2
 435 81 435 81 485 63.5 c 128,-1,3
 535 46 535 46 535 21 c 0,4,5
 535 0 535 0 514 0 c 2,6,-1
 175 0 l 2,7,8
 155 0 155 0 155 21 c 0,9,10
 155 46 155 46 205 63.5 c 128,-1,11
 255 81 255 81 255 146 c 2,12,-1
 255 1257 l 2,13,14
 255 1322 255 1322 205 1339.5 c 128,-1,15
 155 1357 155 1357 155 1383 c 0,16,17
 155 1404 155 1404 176 1404 c 2,18,-1
 514 1404 l 2,19,20
 535 1404 535 1404 535 1383 c 0,21,22
 535 1357 535 1357 485 1339.5 c 128,-1,23
 435 1322 435 1322 435 1257 c 2,0,-1
58 1556 m 1,24,-1
 287 1903 l 1,25,-1
 403 1903 l 1,26,-1
 632 1556 l 1,27,-1
 575 1556 l 1,28,-1
 345 1764 l 1,29,-1
 115 1556 l 1,30,-1
 58 1556 l 1,24,-1
EndSplineSet
Validated: 1
EndChar

StartChar: Idieresis
Encoding: 207 207 144
Width: 690
Flags: W
LayerCount: 2
Fore
SplineSet
435 1257 m 2,0,-1
 435 147 l 2,1,2
 435 81 435 81 485 63.5 c 128,-1,3
 535 46 535 46 535 21 c 0,4,5
 535 0 535 0 514 0 c 2,6,-1
 175 0 l 2,7,8
 155 0 155 0 155 21 c 0,9,10
 155 46 155 46 205 63.5 c 128,-1,11
 255 81 255 81 255 146 c 2,12,-1
 255 1257 l 2,13,14
 255 1322 255 1322 205 1339.5 c 128,-1,15
 155 1357 155 1357 155 1383 c 0,16,17
 155 1404 155 1404 176 1404 c 2,18,-1
 514 1404 l 2,19,20
 535 1404 535 1404 535 1383 c 0,21,22
 535 1357 535 1357 485 1339.5 c 128,-1,23
 435 1322 435 1322 435 1257 c 2,0,-1
422 1708 m 0,24,25
 422 1747 422 1747 451 1777.5 c 128,-1,26
 480 1808 480 1808 521 1808 c 0,27,28
 587 1808 587 1808 613 1746 c 0,29,30
 622 1723 622 1723 622 1703 c 0,31,32
 622 1666 622 1666 592 1636 c 0,33,34
 557 1601 557 1601 521 1601 c 0,35,36
 486 1601 486 1601 450 1636 c 0,37,38
 422 1664 422 1664 422 1708 c 0,24,25
68 1708 m 0,39,40
 68 1774 68 1774 129 1800 c 0,41,42
 150 1809 150 1809 170 1809 c 0,43,44
 207 1809 207 1809 238 1778 c 256,45,46
 269 1747 269 1747 269 1710 c 0,47,48
 269 1690 269 1690 260 1669 c 0,49,50
 235 1607 235 1607 167 1607 c 0,51,52
 68 1607 68 1607 68 1708 c 0,39,40
EndSplineSet
Validated: 1
EndChar

StartChar: Eth
Encoding: 208 208 145
Width: 1585
Flags: W
LayerCount: 2
Fore
SplineSet
1500 791 m 0,0,1
 1502 758 1502 758 1502 727 c 0,2,3
 1502 561 1502 561 1441 429 c 0,4,5
 1367 271 1367 271 1235 169 c 0,6,7
 1011 -3 1011 -3 689 -7 c 1,8,-1
 609 -7 l 2,9,10
 551 -7 551 -7 500 -6 c 1,11,-1
 383 -6 l 2,12,13
 300 -6 300 -6 257 -3 c 1,14,-1
 233 -3 l 2,15,16
 193 -3 193 -3 129 -9 c 1,17,18
 108 -9 108 -9 108 13 c 0,19,20
 108 38 108 38 158 56 c 128,-1,21
 208 74 208 74 208 139 c 2,22,-1
 208 685 l 1,23,-1
 46 685 l 2,24,25
 25 685 25 685 25 704 c 2,26,-1
 25 743 l 2,27,28
 25 763 25 763 46 763 c 2,29,-1
 208 763 l 1,30,-1
 208 1262 l 2,31,32
 208 1326 208 1326 158 1343.5 c 128,-1,33
 108 1361 108 1361 108 1387 c 0,34,35
 108 1408 108 1408 129 1408 c 0,36,37
 171 1407 171 1407 214 1407 c 0,38,39
 256 1407 256 1407 300 1408 c 0,40,41
 386 1411 386 1411 468 1413 c 1,42,-1
 527 1413 l 2,43,44
 680 1413 680 1413 835 1405 c 1,45,46
 1018 1394 1018 1394 1165 1331 c 1,47,48
 1303 1270 1303 1270 1394 1143.5 c 128,-1,49
 1485 1017 1485 1017 1500 791 c 0,0,1
401 763 m 1,50,-1
 716 763 l 2,51,52
 736 763 736 763 736 743 c 2,53,-1
 736 704 l 2,54,55
 736 685 736 685 716 685 c 2,56,-1
 401 685 l 1,57,-1
 404 99 l 1,58,59
 531 75 531 75 642 75 c 0,60,61
 844 75 844 75 994 154 c 0,62,63
 1135 228 1135 228 1216 380 c 0,64,65
 1290 520 1290 520 1290 736 c 2,66,-1
 1290 769 l 1,67,68
 1286 931 1286 931 1232.5 1040.5 c 128,-1,69
 1179 1150 1179 1150 1091 1216 c 0,70,71
 962 1312 962 1312 778 1329 c 0,72,73
 715 1334 715 1334 651 1334 c 0,74,75
 528 1334 528 1334 399 1313 c 1,76,-1
 401 763 l 1,50,-1
EndSplineSet
Validated: 1
EndChar

StartChar: Ntilde
Encoding: 209 209 146
Width: 1644
Flags: W
LayerCount: 2
Fore
SplineSet
1369 203 m 1,0,-1
 1369 1257 l 2,1,2
 1369 1321 1369 1321 1319.5 1339 c 128,-1,3
 1270 1357 1270 1357 1270 1383 c 0,4,5
 1270 1404 1270 1404 1290 1404 c 2,6,-1
 1545 1404 l 2,7,8
 1566 1404 1566 1404 1566 1383 c 0,9,10
 1566 1357 1566 1357 1516 1339 c 128,-1,11
 1466 1321 1466 1321 1466 1257 c 2,12,-1
 1465 -43 l 1,13,-1
 1288 0 l 1,14,-1
 330 1189 l 1,15,-1
 330 146 l 2,16,17
 330 81 330 81 380 63.5 c 128,-1,18
 430 46 430 46 430 21 c 0,19,20
 430 0 430 0 409 0 c 2,21,-1
 155 0 l 2,22,23
 134 0 134 0 134 21 c 0,24,25
 134 46 134 46 184 63.5 c 128,-1,26
 234 81 234 81 234 146 c 2,27,-1
 234 1257 l 2,28,29
 234 1321 234 1321 184 1339 c 128,-1,30
 134 1357 134 1357 134 1383 c 0,31,32
 134 1404 134 1404 155 1404 c 2,33,-1
 412 1404 l 1,34,-1
 1369 203 l 1,0,-1
1164 1810 m 0,35,36
 1121 1696 1121 1696 1083 1645 c 1,37,38
 1041 1591 1041 1591 996 1591 c 0,39,40
 917 1591 917 1591 823 1675 c 1,41,42
 770 1721 770 1721 724 1721 c 0,43,44
 688 1721 688 1721 655 1692 c 0,45,46
 646 1684 646 1684 634 1673.5 c 128,-1,47
 622 1663 622 1663 609 1645 c 0,48,49
 584 1613 584 1613 565 1572 c 0,50,51
 560 1562 560 1562 552 1562 c 0,52,53
 547 1562 547 1562 540 1568 c 0,54,55
 531 1575 531 1575 531 1587 c 0,56,57
 531 1597 531 1597 537 1610 c 0,58,59
 570 1682 570 1682 604 1758 c 128,-1,60
 638 1834 638 1834 710 1834 c 0,61,62
 798 1834 798 1834 888 1747 c 0,63,64
 936 1700 936 1700 983 1700 c 0,65,66
 1024 1700 1024 1700 1065 1735 c 0,67,68
 1103 1767 1103 1767 1132 1842 c 0,69,70
 1137 1854 1137 1854 1147 1854 c 0,71,72
 1149 1854 1149 1854 1151 1853 c 0,73,74
 1164 1850 1164 1850 1167 1832 c 1,75,-1
 1167 1827 l 2,76,77
 1167 1818 1167 1818 1164 1810 c 0,35,36
EndSplineSet
Validated: 1
EndChar

StartChar: Ograve
Encoding: 210 210 147
Width: 1610
Flags: W
LayerCount: 2
Fore
SplineSet
808 1358 m 0,0,1
 501 1357 501 1357 379 1164.5 c 128,-1,2
 257 972 257 972 257 702 c 0,3,4
 257 431 257 431 410 239.5 c 128,-1,5
 563 48 563 48 808 46 c 1,6,-1
 813 46 l 2,7,8
 1052 46 1052 46 1206 250 c 0,9,10
 1358 452 1358 452 1358 696 c 2,11,-1
 1358 702 l 1,12,13
 1356 951 1356 951 1228 1154.5 c 128,-1,14
 1100 1358 1100 1358 808 1358 c 0,0,1
951 1581 m 2,15,-1
 649 1768 l 2,16,17
 628 1781 628 1781 607 1802 c 128,-1,18
 586 1823 586 1823 586 1851 c 0,19,20
 586 1899 586 1899 626 1916 c 0,21,22
 643 1923 643 1923 660 1923 c 0,23,24
 681 1923 681 1923 701 1911 c 0,25,26
 725 1896 725 1896 789.5 1829 c 128,-1,27
 854 1762 854 1762 879 1737 c 2,28,-1
 998 1613 l 2,29,30
 1034 1576 1034 1576 1034 1562 c 0,31,32
 1034 1556 1034 1556 1025 1555 c 0,33,34
 1022 1554 1022 1554 1019 1554 c 0,35,36
 994 1554 994 1554 951 1581 c 2,15,-1
808 1446 m 1,37,-1
 818 1446 l 2,38,39
 1141 1446 1141 1446 1363 1248 c 0,40,41
 1570 1063 1570 1063 1570 760 c 0,42,43
 1570 733 1570 733 1568 705 c 0,44,45
 1547 361 1547 361 1329.5 171.5 c 128,-1,46
 1112 -18 1112 -18 806 -35 c 0,47,48
 783 -36 783 -36 760 -36 c 0,49,50
 482 -36 482 -36 268 156 c 1,51,52
 48 352 48 352 48 669 c 0,53,54
 48 687 48 687 49 705 c 0,55,56
 61 1046 61 1046 269.5 1244 c 128,-1,57
 478 1442 478 1442 808 1446 c 1,37,-1
EndSplineSet
Validated: 1
EndChar

StartChar: Oacute
Encoding: 211 211 148
Width: 1610
Flags: W
LayerCount: 2
Fore
SplineSet
620 1620 m 6,0,1
 580 1605 580 1605 555 1605 c 4,2,3
 548 1605 548 1605 542 1606 c 4,4,5
 539 1606 539 1606 537 1608 c 5,6,7
 529 1610 529 1610 529 1615 c 6,8,-1
 529 1617 l 5,9,10
 531 1631 531 1631 577 1663 c 6,11,-1
 729 1769 l 6,12,13
 744 1779 744 1779 772 1798.5 c 132,-1,14
 800 1818 800 1818 841 1847 c 4,15,16
 921 1902 921 1902 952 1914 c 4,17,18
 966 1919 966 1919 981 1919 c 4,19,20
 989 1919 989 1919 997 1918 c 4,21,22
 1016 1914 1016 1914 1032 1902 c 4,23,24
 1061 1882 1061 1882 1061 1846 c 4,25,26
 1061 1837 1061 1837 1059 1826 c 4,27,28
 1054 1798 1054 1798 1028 1780 c 260,29,30
 1002 1762 1002 1762 977 1753 c 6,31,-1
 620 1620 l 6,0,1
808 1358 m 0,32,33
 501 1357 501 1357 379 1164.5 c 128,-1,34
 257 972 257 972 257 702 c 0,35,36
 257 431 257 431 410 239.5 c 128,-1,37
 563 48 563 48 808 46 c 1,38,-1
 813 46 l 2,39,40
 1052 46 1052 46 1206 250 c 0,41,42
 1358 452 1358 452 1358 696 c 2,43,-1
 1358 702 l 1,44,45
 1356 951 1356 951 1228 1154.5 c 128,-1,46
 1100 1358 1100 1358 808 1358 c 0,32,33
808 1446 m 1,47,-1
 818 1446 l 2,48,49
 1141 1446 1141 1446 1363 1248 c 0,50,51
 1570 1063 1570 1063 1570 760 c 0,52,53
 1570 733 1570 733 1568 705 c 0,54,55
 1547 361 1547 361 1329.5 171.5 c 128,-1,56
 1112 -18 1112 -18 806 -35 c 0,57,58
 783 -36 783 -36 760 -36 c 0,59,60
 482 -36 482 -36 268 156 c 1,61,62
 48 352 48 352 48 669 c 0,63,64
 48 687 48 687 49 705 c 0,65,66
 61 1046 61 1046 269.5 1244 c 128,-1,67
 478 1442 478 1442 808 1446 c 1,47,-1
EndSplineSet
Validated: 1
EndChar

StartChar: Ocircumflex
Encoding: 212 212 149
Width: 1610
Flags: W
LayerCount: 2
Fore
SplineSet
808 1358 m 0,0,1
 501 1357 501 1357 379 1164.5 c 128,-1,2
 257 972 257 972 257 702 c 0,3,4
 257 431 257 431 410 239.5 c 128,-1,5
 563 48 563 48 808 46 c 1,6,-1
 813 46 l 2,7,8
 1052 46 1052 46 1206 250 c 0,9,10
 1358 452 1358 452 1358 696 c 2,11,-1
 1358 702 l 1,12,13
 1356 951 1356 951 1228 1154.5 c 128,-1,14
 1100 1358 1100 1358 808 1358 c 0,0,1
522 1556 m 1,15,-1
 751 1903 l 1,16,-1
 867 1903 l 1,17,-1
 1096 1556 l 1,18,-1
 1039 1556 l 1,19,-1
 809 1764 l 1,20,-1
 579 1556 l 1,21,-1
 522 1556 l 1,15,-1
808 1446 m 1,22,-1
 818 1446 l 2,23,24
 1141 1446 1141 1446 1363 1248 c 0,25,26
 1570 1063 1570 1063 1570 760 c 0,27,28
 1570 733 1570 733 1568 705 c 0,29,30
 1547 361 1547 361 1329.5 171.5 c 128,-1,31
 1112 -18 1112 -18 806 -35 c 0,32,33
 783 -36 783 -36 760 -36 c 0,34,35
 482 -36 482 -36 268 156 c 1,36,37
 48 352 48 352 48 669 c 0,38,39
 48 687 48 687 49 705 c 0,40,41
 61 1046 61 1046 269.5 1244 c 128,-1,42
 478 1442 478 1442 808 1446 c 1,22,-1
EndSplineSet
Validated: 1
EndChar

StartChar: Otilde
Encoding: 213 213 150
Width: 1610
Flags: W
LayerCount: 2
Fore
SplineSet
808 1358 m 0,0,1
 501 1357 501 1357 379 1164.5 c 128,-1,2
 257 972 257 972 257 702 c 0,3,4
 257 431 257 431 410 239.5 c 128,-1,5
 563 48 563 48 808 46 c 1,6,-1
 813 46 l 2,7,8
 1052 46 1052 46 1206 250 c 0,9,10
 1358 452 1358 452 1358 696 c 2,11,-1
 1358 702 l 1,12,13
 1356 951 1356 951 1228 1154.5 c 128,-1,14
 1100 1358 1100 1358 808 1358 c 0,0,1
1123 1810 m 0,15,16
 1083 1700 1083 1700 1042 1645 c 1,17,18
 1000 1591 1000 1591 955 1591 c 0,19,20
 876 1591 876 1591 782 1675 c 1,21,22
 729 1721 729 1721 683 1721 c 0,23,24
 647 1721 647 1721 614 1692 c 0,25,26
 605 1684 605 1684 593 1673.5 c 128,-1,27
 581 1663 581 1663 568 1645 c 0,28,29
 542 1612 542 1612 525 1572 c 0,30,31
 520 1562 520 1562 512 1562 c 0,32,33
 507 1562 507 1562 500 1568 c 0,34,35
 491 1575 491 1575 491 1587 c 0,36,37
 491 1597 491 1597 497 1610 c 0,38,39
 530 1682 530 1682 563.5 1758 c 128,-1,40
 597 1834 597 1834 669 1834 c 0,41,42
 757 1834 757 1834 847 1747 c 0,43,44
 895 1700 895 1700 942 1700 c 0,45,46
 983 1700 983 1700 1024 1735 c 1,47,48
 1062 1766 1062 1766 1092 1842 c 0,49,50
 1096 1854 1096 1854 1106 1854 c 0,51,52
 1108 1854 1108 1854 1110 1853 c 0,53,54
 1123 1850 1123 1850 1126 1832 c 1,55,-1
 1126 1827 l 2,56,57
 1126 1818 1126 1818 1123 1810 c 0,15,16
808 1446 m 1,58,-1
 818 1446 l 2,59,60
 1141 1446 1141 1446 1363 1248 c 0,61,62
 1570 1063 1570 1063 1570 760 c 0,63,64
 1570 733 1570 733 1568 705 c 0,65,66
 1547 361 1547 361 1329.5 171.5 c 128,-1,67
 1112 -18 1112 -18 806 -35 c 0,68,69
 783 -36 783 -36 760 -36 c 0,70,71
 482 -36 482 -36 268 156 c 1,72,73
 48 352 48 352 48 669 c 0,74,75
 48 687 48 687 49 705 c 0,76,77
 61 1046 61 1046 269.5 1244 c 128,-1,78
 478 1442 478 1442 808 1446 c 1,58,-1
EndSplineSet
Validated: 1
EndChar

StartChar: Odieresis
Encoding: 214 214 151
Width: 1610
Flags: W
LayerCount: 2
Fore
SplineSet
808 1358 m 0,0,1
 501 1357 501 1357 379 1164.5 c 128,-1,2
 257 972 257 972 257 702 c 0,3,4
 257 431 257 431 410 239.5 c 128,-1,5
 563 48 563 48 808 46 c 1,6,-1
 813 46 l 2,7,8
 1052 46 1052 46 1206 250 c 0,9,10
 1358 452 1358 452 1358 696 c 2,11,-1
 1358 702 l 1,12,13
 1356 951 1356 951 1228 1154.5 c 128,-1,14
 1100 1358 1100 1358 808 1358 c 0,0,1
886 1708 m 0,15,16
 886 1747 886 1747 915 1777.5 c 128,-1,17
 944 1808 944 1808 985 1808 c 0,18,19
 1051 1808 1051 1808 1077 1746 c 0,20,21
 1086 1723 1086 1723 1086 1703 c 0,22,23
 1086 1666 1086 1666 1056 1636 c 0,24,25
 1021 1601 1021 1601 985 1601 c 0,26,27
 950 1601 950 1601 914 1636 c 0,28,29
 886 1664 886 1664 886 1708 c 0,15,16
533 1708 m 0,30,31
 533 1774 533 1774 594 1800 c 0,32,33
 615 1809 615 1809 634 1809 c 0,34,35
 671 1809 671 1809 702 1778 c 256,36,37
 733 1747 733 1747 733 1710 c 0,38,39
 733 1690 733 1690 724 1669 c 0,40,41
 699 1607 699 1607 631 1607 c 0,42,43
 533 1607 533 1607 533 1708 c 0,30,31
808 1446 m 1,44,-1
 818 1446 l 2,45,46
 1141 1446 1141 1446 1363 1248 c 0,47,48
 1570 1063 1570 1063 1570 760 c 0,49,50
 1570 733 1570 733 1568 705 c 0,51,52
 1547 361 1547 361 1329.5 171.5 c 128,-1,53
 1112 -18 1112 -18 806 -35 c 0,54,55
 783 -36 783 -36 760 -36 c 0,56,57
 482 -36 482 -36 268 156 c 1,58,59
 48 352 48 352 48 669 c 0,60,61
 48 687 48 687 49 705 c 0,62,63
 61 1046 61 1046 269.5 1244 c 128,-1,64
 478 1442 478 1442 808 1446 c 1,44,-1
EndSplineSet
Validated: 1
EndChar

StartChar: multiply
Encoding: 215 215 152
Width: 1024
Flags: W
LayerCount: 2
Fore
SplineSet
335 904 m 2,0,-1
 532 706 l 1,1,-1
 730 904 l 2,2,3
 745 919 745 919 757 919 c 0,4,5
 766 919 766 919 774 911 c 2,6,-1
 811 874 l 2,7,8
 819 866 819 866 819 857 c 0,9,10
 819 844 819 844 804 829 c 2,11,-1
 607 632 l 1,12,-1
 804 434 l 2,13,14
 819 418 819 418 819 406 c 0,15,16
 819 397 819 397 811 390 c 2,17,-1
 774 352 l 2,18,19
 766 344 766 344 757 344 c 0,20,21
 745 344 745 344 730 360 c 2,22,-1
 532 557 l 1,23,-1
 335 360 l 2,24,25
 319 344 319 344 306 344 c 0,26,27
 297 344 297 344 290 352 c 2,28,-1
 253 390 l 2,29,30
 245 398 245 398 245 407 c 0,31,32
 245 419 245 419 260 434 c 2,33,-1
 458 632 l 1,34,-1
 260 829 l 2,35,36
 245 843 245 843 245 856 c 0,37,38
 245 866 245 866 253 874 c 2,39,-1
 290 911 l 2,40,41
 298 919 298 919 307 919 c 0,42,43
 319 919 319 919 335 904 c 2,0,-1
EndSplineSet
Validated: 1
EndChar

StartChar: Oslash
Encoding: 216 216 153
Width: 1610
Flags: W
LayerCount: 2
Fore
SplineSet
808 1358 m 0,0,1
 501 1357 501 1357 379 1164.5 c 128,-1,2
 257 972 257 972 257 702 c 0,3,4
 257 474 257 474 367 300 c 1,5,-1
 1245 1131 l 1,6,7
 1179 1233 1179 1233 1071.5 1295.5 c 128,-1,8
 964 1358 964 1358 808 1358 c 0,0,1
1289 1050 m 1,9,-1
 420 228 l 1,10,11
 576 47 576 47 808 46 c 1,12,-1
 813 46 l 2,13,14
 1052 46 1052 46 1206 250 c 0,15,16
 1358 452 1358 452 1358 696 c 2,17,-1
 1358 702 l 1,18,19
 1356 899 1356 899 1289 1050 c 1,9,-1
1622 1365 m 2,20,-1
 1427 1181 l 1,21,22
 1569 999 1569 999 1569 753 c 0,23,24
 1569 729 1569 729 1568 705 c 0,25,26
 1547 361 1547 361 1329.5 171.5 c 128,-1,27
 1112 -18 1112 -18 806 -35 c 0,28,29
 782 -36 782 -36 758 -36 c 0,30,31
 505 -36 505 -36 308 121 c 1,32,-1
 150 -27 l 2,33,34
 143 -33 143 -33 137 -33 c 0,35,36
 130 -33 130 -33 124 -26 c 2,37,-1
 89 10 l 2,38,39
 83 17 83 17 83 23 c 0,40,41
 83 30 83 30 89 36 c 2,42,-1
 242 181 l 1,43,44
 148 278 148 278 96 411 c 1,45,46
 48 530 48 530 48 672 c 0,47,48
 48 688 48 688 49 705 c 0,49,50
 61 1046 61 1046 269.5 1244 c 128,-1,51
 478 1442 478 1442 808 1446 c 1,52,-1
 818 1446 l 2,53,54
 1152 1446 1152 1446 1367 1246 c 1,55,-1
 1561 1430 l 2,56,57
 1567 1435 1567 1435 1573 1435 c 0,58,59
 1580 1435 1580 1435 1587 1429 c 1,60,-1
 1622 1391 l 1,61,62
 1629 1385 1629 1385 1629 1378 c 0,63,64
 1629 1372 1629 1372 1622 1365 c 2,20,-1
EndSplineSet
Validated: 1
EndChar

StartChar: Ugrave
Encoding: 217 217 154
Width: 1554
Flags: W
LayerCount: 2
Fore
SplineSet
234 588 m 2,0,-1
 234 1258 l 2,1,2
 234 1322 234 1322 184 1339.5 c 128,-1,3
 134 1357 134 1357 134 1383 c 0,4,5
 134 1404 134 1404 155 1404 c 2,6,-1
 494 1404 l 2,7,8
 514 1404 514 1404 514 1383 c 0,9,10
 514 1357 514 1357 465 1340.5 c 128,-1,11
 416 1324 416 1324 416 1260 c 2,12,-1
 416 721 l 2,13,14
 416 568 416 568 426 450 c 128,-1,15
 436 332 436 332 478 251 c 0,16,17
 519 170 519 170 604 128 c 128,-1,18
 689 86 689 86 839 86 c 0,19,20
 1103 86 1103 86 1197 294 c 0,21,22
 1264 440 1264 440 1264 721 c 2,23,-1
 1264 1257 l 2,24,25
 1264 1321 1264 1321 1214 1339 c 128,-1,26
 1164 1357 1164 1357 1164 1383 c 0,27,28
 1164 1404 1164 1404 1185 1404 c 2,29,-1
 1440 1404 l 2,30,31
 1460 1404 1460 1404 1460 1383 c 0,32,33
 1460 1357 1460 1357 1410.5 1339 c 128,-1,34
 1361 1321 1361 1321 1361 1257 c 2,35,-1
 1361 588 l 1,36,37
 1360 439 1360 439 1333.5 315.5 c 128,-1,38
 1307 192 1307 192 1236 108 c 1,39,40
 1109 -39 1109 -39 839 -39 c 0,41,42
 668 -39 668 -39 548 -7 c 128,-1,43
 428 25 428 25 356 109 c 0,44,45
 234 250 234 250 234 588 c 2,0,-1
939 1581 m 2,46,-1
 637 1768 l 2,47,48
 616 1781 616 1781 595 1802 c 128,-1,49
 574 1823 574 1823 574 1851 c 0,50,51
 574 1899 574 1899 614 1916 c 0,52,53
 631 1923 631 1923 648 1923 c 0,54,55
 669 1923 669 1923 689 1911 c 0,56,57
 713 1896 713 1896 777.5 1829 c 128,-1,58
 842 1762 842 1762 867 1737 c 2,59,-1
 987 1613 l 2,60,61
 1022 1576 1022 1576 1022 1563 c 0,62,63
 1022 1556 1022 1556 1013 1555 c 0,64,65
 1010 1554 1010 1554 1007 1554 c 0,66,67
 982 1554 982 1554 939 1581 c 2,46,-1
EndSplineSet
Validated: 1
EndChar

StartChar: Uacute
Encoding: 218 218 155
Width: 1554
Flags: W
LayerCount: 2
Fore
SplineSet
668 1628 m 6,0,1
 628 1613 628 1613 603 1613 c 4,2,3
 596 1613 596 1613 590 1614 c 4,4,5
 587 1614 587 1614 585 1616 c 5,6,7
 577 1618 577 1618 577 1623 c 6,8,-1
 577 1625 l 5,9,10
 579 1639 579 1639 625 1671 c 6,11,-1
 777 1777 l 6,12,13
 792 1787 792 1787 820 1806.5 c 132,-1,14
 848 1826 848 1826 889 1855 c 4,15,16
 969 1910 969 1910 1000 1922 c 4,17,18
 1014 1927 1014 1927 1029 1927 c 4,19,20
 1037 1927 1037 1927 1045 1926 c 4,21,22
 1064 1922 1064 1922 1080 1910 c 4,23,24
 1109 1890 1109 1890 1109 1854 c 4,25,26
 1109 1845 1109 1845 1107 1834 c 4,27,28
 1102 1806 1102 1806 1076 1788 c 260,29,30
 1050 1770 1050 1770 1025 1761 c 6,31,-1
 668 1628 l 6,0,1
234 588 m 2,32,-1
 234 1258 l 2,33,34
 234 1322 234 1322 184 1339.5 c 128,-1,35
 134 1357 134 1357 134 1383 c 0,36,37
 134 1404 134 1404 155 1404 c 2,38,-1
 494 1404 l 2,39,40
 514 1404 514 1404 514 1383 c 0,41,42
 514 1357 514 1357 465 1340.5 c 128,-1,43
 416 1324 416 1324 416 1260 c 2,44,-1
 416 721 l 2,45,46
 416 568 416 568 426 450 c 128,-1,47
 436 332 436 332 478 251 c 0,48,49
 519 170 519 170 604 128 c 128,-1,50
 689 86 689 86 839 86 c 0,51,52
 1103 86 1103 86 1197 294 c 0,53,54
 1264 440 1264 440 1264 721 c 2,55,-1
 1264 1257 l 2,56,57
 1264 1321 1264 1321 1214 1339 c 128,-1,58
 1164 1357 1164 1357 1164 1383 c 0,59,60
 1164 1404 1164 1404 1185 1404 c 2,61,-1
 1440 1404 l 2,62,63
 1460 1404 1460 1404 1460 1383 c 0,64,65
 1460 1357 1460 1357 1410.5 1339 c 128,-1,66
 1361 1321 1361 1321 1361 1257 c 2,67,-1
 1361 588 l 1,68,69
 1360 439 1360 439 1333.5 315.5 c 128,-1,70
 1307 192 1307 192 1236 108 c 1,71,72
 1109 -39 1109 -39 839 -39 c 0,73,74
 668 -39 668 -39 548 -7 c 128,-1,75
 428 25 428 25 356 109 c 0,76,77
 234 250 234 250 234 588 c 2,32,-1
EndSplineSet
Validated: 1
EndChar

StartChar: Ucircumflex
Encoding: 219 219 156
Width: 1554
Flags: W
LayerCount: 2
Fore
SplineSet
234 588 m 2,0,-1
 234 1258 l 2,1,2
 234 1322 234 1322 184 1339.5 c 128,-1,3
 134 1357 134 1357 134 1383 c 0,4,5
 134 1404 134 1404 155 1404 c 2,6,-1
 494 1404 l 2,7,8
 514 1404 514 1404 514 1383 c 0,9,10
 514 1357 514 1357 465 1340.5 c 128,-1,11
 416 1324 416 1324 416 1260 c 2,12,-1
 416 721 l 2,13,14
 416 568 416 568 426 450 c 128,-1,15
 436 332 436 332 478 251 c 0,16,17
 519 170 519 170 604 128 c 128,-1,18
 689 86 689 86 839 86 c 0,19,20
 1103 86 1103 86 1197 294 c 0,21,22
 1264 440 1264 440 1264 721 c 2,23,-1
 1264 1257 l 2,24,25
 1264 1321 1264 1321 1214 1339 c 128,-1,26
 1164 1357 1164 1357 1164 1383 c 0,27,28
 1164 1404 1164 1404 1185 1404 c 2,29,-1
 1440 1404 l 2,30,31
 1460 1404 1460 1404 1460 1383 c 0,32,33
 1460 1357 1460 1357 1410.5 1339 c 128,-1,34
 1361 1321 1361 1321 1361 1257 c 2,35,-1
 1361 588 l 1,36,37
 1360 439 1360 439 1333.5 315.5 c 128,-1,38
 1307 192 1307 192 1236 108 c 1,39,40
 1109 -39 1109 -39 839 -39 c 0,41,42
 668 -39 668 -39 548 -7 c 128,-1,43
 428 25 428 25 356 109 c 0,44,45
 234 250 234 250 234 588 c 2,0,-1
510 1556 m 1,46,-1
 739 1903 l 1,47,-1
 855 1903 l 1,48,-1
 1085 1556 l 1,49,-1
 1027 1556 l 1,50,-1
 797 1764 l 1,51,-1
 567 1556 l 1,52,-1
 510 1556 l 1,46,-1
EndSplineSet
Validated: 1
EndChar

StartChar: Udieresis
Encoding: 220 220 157
Width: 1554
Flags: W
LayerCount: 2
Fore
SplineSet
234 588 m 2,0,-1
 234 1258 l 2,1,2
 234 1322 234 1322 184 1339.5 c 128,-1,3
 134 1357 134 1357 134 1383 c 0,4,5
 134 1404 134 1404 155 1404 c 2,6,-1
 494 1404 l 2,7,8
 514 1404 514 1404 514 1383 c 0,9,10
 514 1357 514 1357 465 1340.5 c 128,-1,11
 416 1324 416 1324 416 1260 c 2,12,-1
 416 721 l 2,13,14
 416 568 416 568 426 450 c 128,-1,15
 436 332 436 332 478 251 c 0,16,17
 519 170 519 170 604 128 c 128,-1,18
 689 86 689 86 839 86 c 0,19,20
 1103 86 1103 86 1197 294 c 0,21,22
 1264 440 1264 440 1264 721 c 2,23,-1
 1264 1257 l 2,24,25
 1264 1321 1264 1321 1214 1339 c 128,-1,26
 1164 1357 1164 1357 1164 1383 c 0,27,28
 1164 1404 1164 1404 1185 1404 c 2,29,-1
 1440 1404 l 2,30,31
 1460 1404 1460 1404 1460 1383 c 0,32,33
 1460 1357 1460 1357 1410.5 1339 c 128,-1,34
 1361 1321 1361 1321 1361 1257 c 2,35,-1
 1361 588 l 1,36,37
 1360 439 1360 439 1333.5 315.5 c 128,-1,38
 1307 192 1307 192 1236 108 c 1,39,40
 1109 -39 1109 -39 839 -39 c 0,41,42
 668 -39 668 -39 548 -7 c 128,-1,43
 428 25 428 25 356 109 c 0,44,45
 234 250 234 250 234 588 c 2,0,-1
874 1708 m 0,46,47
 874 1747 874 1747 903 1777.5 c 128,-1,48
 932 1808 932 1808 973 1808 c 0,49,50
 1039 1808 1039 1808 1065 1746 c 0,51,52
 1074 1723 1074 1723 1074 1702 c 0,53,54
 1074 1666 1074 1666 1045 1636 c 1,55,56
 1009 1601 1009 1601 973 1601 c 256,57,58
 937 1601 937 1601 902 1636 c 0,59,60
 874 1664 874 1664 874 1708 c 0,46,47
521 1708 m 0,61,62
 521 1774 521 1774 582 1800 c 0,63,64
 603 1809 603 1809 622 1809 c 0,65,66
 659 1809 659 1809 690 1778 c 256,67,68
 721 1747 721 1747 721 1710 c 0,69,70
 721 1690 721 1690 713 1669 c 0,71,72
 687 1607 687 1607 620 1607 c 0,73,74
 521 1607 521 1607 521 1708 c 0,61,62
EndSplineSet
Validated: 1
EndChar

StartChar: Yacute
Encoding: 221 221 158
Width: 1366
Flags: W
LayerCount: 2
Fore
SplineSet
576 1616 m 6,0,1
 536 1601 536 1601 511 1601 c 4,2,3
 504 1601 504 1601 498 1602 c 4,4,5
 495 1602 495 1602 493 1604 c 5,6,7
 485 1606 485 1606 485 1611 c 6,8,-1
 485 1613 l 5,9,10
 487 1627 487 1627 533 1659 c 6,11,-1
 685 1765 l 6,12,13
 700 1775 700 1775 728 1794.5 c 132,-1,14
 756 1814 756 1814 797 1843 c 4,15,16
 877 1898 877 1898 908 1910 c 4,17,18
 922 1915 922 1915 937 1915 c 4,19,20
 945 1915 945 1915 953 1914 c 4,21,22
 972 1910 972 1910 988 1898 c 4,23,24
 1017 1878 1017 1878 1017 1842 c 4,25,26
 1017 1833 1017 1833 1015 1822 c 4,27,28
 1010 1794 1010 1794 984 1776 c 260,29,30
 958 1758 958 1758 933 1749 c 6,31,-1
 576 1616 l 6,0,1
589 677 m 2,32,-1
 240 1258 l 1,33,34
 217 1292 217 1292 163 1325 c 1,35,36
 135 1340 135 1340 109.5 1349.5 c 128,-1,37
 84 1359 84 1359 68 1369 c 0,38,39
 57 1375 57 1375 51 1383 c 0,40,41
 47 1389 47 1389 47 1394 c 2,42,-1
 47 1398 l 1,43,44
 48 1404 48 1404 57 1404 c 2,45,-1
 396 1404 l 2,46,47
 406 1404 406 1404 415 1398 c 0,48,49
 426 1391 426 1391 432 1383 c 0,50,51
 435 1378 435 1378 435 1373 c 0,52,53
 435 1366 435 1366 428 1358 c 0,54,55
 421 1349 421 1349 411 1338.5 c 128,-1,56
 401 1328 401 1328 400 1313 c 1,57,-1
 400 1308 l 2,58,59
 400 1286 400 1286 416 1263 c 1,60,-1
 753 729 l 1,61,-1
 1012 1124 l 2,62,63
 1041 1168 1041 1168 1046 1200 c 0,64,65
 1047 1205 1047 1205 1047 1210 c 0,66,67
 1047 1240 1047 1240 1023 1288 c 2,68,-1
 989 1356 l 1,69,-1
 1132 1418 l 2,70,71
 1139 1421 1139 1421 1145 1421 c 0,72,73
 1158 1421 1158 1421 1169 1405 c 1,74,-1
 1229 1304 l 2,75,76
 1240 1285 1240 1285 1240 1266 c 0,77,78
 1240 1232 1240 1232 1206 1197 c 0,79,80
 1153 1141 1153 1141 1093 1054 c 2,81,-1
 827 666 l 2,82,83
 809 639 809 639 803.5 590 c 128,-1,84
 798 541 798 541 798 497 c 2,85,-1
 798 146 l 2,86,87
 798 81 798 81 848 63.5 c 128,-1,88
 898 46 898 46 898 21 c 0,89,90
 898 0 898 0 877 0 c 2,91,-1
 538 0 l 2,92,93
 517 0 517 0 517 21 c 0,94,95
 517 46 517 46 567 63.5 c 128,-1,96
 617 81 617 81 617 146 c 2,97,-1
 617 573 l 2,98,99
 617 631 617 631 589 677 c 2,32,-1
EndSplineSet
Validated: 1
EndChar

StartChar: Thorn
Encoding: 222 222 159
Width: 1151
Flags: W
LayerCount: 2
Fore
SplineSet
351 1257 m 2,0,-1
 351 1088 l 1,1,-1
 661 1088 l 2,2,3
 764 1088 764 1088 876 1051.5 c 128,-1,4
 988 1015 988 1015 1049 910 c 1,5,6
 1097 825 1097 825 1097 706 c 1,7,8
 1095 593 1095 593 1032 503 c 0,9,10
 978 426 978 426 878.5 388.5 c 128,-1,11
 779 351 779 351 697 351 c 2,12,-1
 351 351 l 1,13,-1
 351 146 l 2,14,15
 351 81 351 81 401 63.5 c 128,-1,16
 451 46 451 46 451 21 c 0,17,18
 451 0 451 0 430 0 c 2,19,-1
 91 0 l 2,20,21
 71 0 71 0 71 21 c 0,22,23
 71 46 71 46 121 63.5 c 128,-1,24
 171 81 171 81 171 146 c 2,25,-1
 171 1257 l 2,26,27
 171 1321 171 1321 121 1339 c 128,-1,28
 71 1357 71 1357 71 1383 c 0,29,30
 71 1404 71 1404 92 1404 c 2,31,-1
 430 1404 l 2,32,33
 451 1404 451 1404 451 1383 c 0,34,35
 451 1357 451 1357 401 1339 c 128,-1,36
 351 1321 351 1321 351 1257 c 2,0,-1
351 421 m 1,37,-1
 562 421 l 2,38,39
 631 421 631 421 702 441 c 128,-1,40
 773 461 773 461 824 512 c 1,41,42
 904 589 904 589 904 716 c 1,43,44
 902 839 902 839 821 920 c 1,45,46
 732 1005 732 1005 582 1005 c 2,47,-1
 351 1005 l 1,48,-1
 351 421 l 1,37,-1
EndSplineSet
Validated: 1
EndChar

StartChar: germandbls
Encoding: 223 223 160
Width: 1269
Flags: W
LayerCount: 2
Fore
SplineSet
432 1278 m 0,0,1
 397 1232 397 1232 392.5 1163 c 128,-1,2
 388 1094 388 1094 388 1027 c 2,3,-1
 388 146 l 2,4,5
 388 81 388 81 438 63.5 c 128,-1,6
 488 46 488 46 488 21 c 0,7,8
 488 0 488 0 467 0 c 2,9,-1
 128 0 l 2,10,11
 107 0 107 0 107 21 c 0,12,13
 107 46 107 46 157 63.5 c 128,-1,14
 207 81 207 81 207 146 c 2,15,-1
 207 1027 l 2,16,17
 207 1117 207 1117 229.5 1202.5 c 128,-1,18
 252 1288 252 1288 308 1351 c 0,19,20
 409 1466 409 1466 555 1466 c 0,21,22
 587 1466 587 1466 622 1460 c 0,23,24
 796 1430 796 1430 880 1265 c 0,25,26
 912 1200 912 1200 912 1140 c 0,27,28
 912 1046 912 1046 833 962 c 0,29,30
 779 904 779 904 715.5 859.5 c 128,-1,31
 652 815 652 815 638 751 c 0,32,33
 633 729 633 729 633 711 c 0,34,35
 633 648 633 648 689 621 c 1,36,37
 760 585 760 585 854 564 c 0,38,39
 983 535 983 535 1089 486 c 128,-1,40
 1195 437 1195 437 1204 281 c 1,41,-1
 1204 269 l 2,42,43
 1204 196 1204 196 1147 123 c 0,44,45
 1085 43 1085 43 968 2 c 1,46,47
 895 -22 895 -22 806 -25 c 1,48,-1
 779 -25 l 2,49,50
 657 -25 657 -25 544 7 c 1,51,-1
 464 227 l 1,52,-1
 466 247 l 2,53,54
 467 262 467 262 484 262 c 2,55,-1
 486 262 l 1,56,57
 496 260 496 260 507 238 c 0,58,59
 553 139 553 139 619.5 97.5 c 128,-1,60
 686 56 686 56 788 53 c 1,61,-1
 800 53 l 2,62,63
 872 53 872 53 957 86 c 0,64,65
 1049 122 1049 122 1052 216 c 1,66,-1
 1052 222 l 2,67,68
 1052 330 1052 330 950 359 c 0,69,70
 844 389 844 389 764 412 c 1,71,72
 665 439 665 439 578 498 c 0,73,74
 492 556 492 556 492 672 c 2,75,-1
 492 675 l 2,76,77
 492 774 492 774 558 824.5 c 128,-1,78
 624 875 624 875 687 934 c 0,79,80
 752 994 752 994 765 1093 c 0,81,82
 767 1113 767 1113 767 1133 c 0,83,84
 767 1206 767 1206 729 1261 c 1,85,86
 682 1326 682 1326 583 1336 c 0,87,88
 570 1337 570 1337 558 1337 c 0,89,90
 476 1337 476 1337 432 1278 c 0,0,1
EndSplineSet
Validated: 1
EndChar

